<svg width="375" height="919" viewBox="0 0 375 919" fill="none" xmlns="http://www.w3.org/2000/svg">
<path d="M97.1714 0V95.5C144.671 115.167 227.171 177.7 177.171 270.5C114.671 386.5 -49.3286 448.5 16.1714 547.5C81.6714 646.5 141.172 635.5 139.172 715.5C137.172 795.5 97.1714 847.5 97.1714 918.5" stroke="#F8FBFF"/>
<path d="M129.46 19.24C128.353 19.24 127.327 19.06 126.38 18.7C125.447 18.34 124.633 17.8333 123.94 17.18C123.26 16.5267 122.727 15.76 122.34 14.88C121.967 14 121.78 13.04 121.78 12C121.78 10.96 121.967 10 122.34 9.12C122.727 8.24 123.267 7.47333 123.96 6.82C124.653 6.16667 125.467 5.66 126.4 5.3C127.333 4.94 128.347 4.76 129.44 4.76C130.547 4.76 131.56 4.94 132.48 5.3C133.413 5.66 134.22 6.16667 134.9 6.82C135.593 7.47333 136.133 8.24 136.52 9.12C136.907 9.98667 137.1 10.9467 137.1 12C137.1 13.04 136.907 14.0067 136.52 14.9C136.133 15.78 135.593 16.5467 134.9 17.2C134.22 17.84 133.413 18.34 132.48 18.7C131.56 19.06 130.553 19.24 129.46 19.24ZM129.44 16.48C130.067 16.48 130.64 16.3733 131.16 16.16C131.693 15.9467 132.16 15.64 132.56 15.24C132.96 14.84 133.267 14.3667 133.48 13.82C133.707 13.2733 133.82 12.6667 133.82 12C133.82 11.3333 133.707 10.7267 133.48 10.18C133.267 9.63333 132.96 9.16 132.56 8.76C132.173 8.36 131.713 8.05333 131.18 7.84C130.647 7.62667 130.067 7.52 129.44 7.52C128.813 7.52 128.233 7.62667 127.7 7.84C127.18 8.05333 126.72 8.36 126.32 8.76C125.92 9.16 125.607 9.63333 125.38 10.18C125.167 10.7267 125.06 11.3333 125.06 12C125.06 12.6533 125.167 13.26 125.38 13.82C125.607 14.3667 125.913 14.84 126.3 15.24C126.7 15.64 127.167 15.9467 127.7 16.16C128.233 16.3733 128.813 16.48 129.44 16.48ZM145.855 8.08C146.708 8.08 147.468 8.25333 148.135 8.6C148.815 8.93333 149.348 9.45333 149.735 10.16C150.122 10.8533 150.315 11.7467 150.315 12.84V19H147.195V13.32C147.195 12.4533 147.002 11.8133 146.615 11.4C146.242 10.9867 145.708 10.78 145.015 10.78C144.522 10.78 144.075 10.8867 143.675 11.1C143.288 11.3 142.982 11.6133 142.755 12.04C142.542 12.4667 142.435 13.0133 142.435 13.68V19H139.315V8.24H142.295V11.22L141.735 10.32C142.122 9.6 142.675 9.04667 143.395 8.66C144.115 8.27333 144.935 8.08 145.855 8.08ZM153.143 19V4.16H156.263V19H153.143ZM160.519 23.04C159.959 23.04 159.405 22.9533 158.859 22.78C158.312 22.6067 157.865 22.3667 157.519 22.06L158.659 19.84C158.899 20.0533 159.172 20.22 159.479 20.34C159.799 20.46 160.112 20.52 160.419 20.52C160.859 20.52 161.205 20.4133 161.459 20.2C161.725 20 161.965 19.66 162.179 19.18L162.739 17.86L162.979 17.52L166.839 8.24H169.839L164.979 19.66C164.632 20.5267 164.232 21.2067 163.779 21.7C163.339 22.1933 162.845 22.54 162.299 22.74C161.765 22.94 161.172 23.04 160.519 23.04ZM162.359 19.42L157.559 8.24H160.779L164.499 17.24L162.359 19.42ZM179.356 16.8L179.436 13L184.456 8.24H188.176L183.356 13.14L181.736 14.46L179.356 16.8ZM176.776 19V4.16H179.896V19H176.776ZM184.796 19L181.156 14.48L183.116 12.06L188.576 19H184.796ZM196.46 8.08C197.314 8.08 198.074 8.25333 198.74 8.6C199.42 8.93333 199.954 9.45333 200.34 10.16C200.727 10.8533 200.92 11.7467 200.92 12.84V19H197.8V13.32C197.8 12.4533 197.607 11.8133 197.22 11.4C196.847 10.9867 196.314 10.78 195.62 10.78C195.127 10.78 194.68 10.8867 194.28 11.1C193.894 11.3 193.587 11.6133 193.36 12.04C193.147 12.4667 193.04 13.0133 193.04 13.68V19H189.92V8.24H192.9V11.22L192.34 10.32C192.727 9.6 193.28 9.04667 194 8.66C194.72 8.27333 195.54 8.08 196.46 8.08ZM208.947 19.16C207.8 19.16 206.78 18.92 205.887 18.44C205.007 17.96 204.307 17.3067 203.787 16.48C203.28 15.64 203.027 14.6867 203.027 13.62C203.027 12.54 203.28 11.5867 203.787 10.76C204.307 9.92 205.007 9.26667 205.887 8.8C206.78 8.32 207.8 8.08 208.947 8.08C210.08 8.08 211.093 8.32 211.987 8.8C212.88 9.26667 213.58 9.91333 214.087 10.74C214.593 11.5667 214.847 12.5267 214.847 13.62C214.847 14.6867 214.593 15.64 214.087 16.48C213.58 17.3067 212.88 17.96 211.987 18.44C211.093 18.92 210.08 19.16 208.947 19.16ZM208.947 16.6C209.467 16.6 209.933 16.48 210.347 16.24C210.76 16 211.087 15.66 211.327 15.22C211.567 14.7667 211.687 14.2333 211.687 13.62C211.687 12.9933 211.567 12.46 211.327 12.02C211.087 11.58 210.76 11.24 210.347 11C209.933 10.76 209.467 10.64 208.947 10.64C208.427 10.64 207.96 10.76 207.547 11C207.133 11.24 206.8 11.58 206.547 12.02C206.307 12.46 206.187 12.9933 206.187 13.62C206.187 14.2333 206.307 14.7667 206.547 15.22C206.8 15.66 207.133 16 207.547 16.24C207.96 16.48 208.427 16.6 208.947 16.6ZM219.099 19L215.219 8.24H218.159L221.379 17.5H219.979L223.339 8.24H225.979L229.239 17.5H227.839L231.159 8.24H233.919L230.019 19H226.999L224.139 11.06H225.059L222.099 19H219.099ZM243.834 19.24C242.887 19.24 242.014 19.0667 241.214 18.72C240.427 18.36 239.78 17.8533 239.274 17.2L241.074 15.04C241.46 15.5467 241.867 15.9333 242.294 16.2C242.72 16.4533 243.18 16.58 243.674 16.58C244.994 16.58 245.654 15.8067 245.654 14.26V7.6H240.734V5H248.874V14.08C248.874 15.8133 248.447 17.1067 247.594 17.96C246.74 18.8133 245.487 19.24 243.834 19.24ZM258.454 19V16.9L258.254 16.44V12.68C258.254 12.0133 258.047 11.4933 257.634 11.12C257.234 10.7467 256.614 10.56 255.774 10.56C255.201 10.56 254.634 10.6533 254.074 10.84C253.527 11.0133 253.061 11.2533 252.674 11.56L251.554 9.38C252.141 8.96667 252.847 8.64667 253.674 8.42C254.501 8.19333 255.341 8.08 256.194 8.08C257.834 8.08 259.107 8.46667 260.014 9.24C260.921 10.0133 261.374 11.22 261.374 12.86V19H258.454ZM255.174 19.16C254.334 19.16 253.614 19.02 253.014 18.74C252.414 18.4467 251.954 18.0533 251.634 17.56C251.314 17.0667 251.154 16.5133 251.154 15.9C251.154 15.26 251.307 14.7 251.614 14.22C251.934 13.74 252.434 13.3667 253.114 13.1C253.794 12.82 254.681 12.68 255.774 12.68H258.634V14.5H256.114C255.381 14.5 254.874 14.62 254.594 14.86C254.327 15.1 254.194 15.4 254.194 15.76C254.194 16.16 254.347 16.48 254.654 16.72C254.974 16.9467 255.407 17.06 255.954 17.06C256.474 17.06 256.941 16.94 257.354 16.7C257.767 16.4467 258.067 16.08 258.254 15.6L258.734 17.04C258.507 17.7333 258.094 18.26 257.494 18.62C256.894 18.98 256.121 19.16 255.174 19.16ZM266.923 19L262.402 8.24H265.623L269.383 17.5H267.783L271.683 8.24H274.683L270.143 19H266.923ZM282.204 19V16.9L282.004 16.44V12.68C282.004 12.0133 281.797 11.4933 281.384 11.12C280.984 10.7467 280.364 10.56 279.524 10.56C278.951 10.56 278.384 10.6533 277.824 10.84C277.277 11.0133 276.811 11.2533 276.424 11.56L275.304 9.38C275.891 8.96667 276.597 8.64667 277.424 8.42C278.251 8.19333 279.091 8.08 279.944 8.08C281.584 8.08 282.857 8.46667 283.764 9.24C284.671 10.0133 285.124 11.22 285.124 12.86V19H282.204ZM278.924 19.16C278.084 19.16 277.364 19.02 276.764 18.74C276.164 18.4467 275.704 18.0533 275.384 17.56C275.064 17.0667 274.904 16.5133 274.904 15.9C274.904 15.26 275.057 14.7 275.364 14.22C275.684 13.74 276.184 13.3667 276.864 13.1C277.544 12.82 278.431 12.68 279.524 12.68H282.384V14.5H279.864C279.131 14.5 278.624 14.62 278.344 14.86C278.077 15.1 277.944 15.4 277.944 15.76C277.944 16.16 278.097 16.48 278.404 16.72C278.724 16.9467 279.157 17.06 279.704 17.06C280.224 17.06 280.691 16.94 281.104 16.7C281.517 16.4467 281.817 16.08 282.004 15.6L282.484 17.04C282.257 17.7333 281.844 18.26 281.244 18.62C280.644 18.98 279.871 19.16 278.924 19.16Z" fill="#F8FBFF"/>
<path d="M117.66 886V872H120.34L128.6 882.08H127.3V872H130.5V886H127.84L119.56 875.92H120.86V886H117.66ZM138.712 886.16C137.566 886.16 136.546 885.92 135.652 885.44C134.772 884.96 134.072 884.307 133.552 883.48C133.046 882.64 132.792 881.687 132.792 880.62C132.792 879.54 133.046 878.587 133.552 877.76C134.072 876.92 134.772 876.267 135.652 875.8C136.546 875.32 137.566 875.08 138.712 875.08C139.846 875.08 140.859 875.32 141.752 875.8C142.646 876.267 143.346 876.913 143.852 877.74C144.359 878.567 144.612 879.527 144.612 880.62C144.612 881.687 144.359 882.64 143.852 883.48C143.346 884.307 142.646 884.96 141.752 885.44C140.859 885.92 139.846 886.16 138.712 886.16ZM138.712 883.6C139.232 883.6 139.699 883.48 140.112 883.24C140.526 883 140.852 882.66 141.092 882.22C141.332 881.767 141.452 881.233 141.452 880.62C141.452 879.993 141.332 879.46 141.092 879.02C140.852 878.58 140.526 878.24 140.112 878C139.699 877.76 139.232 877.64 138.712 877.64C138.192 877.64 137.726 877.76 137.312 878C136.899 878.24 136.566 878.58 136.312 879.02C136.072 879.46 135.952 879.993 135.952 880.62C135.952 881.233 136.072 881.767 136.312 882.22C136.566 882.66 136.899 883 137.312 883.24C137.726 883.48 138.192 883.6 138.712 883.6ZM148.865 886L144.985 875.24H147.925L151.145 884.5H149.745L153.105 875.24H155.745L159.005 884.5H157.605L160.925 875.24H163.685L159.785 886H156.765L153.905 878.06H154.825L151.865 886H148.865ZM175.999 886.16C174.839 886.16 173.806 885.927 172.899 885.46C171.993 884.98 171.279 884.32 170.759 883.48C170.253 882.64 169.999 881.687 169.999 880.62C169.999 879.54 170.253 878.587 170.759 877.76C171.279 876.92 171.993 876.267 172.899 875.8C173.806 875.32 174.839 875.08 175.999 875.08C177.133 875.08 178.119 875.32 178.959 875.8C179.799 876.267 180.419 876.94 180.819 877.82L178.399 879.12C178.119 878.613 177.766 878.24 177.339 878C176.926 877.76 176.473 877.64 175.979 877.64C175.446 877.64 174.966 877.76 174.539 878C174.113 878.24 173.773 878.58 173.519 879.02C173.279 879.46 173.159 879.993 173.159 880.62C173.159 881.247 173.279 881.78 173.519 882.22C173.773 882.66 174.113 883 174.539 883.24C174.966 883.48 175.446 883.6 175.979 883.6C176.473 883.6 176.926 883.487 177.339 883.26C177.766 883.02 178.119 882.64 178.399 882.12L180.819 883.44C180.419 884.307 179.799 884.98 178.959 885.46C178.119 885.927 177.133 886.16 175.999 886.16ZM189.216 886V883.9L189.016 883.44V879.68C189.016 879.013 188.809 878.493 188.396 878.12C187.996 877.747 187.376 877.56 186.536 877.56C185.962 877.56 185.396 877.653 184.836 877.84C184.289 878.013 183.822 878.253 183.436 878.56L182.316 876.38C182.902 875.967 183.609 875.647 184.436 875.42C185.262 875.193 186.102 875.08 186.956 875.08C188.596 875.08 189.869 875.467 190.776 876.24C191.682 877.013 192.136 878.22 192.136 879.86V886H189.216ZM185.936 886.16C185.096 886.16 184.376 886.02 183.776 885.74C183.176 885.447 182.716 885.053 182.396 884.56C182.076 884.067 181.916 883.513 181.916 882.9C181.916 882.26 182.069 881.7 182.376 881.22C182.696 880.74 183.196 880.367 183.876 880.1C184.556 879.82 185.442 879.68 186.536 879.68H189.396V881.5H186.876C186.142 881.5 185.636 881.62 185.356 881.86C185.089 882.1 184.956 882.4 184.956 882.76C184.956 883.16 185.109 883.48 185.416 883.72C185.736 883.947 186.169 884.06 186.716 884.06C187.236 884.06 187.702 883.94 188.116 883.7C188.529 883.447 188.829 883.08 189.016 882.6L189.496 884.04C189.269 884.733 188.856 885.26 188.256 885.62C187.656 885.98 186.882 886.16 185.936 886.16ZM201.5 875.08C202.353 875.08 203.113 875.253 203.78 875.6C204.46 875.933 204.993 876.453 205.38 877.16C205.766 877.853 205.96 878.747 205.96 879.84V886H202.84V880.32C202.84 879.453 202.646 878.813 202.26 878.4C201.886 877.987 201.353 877.78 200.66 877.78C200.166 877.78 199.72 877.887 199.32 878.1C198.933 878.3 198.626 878.613 198.4 879.04C198.186 879.467 198.08 880.013 198.08 880.68V886H194.96V875.24H197.94V878.22L197.38 877.32C197.766 876.6 198.32 876.047 199.04 875.66C199.76 875.273 200.58 875.08 201.5 875.08ZM220.812 886.16C219.865 886.16 219.052 885.96 218.372 885.56C217.692 885.16 217.172 884.553 216.812 883.74C216.452 882.913 216.272 881.873 216.272 880.62C216.272 879.353 216.458 878.313 216.832 877.5C217.218 876.687 217.752 876.08 218.432 875.68C219.112 875.28 219.905 875.08 220.812 875.08C221.825 875.08 222.732 875.307 223.532 875.76C224.345 876.213 224.985 876.853 225.452 877.68C225.932 878.507 226.172 879.487 226.172 880.62C226.172 881.74 225.932 882.713 225.452 883.54C224.985 884.367 224.345 885.013 223.532 885.48C222.732 885.933 221.825 886.16 220.812 886.16ZM214.452 886V871.16H217.572V877.42L217.372 880.6L217.432 883.8V886H214.452ZM220.272 883.6C220.792 883.6 221.252 883.48 221.652 883.24C222.065 883 222.392 882.66 222.632 882.22C222.885 881.767 223.012 881.233 223.012 880.62C223.012 879.993 222.885 879.46 222.632 879.02C222.392 878.58 222.065 878.24 221.652 878C221.252 877.76 220.792 877.64 220.272 877.64C219.752 877.64 219.285 877.76 218.872 878C218.458 878.24 218.132 878.58 217.892 879.02C217.652 879.46 217.532 879.993 217.532 880.62C217.532 881.233 217.652 881.767 217.892 882.22C218.132 882.66 218.458 883 218.872 883.24C219.285 883.48 219.752 883.6 220.272 883.6ZM232.8 886.16C231.907 886.16 231.107 885.987 230.4 885.64C229.707 885.293 229.167 884.767 228.78 884.06C228.394 883.34 228.2 882.427 228.2 881.32V875.24H231.32V880.86C231.32 881.753 231.507 882.413 231.88 882.84C232.267 883.253 232.807 883.46 233.5 883.46C233.98 883.46 234.407 883.36 234.78 883.16C235.154 882.947 235.447 882.627 235.66 882.2C235.874 881.76 235.98 881.213 235.98 880.56V875.24H239.1V886H236.14V883.04L236.68 883.9C236.32 884.647 235.787 885.213 235.08 885.6C234.387 885.973 233.627 886.16 232.8 886.16ZM241.991 886V875.24H245.111V886H241.991ZM243.551 873.74C242.977 873.74 242.511 873.573 242.151 873.24C241.791 872.907 241.611 872.493 241.611 872C241.611 871.507 241.791 871.093 242.151 870.76C242.511 870.427 242.977 870.26 243.551 870.26C244.124 870.26 244.591 870.42 244.951 870.74C245.311 871.047 245.491 871.447 245.491 871.94C245.491 872.46 245.311 872.893 244.951 873.24C244.604 873.573 244.137 873.74 243.551 873.74ZM248.006 886V871.16H251.126V886H248.006ZM258.642 886.16C257.629 886.16 256.715 885.933 255.902 885.48C255.089 885.013 254.442 884.367 253.962 883.54C253.495 882.713 253.262 881.74 253.262 880.62C253.262 879.487 253.495 878.507 253.962 877.68C254.442 876.853 255.089 876.213 255.902 875.76C256.715 875.307 257.629 875.08 258.642 875.08C259.549 875.08 260.342 875.28 261.022 875.68C261.702 876.08 262.229 876.687 262.602 877.5C262.975 878.313 263.162 879.353 263.162 880.62C263.162 881.873 262.982 882.913 262.622 883.74C262.262 884.553 261.742 885.16 261.062 885.56C260.395 885.96 259.589 886.16 258.642 886.16ZM259.182 883.6C259.689 883.6 260.149 883.48 260.562 883.24C260.975 883 261.302 882.66 261.542 882.22C261.795 881.767 261.922 881.233 261.922 880.62C261.922 879.993 261.795 879.46 261.542 879.02C261.302 878.58 260.975 878.24 260.562 878C260.149 877.76 259.689 877.64 259.182 877.64C258.662 877.64 258.195 877.76 257.782 878C257.369 878.24 257.035 878.58 256.782 879.02C256.542 879.46 256.422 879.993 256.422 880.62C256.422 881.233 256.542 881.767 256.782 882.22C257.035 882.66 257.369 883 257.782 883.24C258.195 883.48 258.662 883.6 259.182 883.6ZM262.002 886V883.8L262.062 880.6L261.862 877.42V871.16H264.982V886H262.002ZM273.754 886V872H280.594C282.354 872 283.674 872.333 284.554 873C285.447 873.667 285.894 874.547 285.894 875.64C285.894 876.373 285.714 877.013 285.354 877.56C284.994 878.093 284.5 878.507 283.874 878.8C283.247 879.093 282.527 879.24 281.714 879.24L282.094 878.42C282.974 878.42 283.754 878.567 284.434 878.86C285.114 879.14 285.64 879.56 286.014 880.12C286.4 880.68 286.594 881.367 286.594 882.18C286.594 883.38 286.12 884.32 285.174 885C284.227 885.667 282.834 886 280.994 886H273.754ZM276.974 883.56H280.754C281.594 883.56 282.227 883.427 282.654 883.16C283.094 882.88 283.314 882.44 283.314 881.84C283.314 881.253 283.094 880.82 282.654 880.54C282.227 880.247 281.594 880.1 280.754 880.1H276.734V877.74H280.194C280.98 877.74 281.58 877.607 281.994 877.34C282.42 877.06 282.634 876.64 282.634 876.08C282.634 875.533 282.42 875.127 281.994 874.86C281.58 874.58 280.98 874.44 280.194 874.44H276.974V883.56ZM295.427 886V883.9L295.227 883.44V879.68C295.227 879.013 295.02 878.493 294.607 878.12C294.207 877.747 293.587 877.56 292.747 877.56C292.173 877.56 291.607 877.653 291.047 877.84C290.5 878.013 290.033 878.253 289.647 878.56L288.527 876.38C289.113 875.967 289.82 875.647 290.647 875.42C291.473 875.193 292.313 875.08 293.167 875.08C294.807 875.08 296.08 875.467 296.987 876.24C297.893 877.013 298.347 878.22 298.347 879.86V886H295.427ZM292.147 886.16C291.307 886.16 290.587 886.02 289.987 885.74C289.387 885.447 288.927 885.053 288.607 884.56C288.287 884.067 288.127 883.513 288.127 882.9C288.127 882.26 288.28 881.7 288.587 881.22C288.907 880.74 289.407 880.367 290.087 880.1C290.767 879.82 291.653 879.68 292.747 879.68H295.607V881.5H293.087C292.353 881.5 291.847 881.62 291.567 881.86C291.3 882.1 291.167 882.4 291.167 882.76C291.167 883.16 291.32 883.48 291.627 883.72C291.947 883.947 292.38 884.06 292.927 884.06C293.447 884.06 293.913 883.94 294.327 883.7C294.74 883.447 295.04 883.08 295.227 882.6L295.707 884.04C295.48 884.733 295.067 885.26 294.467 885.62C293.867 885.98 293.093 886.16 292.147 886.16ZM306.449 886.16C305.289 886.16 304.255 885.927 303.349 885.46C302.442 884.98 301.729 884.32 301.209 883.48C300.702 882.64 300.449 881.687 300.449 880.62C300.449 879.54 300.702 878.587 301.209 877.76C301.729 876.92 302.442 876.267 303.349 875.8C304.255 875.32 305.289 875.08 306.449 875.08C307.582 875.08 308.569 875.32 309.409 875.8C310.249 876.267 310.869 876.94 311.269 877.82L308.849 879.12C308.569 878.613 308.215 878.24 307.789 878C307.375 877.76 306.922 877.64 306.429 877.64C305.895 877.64 305.415 877.76 304.989 878C304.562 878.24 304.222 878.58 303.969 879.02C303.729 879.46 303.609 879.993 303.609 880.62C303.609 881.247 303.729 881.78 303.969 882.22C304.222 882.66 304.562 883 304.989 883.24C305.415 883.48 305.895 883.6 306.429 883.6C306.922 883.6 307.375 883.487 307.789 883.26C308.215 883.02 308.569 882.64 308.849 882.12L311.269 883.44C310.869 884.307 310.249 884.98 309.409 885.46C308.569 885.927 307.582 886.16 306.449 886.16ZM315.586 883.8L315.666 880L320.686 875.24H324.406L319.586 880.14L317.966 881.46L315.586 883.8ZM313.006 886V871.16H316.126V886H313.006ZM321.026 886L317.386 881.48L319.346 879.06L324.806 886H321.026ZM331.1 886.16C329.874 886.16 328.794 885.92 327.86 885.44C326.94 884.96 326.227 884.307 325.72 883.48C325.214 882.64 324.96 881.687 324.96 880.62C324.96 879.54 325.207 878.587 325.7 877.76C326.207 876.92 326.894 876.267 327.76 875.8C328.627 875.32 329.607 875.08 330.7 875.08C331.754 875.08 332.7 875.307 333.54 875.76C334.394 876.2 335.067 876.84 335.56 877.68C336.054 878.507 336.3 879.5 336.3 880.66C336.3 880.78 336.294 880.92 336.28 881.08C336.267 881.227 336.254 881.367 336.24 881.5H327.5V879.68H334.6L333.4 880.22C333.4 879.66 333.287 879.173 333.06 878.76C332.834 878.347 332.52 878.027 332.12 877.8C331.72 877.56 331.254 877.44 330.72 877.44C330.187 877.44 329.714 877.56 329.3 877.8C328.9 878.027 328.587 878.353 328.36 878.78C328.134 879.193 328.02 879.687 328.02 880.26V880.74C328.02 881.327 328.147 881.847 328.4 882.3C328.667 882.74 329.034 883.08 329.5 883.32C329.98 883.547 330.54 883.66 331.18 883.66C331.754 883.66 332.254 883.573 332.68 883.4C333.12 883.227 333.52 882.967 333.88 882.62L335.54 884.42C335.047 884.98 334.427 885.413 333.68 885.72C332.934 886.013 332.074 886.16 331.1 886.16ZM344.918 875.08C345.771 875.08 346.531 875.253 347.198 875.6C347.878 875.933 348.411 876.453 348.798 877.16C349.184 877.853 349.378 878.747 349.378 879.84V886H346.258V880.32C346.258 879.453 346.064 878.813 345.678 878.4C345.304 877.987 344.771 877.78 344.078 877.78C343.584 877.78 343.138 877.887 342.738 878.1C342.351 878.3 342.044 878.613 341.818 879.04C341.604 879.467 341.498 880.013 341.498 880.68V886H338.378V875.24H341.358V878.22L340.798 877.32C341.184 876.6 341.738 876.047 342.458 875.66C343.178 875.273 343.998 875.08 344.918 875.08ZM356.904 886.16C355.89 886.16 354.977 885.933 354.164 885.48C353.35 885.013 352.704 884.367 352.224 883.54C351.757 882.713 351.524 881.74 351.524 880.62C351.524 879.487 351.757 878.507 352.224 877.68C352.704 876.853 353.35 876.213 354.164 875.76C354.977 875.307 355.89 875.08 356.904 875.08C357.81 875.08 358.604 875.28 359.284 875.68C359.964 876.08 360.49 876.687 360.864 877.5C361.237 878.313 361.424 879.353 361.424 880.62C361.424 881.873 361.244 882.913 360.884 883.74C360.524 884.553 360.004 885.16 359.324 885.56C358.657 885.96 357.85 886.16 356.904 886.16ZM357.444 883.6C357.95 883.6 358.41 883.48 358.824 883.24C359.237 883 359.564 882.66 359.804 882.22C360.057 881.767 360.184 881.233 360.184 880.62C360.184 879.993 360.057 879.46 359.804 879.02C359.564 878.58 359.237 878.24 358.824 878C358.41 877.76 357.95 877.64 357.444 877.64C356.924 877.64 356.457 877.76 356.044 878C355.63 878.24 355.297 878.58 355.044 879.02C354.804 879.46 354.684 879.993 354.684 880.62C354.684 881.233 354.804 881.767 355.044 882.22C355.297 882.66 355.63 883 356.044 883.24C356.457 883.48 356.924 883.6 357.444 883.6ZM360.264 886V883.8L360.324 880.6L360.124 877.42V871.16H363.244V886H360.264ZM122.56 910.16C121.413 910.16 120.393 909.92 119.5 909.44C118.62 908.96 117.92 908.307 117.4 907.48C116.893 906.64 116.64 905.687 116.64 904.62C116.64 903.54 116.893 902.587 117.4 901.76C117.92 900.92 118.62 900.267 119.5 899.8C120.393 899.32 121.413 899.08 122.56 899.08C123.693 899.08 124.707 899.32 125.6 899.8C126.493 900.267 127.193 900.913 127.7 901.74C128.207 902.567 128.46 903.527 128.46 904.62C128.46 905.687 128.207 906.64 127.7 907.48C127.193 908.307 126.493 908.96 125.6 909.44C124.707 909.92 123.693 910.16 122.56 910.16ZM122.56 907.6C123.08 907.6 123.547 907.48 123.96 907.24C124.373 907 124.7 906.66 124.94 906.22C125.18 905.767 125.3 905.233 125.3 904.62C125.3 903.993 125.18 903.46 124.94 903.02C124.7 902.58 124.373 902.24 123.96 902C123.547 901.76 123.08 901.64 122.56 901.64C122.04 901.64 121.573 901.76 121.16 902C120.747 902.24 120.413 902.58 120.16 903.02C119.92 903.46 119.8 903.993 119.8 904.62C119.8 905.233 119.92 905.767 120.16 906.22C120.413 906.66 120.747 907 121.16 907.24C121.573 907.48 122.04 907.6 122.56 907.6ZM137.085 899.08C137.939 899.08 138.699 899.253 139.365 899.6C140.045 899.933 140.579 900.453 140.965 901.16C141.352 901.853 141.545 902.747 141.545 903.84V910H138.425V904.32C138.425 903.453 138.232 902.813 137.845 902.4C137.472 901.987 136.939 901.78 136.245 901.78C135.752 901.78 135.305 901.887 134.905 902.1C134.519 902.3 134.212 902.613 133.985 903.04C133.772 903.467 133.665 904.013 133.665 904.68V910H130.545V899.24H133.525V902.22L132.965 901.32C133.352 900.6 133.905 900.047 134.625 899.66C135.345 899.273 136.165 899.08 137.085 899.08ZM154.858 910.24C153.738 910.24 152.664 910.093 151.638 909.8C150.611 909.493 149.784 909.1 149.158 908.62L150.258 906.18C150.858 906.607 151.564 906.96 152.378 907.24C153.204 907.507 154.038 907.64 154.878 907.64C155.518 907.64 156.031 907.58 156.418 907.46C156.818 907.327 157.111 907.147 157.298 906.92C157.484 906.693 157.578 906.433 157.578 906.14C157.578 905.767 157.431 905.473 157.138 905.26C156.844 905.033 156.458 904.853 155.978 904.72C155.498 904.573 154.964 904.44 154.378 904.32C153.804 904.187 153.224 904.027 152.638 903.84C152.064 903.653 151.538 903.413 151.058 903.12C150.578 902.827 150.184 902.44 149.878 901.96C149.584 901.48 149.438 900.867 149.438 900.12C149.438 899.32 149.651 898.593 150.078 897.94C150.518 897.273 151.171 896.747 152.038 896.36C152.918 895.96 154.018 895.76 155.338 895.76C156.218 895.76 157.084 895.867 157.938 896.08C158.791 896.28 159.544 896.587 160.198 897L159.198 899.46C158.544 899.087 157.891 898.813 157.238 898.64C156.584 898.453 155.944 898.36 155.318 898.36C154.691 898.36 154.178 898.433 153.778 898.58C153.378 898.727 153.091 898.92 152.918 899.16C152.744 899.387 152.658 899.653 152.658 899.96C152.658 900.32 152.804 900.613 153.098 900.84C153.391 901.053 153.778 901.227 154.258 901.36C154.738 901.493 155.264 901.627 155.838 901.76C156.424 901.893 157.004 902.047 157.578 902.22C158.164 902.393 158.698 902.627 159.178 902.92C159.658 903.213 160.044 903.6 160.338 904.08C160.644 904.56 160.798 905.167 160.798 905.9C160.798 906.687 160.578 907.407 160.138 908.06C159.698 908.713 159.038 909.24 158.158 909.64C157.291 910.04 156.191 910.24 154.858 910.24ZM169.152 910.16C168.245 910.16 167.452 909.96 166.772 909.56C166.092 909.16 165.558 908.553 165.172 907.74C164.798 906.913 164.612 905.873 164.612 904.62C164.612 903.353 164.792 902.313 165.152 901.5C165.512 900.687 166.032 900.08 166.712 899.68C167.392 899.28 168.205 899.08 169.152 899.08C170.165 899.08 171.072 899.313 171.872 899.78C172.685 900.233 173.325 900.873 173.792 901.7C174.272 902.527 174.512 903.5 174.512 904.62C174.512 905.753 174.272 906.733 173.792 907.56C173.325 908.387 172.685 909.027 171.872 909.48C171.072 909.933 170.165 910.16 169.152 910.16ZM162.792 913.88V899.24H165.772V901.44L165.712 904.64L165.912 907.82V913.88H162.792ZM168.612 907.6C169.132 907.6 169.592 907.48 169.992 907.24C170.405 907 170.732 906.66 170.972 906.22C171.225 905.767 171.352 905.233 171.352 904.62C171.352 903.993 171.225 903.46 170.972 903.02C170.732 902.58 170.405 902.24 169.992 902C169.592 901.76 169.132 901.64 168.612 901.64C168.092 901.64 167.625 901.76 167.212 902C166.798 902.24 166.472 902.58 166.232 903.02C165.992 903.46 165.872 903.993 165.872 904.62C165.872 905.233 165.992 905.767 166.232 906.22C166.472 906.66 166.798 907 167.212 907.24C167.625 907.48 168.092 907.6 168.612 907.6ZM176.6 910V899.24H179.58V902.28L179.16 901.4C179.48 900.64 179.993 900.067 180.7 899.68C181.407 899.28 182.267 899.08 183.28 899.08V901.96C183.147 901.947 183.027 901.94 182.92 901.94C182.813 901.927 182.7 901.92 182.58 901.92C181.727 901.92 181.033 902.167 180.5 902.66C179.98 903.14 179.72 903.893 179.72 904.92V910H176.6ZM185.155 910V899.24H188.275V910H185.155ZM186.715 897.74C186.142 897.74 185.675 897.573 185.315 897.24C184.955 896.907 184.775 896.493 184.775 896C184.775 895.507 184.955 895.093 185.315 894.76C185.675 894.427 186.142 894.26 186.715 894.26C187.288 894.26 187.755 894.42 188.115 894.74C188.475 895.047 188.655 895.447 188.655 895.94C188.655 896.46 188.475 896.893 188.115 897.24C187.768 897.573 187.302 897.74 186.715 897.74ZM197.71 899.08C198.564 899.08 199.324 899.253 199.99 899.6C200.67 899.933 201.204 900.453 201.59 901.16C201.977 901.853 202.17 902.747 202.17 903.84V910H199.05V904.32C199.05 903.453 198.857 902.813 198.47 902.4C198.097 901.987 197.564 901.78 196.87 901.78C196.377 901.78 195.93 901.887 195.53 902.1C195.144 902.3 194.837 902.613 194.61 903.04C194.397 903.467 194.29 904.013 194.29 904.68V910H191.17V899.24H194.15V902.22L193.59 901.32C193.977 900.6 194.53 900.047 195.25 899.66C195.97 899.273 196.79 899.08 197.71 899.08ZM210.137 914.04C209.123 914.04 208.143 913.913 207.197 913.66C206.263 913.42 205.483 913.053 204.857 912.56L206.097 910.32C206.55 910.693 207.123 910.987 207.817 911.2C208.523 911.427 209.217 911.54 209.897 911.54C211.003 911.54 211.803 911.293 212.297 910.8C212.803 910.307 213.057 909.573 213.057 908.6V906.98L213.257 904.28L213.217 901.56V899.24H216.177V908.2C216.177 910.2 215.657 911.673 214.617 912.62C213.577 913.567 212.083 914.04 210.137 914.04ZM209.657 909.48C208.657 909.48 207.75 909.267 206.937 908.84C206.137 908.4 205.49 907.793 204.997 907.02C204.517 906.233 204.277 905.32 204.277 904.28C204.277 903.227 204.517 902.313 204.997 901.54C205.49 900.753 206.137 900.147 206.937 899.72C207.75 899.293 208.657 899.08 209.657 899.08C210.563 899.08 211.363 899.267 212.057 899.64C212.75 900 213.29 900.567 213.677 901.34C214.063 902.1 214.257 903.08 214.257 904.28C214.257 905.467 214.063 906.447 213.677 907.22C213.29 907.98 212.75 908.547 212.057 908.92C211.363 909.293 210.563 909.48 209.657 909.48ZM210.277 906.92C210.823 906.92 211.31 906.813 211.737 906.6C212.163 906.373 212.497 906.06 212.737 905.66C212.977 905.26 213.097 904.8 213.097 904.28C213.097 903.747 212.977 903.287 212.737 902.9C212.497 902.5 212.163 902.193 211.737 901.98C211.31 901.753 210.823 901.64 210.277 901.64C209.73 901.64 209.243 901.753 208.817 901.98C208.39 902.193 208.05 902.5 207.797 902.9C207.557 903.287 207.437 903.747 207.437 904.28C207.437 904.8 207.557 905.26 207.797 905.66C208.05 906.06 208.39 906.373 208.817 906.6C209.243 906.813 209.73 906.92 210.277 906.92ZM219.301 905.14L218.681 896H222.401L221.781 905.14H219.301ZM220.541 910.16C219.981 910.16 219.521 909.98 219.161 909.62C218.801 909.26 218.621 908.833 218.621 908.34C218.621 907.833 218.801 907.413 219.161 907.08C219.521 906.733 219.981 906.56 220.541 906.56C221.114 906.56 221.574 906.733 221.921 907.08C222.281 907.413 222.461 907.833 222.461 908.34C222.461 908.833 222.281 909.26 221.921 909.62C221.574 909.98 221.114 910.16 220.541 910.16Z" fill="#F8FBFF"/>
<path d="M163.56 120V106.4H166.1L170.28 116.38L170.68 117.6L171.1 116.38L175.26 106.4H177.72V120H175.88V108.62L174.92 111.3L171.28 120H169.98L166.34 111.28L165.4 108.68V120H163.56ZM182.305 112.84H180.545C180.885 110.5 182.425 109.12 185.025 109.12C187.865 109.12 189.245 110.78 189.245 113.26V117.44C189.245 118.66 189.345 119.42 189.625 120H187.765C187.565 119.58 187.505 118.96 187.485 118.32C186.585 119.66 185.145 120.24 183.865 120.24C181.665 120.24 180.185 119.22 180.185 117.2C180.185 115.74 180.985 114.68 182.545 114.16C183.985 113.68 185.445 113.56 187.485 113.54V113.3C187.485 111.58 186.685 110.64 184.865 110.64C183.345 110.64 182.525 111.48 182.305 112.84ZM181.985 117.16C181.985 118.14 182.805 118.72 184.045 118.72C186.005 118.72 187.485 117.18 187.485 115.36V114.86C182.965 114.9 181.985 115.86 181.985 117.16ZM194.4 120L190.44 109.38H192.34L195.28 117.62L195.54 118.54L195.8 117.62L198.74 109.38H200.52L196.56 120H194.4ZM211.193 116.54C210.613 119.02 208.833 120.24 206.413 120.24C203.333 120.24 201.473 118.16 201.473 114.7C201.473 111.1 203.333 109.12 206.313 109.12C209.313 109.12 211.113 111.18 211.113 114.56V115H203.273C203.373 117.38 204.493 118.72 206.413 118.72C207.913 118.72 208.973 118 209.353 116.54H211.193ZM206.313 110.64C204.613 110.64 203.593 111.7 203.333 113.68H209.273C209.033 111.72 207.973 110.64 206.313 110.64ZM213.459 120V109.38H215.219V110.82C215.939 109.7 217.099 109.12 218.499 109.12C220.759 109.12 222.099 110.44 222.099 112.9V120H220.339V113.26C220.339 111.66 219.619 110.62 218.019 110.62C216.259 110.62 215.219 112.2 215.219 113.72V120H213.459Z" fill="#F8FBFF" fill-opacity="0.5"/>
<path d="M221.76 220L218.82 209.96L218.52 208.86L218.2 209.96L215.26 220H213.08L208.76 206.4H210.72L213.94 217.04L214.22 218.06L214.48 217.04L217.58 206.4H219.56L222.64 217.04L222.9 218.06L223.16 217.04L226.36 206.4H228.24L223.92 220H221.76ZM233.818 220.24C230.778 220.24 228.958 218.16 228.958 214.7C228.958 211.1 230.838 209.12 233.818 209.12C236.858 209.12 238.678 211.24 238.678 214.7C238.678 218.28 236.798 220.24 233.818 220.24ZM233.818 218.72C235.798 218.72 236.878 217.3 236.878 214.7C236.878 212.12 235.778 210.64 233.818 210.64C231.838 210.64 230.758 212.08 230.758 214.7C230.758 217.26 231.858 218.72 233.818 218.72ZM240.943 220V209.38H242.703V211.02C243.423 209.72 244.563 209.12 245.843 209.12C246.263 209.12 246.643 209.22 246.843 209.38V210.96C246.543 210.86 246.163 210.82 245.743 210.82C243.623 210.82 242.703 212.14 242.703 214.06V220H240.943ZM248.404 220V205.6H250.164V213.94L254.744 209.38H256.904L252.064 214.12L257.184 220H254.944L250.164 214.58V220H248.404ZM258.892 207.96V205.6H260.652V207.96H258.892ZM258.892 220V209.38H260.652V220H258.892ZM263.443 220V209.38H265.203V210.82C265.923 209.7 267.083 209.12 268.483 209.12C270.743 209.12 272.083 210.44 272.083 212.9V220H270.323V213.26C270.323 211.66 269.603 210.62 268.003 210.62C266.243 210.62 265.203 212.2 265.203 213.72V220H263.443ZM278.668 220.08C275.968 220.08 274.348 218.02 274.348 214.62C274.348 211.06 276.008 209.12 278.668 209.12C280.088 209.12 281.148 209.62 281.848 210.54V209.38H283.608V220.32C283.608 223.28 281.708 224.66 279.268 224.66C276.768 224.66 275.008 223.46 274.628 221.04H276.388C276.608 222.44 277.708 223.2 279.248 223.2C280.808 223.2 281.848 222.36 281.848 220.38V218.56C281.108 219.56 280.028 220.08 278.668 220.08ZM278.988 218.56C280.848 218.56 281.848 217.16 281.848 214.6C281.848 212.1 280.808 210.64 278.988 210.64C277.148 210.64 276.148 212.04 276.148 214.62C276.148 217.12 277.168 218.56 278.988 218.56ZM299.635 220L297.335 212.06L297.095 210.86L296.855 212.06L294.575 220H292.395L289.235 209.38H291.135L293.315 217.62L293.575 218.7L293.835 217.62L296.255 209.38H298.155L300.575 217.62L300.815 218.66L301.035 217.62L303.215 209.38H305.035L301.855 220H299.635ZM306.627 207.96V205.6H308.387V207.96H306.627ZM306.627 220V209.38H308.387V220H306.627ZM311.417 216.94V210.78H309.937V209.38H311.417V206.94H313.177V209.38H315.517V210.78H313.177V216.94C313.177 218.22 313.557 218.82 315.117 218.82H315.477V220.08C315.277 220.18 314.837 220.24 314.337 220.24C312.357 220.24 311.417 219.18 311.417 216.94ZM317.193 220V205.6H318.953V210.82C319.673 209.7 320.833 209.12 322.233 209.12C324.493 209.12 325.833 210.44 325.833 212.9V220H324.073V213.26C324.073 211.66 323.353 210.62 321.753 210.62C319.993 210.62 318.953 212.2 318.953 213.72V220H317.193ZM332.802 220V206.4H337.242C341.462 206.4 344.102 208.96 344.102 213.22C344.102 217.48 341.462 220 337.242 220H332.802ZM337.242 218.5C340.362 218.5 342.222 216.54 342.222 213.22C342.222 209.86 340.362 207.9 337.242 207.9H334.642V218.5H337.242ZM348.208 212.84H346.448C346.788 210.5 348.328 209.12 350.928 209.12C353.768 209.12 355.148 210.78 355.148 213.26V217.44C355.148 218.66 355.248 219.42 355.528 220H353.668C353.468 219.58 353.408 218.96 353.388 218.32C352.488 219.66 351.048 220.24 349.768 220.24C347.568 220.24 346.088 219.22 346.088 217.2C346.088 215.74 346.888 214.68 348.448 214.16C349.888 213.68 351.348 213.56 353.388 213.54V213.3C353.388 211.58 352.588 210.64 350.768 210.64C349.248 210.64 348.428 211.48 348.208 212.84ZM347.888 217.16C347.888 218.14 348.708 218.72 349.948 218.72C351.908 218.72 353.388 217.18 353.388 215.36V214.86C348.868 214.9 347.888 215.86 347.888 217.16ZM358.273 216.94V210.78H356.793V209.38H358.273V206.94H360.033V209.38H362.373V210.78H360.033V216.94C360.033 218.22 360.413 218.82 361.973 218.82H362.333V220.08C362.133 220.18 361.693 220.24 361.193 220.24C359.213 220.24 358.273 219.18 358.273 216.94ZM365.668 212.84H363.908C364.248 210.5 365.788 209.12 368.388 209.12C371.228 209.12 372.608 210.78 372.608 213.26V217.44C372.608 218.66 372.708 219.42 372.988 220H371.128C370.928 219.58 370.868 218.96 370.848 218.32C369.948 219.66 368.508 220.24 367.228 220.24C365.028 220.24 363.548 219.22 363.548 217.2C363.548 215.74 364.348 214.68 365.908 214.16C367.348 213.68 368.808 213.56 370.848 213.54V213.3C370.848 211.58 370.048 210.64 368.228 210.64C366.708 210.64 365.888 211.48 365.668 212.84ZM365.348 217.16C365.348 218.14 366.168 218.72 367.408 218.72C369.368 218.72 370.848 217.18 370.848 215.36V214.86C366.328 214.9 365.348 215.86 365.348 217.16Z" fill="#F8FBFF" fill-opacity="0.5"/>
<path d="M171.56 345V331.4H174.1L178.28 341.38L178.68 342.6L179.1 341.38L183.26 331.4H185.72V345H183.88V333.62L182.92 336.3L179.28 345H177.98L174.34 336.28L173.4 333.68V345H171.56ZM189.605 331.4L193.745 342.02L194.145 343.22L194.545 342.02L198.685 331.4H200.505L195.165 345H193.045L187.685 331.4H189.605ZM213.151 335.32H211.231C210.731 333.66 209.311 332.74 207.571 332.74C204.911 332.74 203.331 334.82 203.331 338.22C203.331 341.62 204.891 343.66 207.571 343.66C209.251 343.66 210.611 342.8 211.191 341.16H213.131C212.371 343.74 210.151 345.24 207.551 345.24C203.751 345.24 201.451 342.58 201.451 338.22C201.451 333.88 203.791 331.16 207.631 331.16C210.251 331.16 212.491 332.6 213.151 335.32Z" fill="#F8FBFF" fill-opacity="0.5"/>
<path d="M34.96 468.72C34.96 472.56 43.3 469.58 43.3 475.16C43.3 477.78 41.18 479.24 38.28 479.24C35.36 479.24 33.36 477.9 32.76 475.16H34.68C35.12 476.78 36.34 477.66 38.3 477.66C40.34 477.66 41.42 476.76 41.42 475.4C41.42 471.24 33.08 474.34 33.08 468.84C33.08 466.88 34.72 465.16 37.72 465.16C40.34 465.16 42.44 466.42 42.94 469.32H41C40.58 467.52 39.42 466.74 37.68 466.74C35.96 466.74 34.96 467.52 34.96 468.72ZM54.6308 475.54C54.0508 478.02 52.2708 479.24 49.8508 479.24C46.7708 479.24 44.9108 477.16 44.9108 473.7C44.9108 470.1 46.7708 468.12 49.7508 468.12C52.7508 468.12 54.5508 470.18 54.5508 473.56V474H46.7108C46.8108 476.38 47.9308 477.72 49.8508 477.72C51.3508 477.72 52.4108 477 52.7908 475.54H54.6308ZM49.7508 469.64C48.0508 469.64 47.0308 470.7 46.7708 472.68H52.7108C52.4708 470.72 51.4108 469.64 49.7508 469.64ZM65.6761 472.04H63.9161C63.6361 470.42 62.5561 469.64 61.1561 469.64C59.1961 469.64 58.1561 471.08 58.1561 473.7C58.1561 476.28 59.2561 477.74 61.2161 477.74C62.6361 477.74 63.6561 476.98 63.9961 475.46H65.7561C65.2761 478.1 63.4961 479.24 61.1761 479.24C58.1561 479.24 56.3561 477.14 56.3561 473.7C56.3561 470.1 58.1961 468.12 61.1561 468.12C63.4961 468.12 65.3361 469.44 65.6761 472.04ZM74.6913 474.66V468.38H76.4513V479H74.6913V477.56C73.9713 478.68 72.8513 479.24 71.4713 479.24C69.2513 479.24 67.9313 477.94 67.9313 475.48V468.38H69.6913V475.12C69.6913 476.72 70.3913 477.74 71.9513 477.74C73.6713 477.74 74.6913 476.18 74.6913 474.66ZM79.2594 479V468.38H81.0194V470.02C81.7394 468.72 82.8794 468.12 84.1594 468.12C84.5794 468.12 84.9594 468.22 85.1594 468.38V469.96C84.8594 469.86 84.4794 469.82 84.0594 469.82C81.9394 469.82 81.0194 471.14 81.0194 473.06V479H79.2594ZM86.7203 466.96V464.6H88.4803V466.96H86.7203ZM86.7203 479V468.38H88.4803V479H86.7203ZM91.5111 475.94V469.78H90.0311V468.38H91.5111V465.94H93.2711V468.38H95.6111V469.78H93.2711V475.94C93.2711 477.22 93.6511 477.82 95.2111 477.82H95.5711V479.08C95.3711 479.18 94.9311 479.24 94.4311 479.24C92.4511 479.24 91.5111 478.18 91.5111 475.94ZM97.7667 483.64C97.3667 483.64 96.9467 483.54 96.7267 483.48V482.12H97.2667C98.5667 482.12 98.9267 481.86 99.9667 479.48L100.327 478.66L95.9867 468.38H97.8867L100.767 475.4L101.247 476.82L101.727 475.4L104.527 468.38H106.327L101.367 480.4C100.307 482.96 99.6067 483.64 97.7667 483.64ZM113.598 479H111.838V464.6H113.598V469.7C114.298 468.7 115.318 468.12 116.578 468.12C119.398 468.12 121.098 470.2 121.098 473.66C121.098 477.26 119.358 479.24 116.578 479.24C115.318 479.24 114.298 478.72 113.598 477.74V479ZM116.458 469.64C114.598 469.64 113.598 471.06 113.598 473.66C113.598 476.24 114.638 477.72 116.458 477.72C118.298 477.72 119.298 476.28 119.298 473.66C119.298 471.1 118.258 469.64 116.458 469.64ZM124.981 471.84H123.221C123.561 469.5 125.101 468.12 127.701 468.12C130.541 468.12 131.921 469.78 131.921 472.26V476.44C131.921 477.66 132.021 478.42 132.301 479H130.441C130.241 478.58 130.181 477.96 130.161 477.32C129.261 478.66 127.821 479.24 126.541 479.24C124.341 479.24 122.861 478.22 122.861 476.2C122.861 474.74 123.661 473.68 125.221 473.16C126.661 472.68 128.121 472.56 130.161 472.54V472.3C130.161 470.58 129.361 469.64 127.541 469.64C126.021 469.64 125.201 470.48 124.981 471.84ZM124.661 476.16C124.661 477.14 125.481 477.72 126.721 477.72C128.681 477.72 130.161 476.18 130.161 474.36V473.86C125.641 473.9 124.661 474.86 124.661 476.16ZM136.106 471.1C136.106 474.06 143.006 471.62 143.006 476C143.006 477.98 141.246 479.24 138.746 479.24C136.226 479.24 134.466 478.04 134.066 475.54H135.826C136.066 477.02 137.166 477.84 138.806 477.84C140.406 477.84 141.246 477.12 141.246 476.12C141.246 473.22 134.426 475.62 134.426 471.22C134.426 469.6 135.686 468.12 138.286 468.12C140.586 468.12 142.286 469.2 142.626 471.84H140.866C140.606 470.18 139.686 469.56 138.186 469.56C136.866 469.56 136.106 470.22 136.106 471.1ZM145.099 466.96V464.6H146.859V466.96H145.099ZM145.099 479V468.38H146.859V479H145.099ZM158.43 472.04H156.67C156.39 470.42 155.31 469.64 153.91 469.64C151.95 469.64 150.91 471.08 150.91 473.7C150.91 476.28 152.01 477.74 153.97 477.74C155.39 477.74 156.41 476.98 156.75 475.46H158.51C158.03 478.1 156.25 479.24 153.93 479.24C150.91 479.24 149.11 477.14 149.11 473.7C149.11 470.1 150.95 468.12 153.91 468.12C156.25 468.12 158.09 469.44 158.43 472.04ZM161.985 471.1C161.985 474.06 168.885 471.62 168.885 476C168.885 477.98 167.125 479.24 164.625 479.24C162.105 479.24 160.345 478.04 159.945 475.54H161.705C161.945 477.02 163.045 477.84 164.685 477.84C166.285 477.84 167.125 477.12 167.125 476.12C167.125 473.22 160.305 475.62 160.305 471.22C160.305 469.6 161.565 468.12 164.165 468.12C166.465 468.12 168.165 469.2 168.505 471.84H166.745C166.485 470.18 165.565 469.56 164.065 469.56C162.745 469.56 161.985 470.22 161.985 471.1Z" fill="#F8FBFF" fill-opacity="0.5"/>
<path d="M130.32 631L126.92 626.28L126.36 625.42L125.8 626.28L122.42 631H120.44L125.4 623.98L120.8 617.4H122.94L125.94 621.52L126.56 622.5L127.18 621.52L130.12 617.4H132.1L127.52 623.94L132.46 631H130.32ZM134.451 631V617.4H136.991L141.171 627.38L141.571 628.6L141.991 627.38L146.151 617.4H148.611V631H146.771V619.62L145.811 622.3L142.171 631H140.871L137.231 622.28L136.291 619.68V631H134.451ZM151.736 631V617.4H153.576V629.5H160.416V631H151.736Z" fill="#F8FBFF" fill-opacity="0.5"/>
<path d="M164.3 765L163.02 761.74H156.5L155.22 765H153.4L158.74 751.4H160.86L166.22 765H164.3ZM159.36 754.38L157.06 760.26H162.46L160.16 754.38L159.76 753.18L159.36 754.38ZM173.293 765.24C169.313 765.24 166.873 762.56 166.873 758.22C166.873 753.88 169.313 751.16 173.293 751.16C177.253 751.16 179.713 753.88 179.713 758.22C179.713 762.56 177.253 765.24 173.293 765.24ZM173.293 763.66C176.133 763.66 177.833 761.6 177.833 758.22C177.833 754.82 176.133 752.74 173.293 752.74C170.453 752.74 168.752 754.82 168.752 758.22C168.752 761.6 170.453 763.66 173.293 763.66ZM182.333 765V751.4H186.993C190.073 751.4 192.013 753.04 192.013 755.7C192.013 758.44 190.053 760.04 187.013 760.04H184.173V765H182.333ZM186.973 752.9H184.173V758.54H186.913C188.933 758.54 190.113 757.46 190.113 755.72C190.113 754 188.913 752.9 186.973 752.9Z" fill="#F8FBFF" fill-opacity="0.5"/>
</svg>
