<svg width="574" height="450" viewBox="0 0 574 450" fill="none" xmlns="http://www.w3.org/2000/svg">
<path fill-rule="evenodd" clip-rule="evenodd" d="M438.877 187.185C472.915 190.354 483.559 233.672 507.27 258.306C530.099 282.024 568.537 294.126 573.184 326.723C578.118 361.331 560.3 400.443 530.023 417.901C502.351 433.858 470.524 399.846 438.877 404.168C395.174 410.136 359.679 463.575 318.911 446.731C274.826 428.518 242.73 373.636 251.428 326.723C259.864 281.22 319.334 271.892 356.448 244.264C384.317 223.518 404.287 183.965 438.877 187.185Z" fill="#FFC402"/>
<path fill-rule="evenodd" clip-rule="evenodd" d="M268.141 348.193C225.563 371.802 171.73 373.932 129.313 349.997C90.577 328.139 82.9312 280.114 71.3703 237.159C59.6987 193.792 39.6385 146.652 64.53 109.292C90.3272 70.573 141.797 61.2539 188.322 61.625C232.134 61.9744 274.051 78.3096 303.029 111.194C332.6 144.753 346.171 189.119 339.658 233.364C332.748 280.31 309.627 325.191 268.141 348.193Z" fill="#0076FF"/>
</svg>
