<svg width="1174" height="447" viewBox="0 0 1174 447" fill="none" xmlns="http://www.w3.org/2000/svg">
<path fill-rule="evenodd" clip-rule="evenodd" d="M908.045 120.699C926.394 125.218 945.058 112.408 963.752 115.169C985.438 118.372 1009.15 122.335 1024.58 137.91C1040.06 153.544 1048.04 177.17 1046.89 199.138C1045.77 220.579 1024.7 235.479 1018.41 256.007C1012.67 274.704 1022.42 297.129 1011.82 313.563C1001.24 329.962 977.288 330.845 962.165 343.181C941.975 359.651 932.822 390.147 908.045 398.214C883.836 406.095 856.812 395.852 833.795 384.974C810.711 374.065 785.877 359.554 776.231 335.919C766.444 311.939 781.953 285.349 782.567 259.456C783.033 239.859 774.993 220.567 779.422 201.471C783.845 182.399 799.092 168.418 807.753 150.859C818.665 128.734 813.714 91.1417 837.342 84.0362C863.088 76.2937 881.939 114.269 908.045 120.699Z" fill="#0076FF"/>
<path fill-rule="evenodd" clip-rule="evenodd" d="M411.877 184.185C445.915 187.354 456.559 230.672 480.27 255.306C503.099 279.024 541.537 291.126 546.184 323.723C551.118 358.331 533.3 397.443 503.023 414.901C475.351 430.858 443.524 396.846 411.877 401.168C368.174 407.136 332.679 460.575 291.911 443.731C247.826 425.518 215.73 370.636 224.428 323.723C232.864 278.22 292.334 268.892 329.448 241.264C357.317 220.518 377.287 180.965 411.877 184.185Z" fill="#FFC402"/>
<path fill-rule="evenodd" clip-rule="evenodd" d="M147.055 132.55C188.59 116.928 248.718 82.8883 274.406 119.066C301.603 157.367 226.203 199.447 227.888 246.388C229.727 297.578 306.317 337.138 283.891 383.193C262.668 426.777 194.516 422.3 147.055 412.392C107.106 404.052 84.4496 366.564 57.4932 335.93C33.2541 308.384 -6.77206 282.249 0.980472 246.388C8.70624 210.652 60.4849 211.152 89.3277 188.674C111.334 171.524 120.939 142.372 147.055 132.55Z" fill="#0D56AA"/>
<path fill-rule="evenodd" clip-rule="evenodd" d="M1033.05 29.5498C1074.59 13.9283 1134.72 -20.1117 1160.41 16.0658C1187.6 54.367 1112.2 96.4473 1113.89 143.388C1115.73 194.578 1192.32 234.138 1169.89 280.193C1148.67 323.777 1080.52 319.3 1033.05 309.392C993.106 301.052 970.45 263.564 943.493 232.93C919.254 205.384 879.228 179.249 886.98 143.388C894.706 107.652 946.485 108.152 975.328 85.6744C997.334 68.5241 1006.94 39.372 1033.05 29.5498Z" fill="#0D56AA"/>
</svg>
