<svg width="466" height="551" viewBox="0 0 466 551" fill="none" xmlns="http://www.w3.org/2000/svg">
<path fill-rule="evenodd" clip-rule="evenodd" d="M236.065 286.785C193.264 305.771 166.814 234.57 126.641 210.65C97.7741 193.461 48.5456 202.419 39.8859 169.973C31.2246 137.521 74.4504 118.118 94.7946 91.3269C114.696 65.1191 121.731 21.4063 154.549 18.972C187.642 16.5173 206.385 54.4186 225.25 81.6502C240.895 104.234 248.116 128.679 249.563 156.123C251.988 202.113 278.233 268.079 236.065 286.785Z" fill="#FFC402"/>
<path fill-rule="evenodd" clip-rule="evenodd" d="M303.039 249.967C267.992 265.187 245.913 321.289 210.386 307.287C174.949 293.322 188.315 240.008 182.347 202.402C177.591 172.432 159.011 137.835 180.012 115.896C200.476 94.5184 235.232 121.805 264.383 116.702C307.424 109.167 345.644 58.5665 383.539 80.2655C426.028 104.595 451.364 167.495 430.372 211.747C410.396 253.858 345.805 231.394 303.039 249.967Z" fill="#0D56AA"/>
<path fill-rule="evenodd" clip-rule="evenodd" d="M323.341 487.221C280.762 510.83 226.929 512.959 184.512 489.024C145.776 467.166 138.13 419.141 126.57 376.186C114.898 332.82 94.8378 285.68 119.729 248.32C145.526 209.6 196.996 200.281 243.521 200.652C287.334 201.002 329.25 217.337 358.228 250.222C387.8 283.78 401.371 328.146 394.858 372.391C387.947 419.338 364.826 464.218 323.341 487.221Z" fill="#0076FF"/>
</svg>
