<svg width="39" height="39" viewBox="0 0 39 39" fill="none" xmlns="http://www.w3.org/2000/svg">
<path d="M33.2264 33.2345H27.4511V24.1849C27.4511 22.0269 27.4073 19.2498 24.4416 19.2498C21.4305 19.2498 20.9706 21.5979 20.9706 24.0256V33.2345H15.1954V14.625H20.7431V17.1616H20.8179C21.593 15.6991 23.478 14.1554 26.2941 14.1554C32.1457 14.1554 33.228 18.0066 33.228 23.0198L33.2264 33.2345ZM8.67262 12.0786C8.23205 12.0788 7.79576 11.9922 7.38872 11.8236C6.98168 11.655 6.61189 11.4077 6.30051 11.0961C5.98913 10.7844 5.74227 10.4143 5.57407 10.0071C5.40586 9.59995 5.31961 9.16357 5.32025 8.723C5.32057 8.05964 5.51759 7.41128 5.8864 6.85989C6.25521 6.30851 6.77924 5.87887 7.39223 5.62531C8.00522 5.37175 8.67963 5.30566 9.33018 5.43539C9.98073 5.56512 10.5782 5.88485 11.047 6.35414C11.5159 6.82343 11.835 7.42121 11.9641 8.07189C12.0932 8.72256 12.0265 9.39691 11.7723 10.0096C11.5182 10.6224 11.088 11.146 10.5363 11.5143C9.98454 11.8826 9.33598 12.0789 8.67262 12.0786ZM11.5684 33.2345H5.77688V14.625H11.5684V33.2345ZM36.1156 0H2.87788C1.287 0 0 1.25775 0 2.80962V36.1904C0 37.7439 1.287 39 2.87788 39H36.1107C37.7 39 39 37.7439 39 36.1904V2.80962C39 1.25775 37.7 0 36.1107 0H36.1156Z" fill="#F8FBFF"/>
</svg>
