<svg width="45" height="39" viewBox="0 0 45 39" fill="none" xmlns="http://www.w3.org/2000/svg">
<path d="M45 3.25032V35.75C45 37.5917 43.7813 39 42.1875 39H39.375V9.50543L22.5 23.5085L5.625 9.50543V39H2.8125C1.21687 39 0 37.5917 0 35.75V3.25032C0 2.32949 0.30375 1.517 0.808125 0.936336C1.07135 0.633785 1.38427 0.395119 1.72849 0.234377C2.07271 0.073635 2.44127 -0.0059361 2.8125 0.000344868H3.75L22.5 15.7085L41.25 0.000344868H42.1875C42.9844 0.000344868 43.6875 0.351342 44.1919 0.936336C44.6981 1.517 45 2.32949 45 3.25032Z" fill="#F8FBFF"/>
</svg>
