<svg width="199" height="233" viewBox="0 0 199 233" fill="none" xmlns="http://www.w3.org/2000/svg">
<mask id="path-1-inside-1_189_710" fill="white">
<path d="M192.825 187.08C185.992 184.281 183.07 180.568 183.352 175.027C183.643 168.559 179.974 163.822 178.231 161.951C179.284 157.929 182.361 144.018 178.234 131.935C173.8 119.001 160.263 99.248 146.295 79.8309C140.577 71.8569 140.306 63.1893 139.994 53.1526C139.694 43.5797 139.357 32.7287 134.018 20.6661C128.213 7.53168 116.566 0 102.061 0C93.4318 0 84.5744 2.69671 77.7583 7.39799C63.8008 17.0305 65.6457 38.032 66.8665 51.9288C67.0339 53.8318 67.1912 55.6293 67.2829 57.1641C68.0958 70.7744 67.3562 77.9478 66.3891 80.1281C65.7634 81.5528 62.6831 85.6078 59.4233 89.9012C56.0519 94.3412 52.2298 99.374 49.0968 104.064C45.3588 109.707 42.3411 118.333 39.4228 126.674C37.2875 132.778 35.2707 138.543 33.3073 141.989C29.586 148.617 30.5119 154.797 31.2851 157.653C29.8763 158.632 27.8411 160.559 26.123 164.19C24.0465 168.621 19.8333 171.003 11.0722 172.687C7.04613 173.511 4.26989 175.203 2.81836 177.718C0.706013 181.378 1.85654 185.977 2.90622 189.12C4.45706 193.74 3.49065 196.665 1.73354 201.974C1.32864 203.199 0.869501 204.587 0.404249 206.117C-0.328389 208.532 -0.0640583 210.727 1.18807 212.643C4.49679 217.701 14.1517 219.484 24.0909 220.658C30.0253 221.362 36.5205 223.736 42.8025 226.032C48.9578 228.281 55.3223 230.607 61.1078 231.313C61.9871 231.424 62.858 231.48 63.6976 231.48C72.4328 231.48 76.3794 225.684 77.6308 223.303C80.7683 222.662 91.5899 220.612 102.743 220.337C113.878 220.019 124.653 222.218 127.705 222.901C128.664 224.738 131.194 228.933 135.226 231.094C137.442 232.306 140.526 233 143.685 233H143.686C147.06 233 153.478 232.202 158.557 226.859C163.624 221.49 176.283 214.636 185.526 209.631C187.589 208.514 189.519 207.469 191.211 206.526C196.404 203.647 199.237 199.534 198.984 195.242C198.774 191.676 196.414 188.549 192.825 187.08ZM77.8722 186.046C77.2259 181.493 71.3686 176.977 64.5854 171.749C59.039 167.473 52.7524 162.627 51.0205 158.524C47.4413 150.058 50.2626 135.171 55.1818 127.506C57.6127 123.668 59.5982 117.848 61.5188 112.219C63.5922 106.141 65.7366 99.8568 68.1347 97.1059C71.9324 92.811 75.442 84.4543 76.0639 77.8684C79.6201 81.2633 85.1367 85.5712 90.2331 85.5712C91.0176 85.5712 91.7793 85.4688 92.5074 85.2633C95.9941 84.2564 101.123 81.2931 106.082 78.4283C110.358 75.9577 115.631 72.9111 117.615 72.6338C121.017 77.5185 140.784 121.262 142.804 135.31C144.402 146.426 142.714 155.614 141.865 159.213C141.182 159.12 140.368 159.045 139.512 159.045C134.006 159.045 132.549 162.05 132.169 163.844C131.193 168.507 131.09 183.415 131.079 186.765C129.088 189.294 119.02 201.206 104.565 203.347C98.6771 204.203 93.1789 204.636 88.2238 204.636C83.9884 204.636 81.2855 204.309 80.1633 204.139L72.8996 195.828C75.7636 194.414 78.627 191.43 77.8722 186.046ZM87.0894 49.006C86.8625 49.1037 86.6394 49.2084 86.4201 49.3199C86.398 48.828 86.3468 48.3291 86.2681 47.8287C85.4751 43.2642 82.4483 39.951 79.0723 39.951C78.8225 39.951 78.5712 39.9701 78.2954 40.0121C76.2869 40.3467 74.7117 41.8555 73.8484 43.9945C74.6055 39.3009 77.2648 35.8257 80.42 35.8257C84.1252 35.8257 87.2551 40.8188 87.2551 46.7286C87.2551 47.4735 87.2009 48.2145 87.0894 49.006ZM115.88 52.5254C116.219 51.4452 116.403 50.2764 116.403 49.0632C116.403 43.705 113.003 39.5071 108.663 39.5071C104.421 39.5071 100.971 43.7936 100.971 49.0632C100.971 49.4223 100.988 49.7821 101.022 50.1412C100.797 50.0548 100.578 49.9708 100.364 49.8898C99.8758 48.4116 99.629 46.8692 99.629 45.2947C99.629 38.8876 103.724 33.6745 108.758 33.6745C113.792 33.6745 117.888 38.8876 117.888 45.2947C117.888 47.9601 117.152 50.504 115.88 52.5254ZM112.168 64.996C112.095 65.3199 111.941 65.4635 110.234 66.3512C109.373 66.7996 108.3 67.3581 106.958 68.1755L106.061 68.7187C102.456 70.9035 94.017 76.0211 91.7258 76.3214C90.1696 76.5307 89.2071 75.9272 87.0427 74.4566C86.5546 74.1243 86.0351 73.7713 85.4812 73.4161C81.5797 70.8561 79.0701 68.0364 78.7866 66.9341C80.0586 65.9509 83.2115 63.4902 84.8257 62.0334C88.1024 58.9868 91.3996 56.9395 93.0314 56.9395C93.1178 56.9395 93.1957 56.9456 93.2767 56.9609C95.1942 57.2993 99.9239 59.187 103.379 60.5651C104.975 61.2022 106.354 61.7523 107.324 62.1006C110.381 63.1503 111.975 64.4933 112.168 64.996ZM139.63 207.371C141.354 199.594 143.341 189.013 143.019 182.776C142.945 181.358 142.82 179.816 142.698 178.325C142.471 175.536 142.134 171.392 142.482 170.163C142.551 170.131 142.627 170.103 142.712 170.08C142.726 173.646 143.501 180.759 149.189 183.239C150.885 183.979 152.822 184.353 154.947 184.353C160.646 184.353 166.968 181.558 169.558 178.968C171.083 177.443 172.366 175.578 173.264 174.1C173.46 174.676 173.581 175.427 173.518 176.396C173.179 181.656 175.736 188.633 180.6 191.205L181.309 191.577C183.041 192.486 187.643 194.902 187.717 196.048C187.717 196.048 187.679 196.183 187.422 196.422C186.269 197.475 182.212 199.547 178.288 201.551C171.327 205.105 163.438 209.133 159.895 212.86C154.906 218.109 149.264 221.636 145.856 221.636C145.446 221.636 145.072 221.584 144.74 221.478C141.039 220.325 137.994 214.986 139.63 207.371ZM13.4917 187.53C13.1143 185.763 12.8163 184.369 13.1364 183.019C13.3687 182.018 18.3092 180.945 20.4193 180.488C23.3857 179.844 26.4538 179.178 28.4599 177.96C31.1728 176.317 32.6419 173.287 33.9375 170.613C34.8757 168.679 35.8444 166.68 36.9972 166.024C37.0621 165.986 37.1615 165.941 37.3509 165.941C39.5106 165.941 44.0425 170.481 46.6537 174.545C47.316 175.569 48.5429 177.622 49.9624 179.999C54.2077 187.102 60.0207 196.831 63.0567 200.091C65.7924 203.022 70.2211 208.658 69.1317 213.491C68.3341 217.241 64.088 220.291 63.0865 220.966C62.7228 221.048 62.2729 221.09 61.7434 221.09C55.9327 221.09 44.4305 216.256 38.2509 213.659L37.3364 213.274C33.8856 211.827 28.2521 210.916 22.8043 210.034C18.4696 209.332 12.5337 208.372 11.5497 207.504C10.7521 206.61 11.6773 203.701 12.4932 201.135C13.0807 199.291 13.6872 197.384 14.0196 195.388C14.4909 192.204 13.9363 189.612 13.4917 187.53Z"/>
</mask>
<path d="M192.825 187.08C185.992 184.281 183.07 180.568 183.352 175.027C183.643 168.559 179.974 163.822 178.231 161.951C179.284 157.929 182.361 144.018 178.234 131.935C173.8 119.001 160.263 99.248 146.295 79.8309C140.577 71.8569 140.306 63.1893 139.994 53.1526C139.694 43.5797 139.357 32.7287 134.018 20.6661C128.213 7.53168 116.566 0 102.061 0C93.4318 0 84.5744 2.69671 77.7583 7.39799C63.8008 17.0305 65.6457 38.032 66.8665 51.9288C67.0339 53.8318 67.1912 55.6293 67.2829 57.1641C68.0958 70.7744 67.3562 77.9478 66.3891 80.1281C65.7634 81.5528 62.6831 85.6078 59.4233 89.9012C56.0519 94.3412 52.2298 99.374 49.0968 104.064C45.3588 109.707 42.3411 118.333 39.4228 126.674C37.2875 132.778 35.2707 138.543 33.3073 141.989C29.586 148.617 30.5119 154.797 31.2851 157.653C29.8763 158.632 27.8411 160.559 26.123 164.19C24.0465 168.621 19.8333 171.003 11.0722 172.687C7.04613 173.511 4.26989 175.203 2.81836 177.718C0.706013 181.378 1.85654 185.977 2.90622 189.12C4.45706 193.74 3.49065 196.665 1.73354 201.974C1.32864 203.199 0.869501 204.587 0.404249 206.117C-0.328389 208.532 -0.0640583 210.727 1.18807 212.643C4.49679 217.701 14.1517 219.484 24.0909 220.658C30.0253 221.362 36.5205 223.736 42.8025 226.032C48.9578 228.281 55.3223 230.607 61.1078 231.313C61.9871 231.424 62.858 231.48 63.6976 231.48C72.4328 231.48 76.3794 225.684 77.6308 223.303C80.7683 222.662 91.5899 220.612 102.743 220.337C113.878 220.019 124.653 222.218 127.705 222.901C128.664 224.738 131.194 228.933 135.226 231.094C137.442 232.306 140.526 233 143.685 233H143.686C147.06 233 153.478 232.202 158.557 226.859C163.624 221.49 176.283 214.636 185.526 209.631C187.589 208.514 189.519 207.469 191.211 206.526C196.404 203.647 199.237 199.534 198.984 195.242C198.774 191.676 196.414 188.549 192.825 187.08ZM77.8722 186.046C77.2259 181.493 71.3686 176.977 64.5854 171.749C59.039 167.473 52.7524 162.627 51.0205 158.524C47.4413 150.058 50.2626 135.171 55.1818 127.506C57.6127 123.668 59.5982 117.848 61.5188 112.219C63.5922 106.141 65.7366 99.8568 68.1347 97.1059C71.9324 92.811 75.442 84.4543 76.0639 77.8684C79.6201 81.2633 85.1367 85.5712 90.2331 85.5712C91.0176 85.5712 91.7793 85.4688 92.5074 85.2633C95.9941 84.2564 101.123 81.2931 106.082 78.4283C110.358 75.9577 115.631 72.9111 117.615 72.6338C121.017 77.5185 140.784 121.262 142.804 135.31C144.402 146.426 142.714 155.614 141.865 159.213C141.182 159.12 140.368 159.045 139.512 159.045C134.006 159.045 132.549 162.05 132.169 163.844C131.193 168.507 131.09 183.415 131.079 186.765C129.088 189.294 119.02 201.206 104.565 203.347C98.6771 204.203 93.1789 204.636 88.2238 204.636C83.9884 204.636 81.2855 204.309 80.1633 204.139L72.8996 195.828C75.7636 194.414 78.627 191.43 77.8722 186.046ZM87.0894 49.006C86.8625 49.1037 86.6394 49.2084 86.4201 49.3199C86.398 48.828 86.3468 48.3291 86.2681 47.8287C85.4751 43.2642 82.4483 39.951 79.0723 39.951C78.8225 39.951 78.5712 39.9701 78.2954 40.0121C76.2869 40.3467 74.7117 41.8555 73.8484 43.9945C74.6055 39.3009 77.2648 35.8257 80.42 35.8257C84.1252 35.8257 87.2551 40.8188 87.2551 46.7286C87.2551 47.4735 87.2009 48.2145 87.0894 49.006ZM115.88 52.5254C116.219 51.4452 116.403 50.2764 116.403 49.0632C116.403 43.705 113.003 39.5071 108.663 39.5071C104.421 39.5071 100.971 43.7936 100.971 49.0632C100.971 49.4223 100.988 49.7821 101.022 50.1412C100.797 50.0548 100.578 49.9708 100.364 49.8898C99.8758 48.4116 99.629 46.8692 99.629 45.2947C99.629 38.8876 103.724 33.6745 108.758 33.6745C113.792 33.6745 117.888 38.8876 117.888 45.2947C117.888 47.9601 117.152 50.504 115.88 52.5254ZM112.168 64.996C112.095 65.3199 111.941 65.4635 110.234 66.3512C109.373 66.7996 108.3 67.3581 106.958 68.1755L106.061 68.7187C102.456 70.9035 94.017 76.0211 91.7258 76.3214C90.1696 76.5307 89.2071 75.9272 87.0427 74.4566C86.5546 74.1243 86.0351 73.7713 85.4812 73.4161C81.5797 70.8561 79.0701 68.0364 78.7866 66.9341C80.0586 65.9509 83.2115 63.4902 84.8257 62.0334C88.1024 58.9868 91.3996 56.9395 93.0314 56.9395C93.1178 56.9395 93.1957 56.9456 93.2767 56.9609C95.1942 57.2993 99.9239 59.187 103.379 60.5651C104.975 61.2022 106.354 61.7523 107.324 62.1006C110.381 63.1503 111.975 64.4933 112.168 64.996ZM139.63 207.371C141.354 199.594 143.341 189.013 143.019 182.776C142.945 181.358 142.82 179.816 142.698 178.325C142.471 175.536 142.134 171.392 142.482 170.163C142.551 170.131 142.627 170.103 142.712 170.08C142.726 173.646 143.501 180.759 149.189 183.239C150.885 183.979 152.822 184.353 154.947 184.353C160.646 184.353 166.968 181.558 169.558 178.968C171.083 177.443 172.366 175.578 173.264 174.1C173.46 174.676 173.581 175.427 173.518 176.396C173.179 181.656 175.736 188.633 180.6 191.205L181.309 191.577C183.041 192.486 187.643 194.902 187.717 196.048C187.717 196.048 187.679 196.183 187.422 196.422C186.269 197.475 182.212 199.547 178.288 201.551C171.327 205.105 163.438 209.133 159.895 212.86C154.906 218.109 149.264 221.636 145.856 221.636C145.446 221.636 145.072 221.584 144.74 221.478C141.039 220.325 137.994 214.986 139.63 207.371ZM13.4917 187.53C13.1143 185.763 12.8163 184.369 13.1364 183.019C13.3687 182.018 18.3092 180.945 20.4193 180.488C23.3857 179.844 26.4538 179.178 28.4599 177.96C31.1728 176.317 32.6419 173.287 33.9375 170.613C34.8757 168.679 35.8444 166.68 36.9972 166.024C37.0621 165.986 37.1615 165.941 37.3509 165.941C39.5106 165.941 44.0425 170.481 46.6537 174.545C47.316 175.569 48.5429 177.622 49.9624 179.999C54.2077 187.102 60.0207 196.831 63.0567 200.091C65.7924 203.022 70.2211 208.658 69.1317 213.491C68.3341 217.241 64.088 220.291 63.0865 220.966C62.7228 221.048 62.2729 221.09 61.7434 221.09C55.9327 221.09 44.4305 216.256 38.2509 213.659L37.3364 213.274C33.8856 211.827 28.2521 210.916 22.8043 210.034C18.4696 209.332 12.5337 208.372 11.5497 207.504C10.7521 206.61 11.6773 203.701 12.4932 201.135C13.0807 199.291 13.6872 197.384 14.0196 195.388C14.4909 192.204 13.9363 189.612 13.4917 187.53Z" stroke="#F8FBFF" stroke-width="2" mask="url(#path-1-inside-1_189_710)"/>
</svg>
