<svg width="303" height="242" viewBox="0 0 303 242" fill="none" xmlns="http://www.w3.org/2000/svg">
<path fill-rule="evenodd" clip-rule="evenodd" d="M257.988 37.1062L96.8704 3.22116C89.8385 1.74228 82.8393 1.73152 76.1912 2.98094C72.9512 2.90332 69.7491 3.11439 66.6149 3.59445C76.083 0.0267256 86.6466 -0.972762 97.282 1.26398L258.4 35.149C288.125 41.4006 307.155 70.5658 300.903 100.291L280.92 195.31C276.161 217.934 258.13 234.362 236.68 238.164C227.01 241.979 216.152 243.1 205.218 240.801L44.1001 206.916C14.3748 200.664 -4.65451 171.499 1.59709 141.774L21.5806 46.755C27.8322 17.0296 56.9973 -1.99963 86.7227 4.25197L247.841 38.137C277.566 44.3886 296.595 73.5538 290.344 103.279L270.36 198.298C267.151 213.557 257.903 225.998 245.641 233.647C262.065 227.496 275.086 213.331 278.962 194.898L298.946 99.8795C304.97 71.2351 286.633 43.1305 257.988 37.1062ZM86.3111 6.20916L247.429 40.0942C276.074 46.1185 294.411 74.2231 288.387 102.868L268.403 197.886C262.379 226.53 234.274 244.868 205.63 238.844L44.5118 204.958C15.8673 198.934 -2.47 170.83 3.55427 142.185L23.5378 47.1666C29.5621 18.5222 57.6666 0.184884 86.3111 6.20916ZM49.4423 101.388L48.6048 101.935L27.4745 115.721L40.7149 136.014L82.9755 108.441L55.4019 66.1799L35.1091 79.4203L48.8959 100.551L49.4423 101.388ZM47.5119 100.26L48.0584 101.097L47.2209 101.643L26.9281 114.884L26.0906 115.43L26.637 116.268L39.8774 136.561L40.4238 137.398L41.2613 136.852L83.5219 109.278L84.3594 108.732L83.813 107.894L56.2394 65.6335L55.6929 64.796L54.8554 65.3424L34.5626 78.5828L33.7251 79.1292L34.2716 79.9667L47.5119 100.26ZM90.3862 148.648L221.252 176.171L219.172 186.062L88.3061 158.539L90.3862 148.648ZM89.6134 147.464L90.592 147.67L221.458 175.192L222.436 175.398L222.23 176.377L220.15 186.268L219.944 187.246L218.966 187.04L88.1002 159.518L87.1217 159.312L87.3275 158.333L89.4076 148.443L89.6134 147.464Z" fill="#F8FBFF"/>
</svg>
