<svg width="1846" height="703" viewBox="0 0 1846 703" fill="none" xmlns="http://www.w3.org/2000/svg">
<path fill-rule="evenodd" clip-rule="evenodd" d="M1428.42 190.275C1457.29 197.38 1486.65 177.238 1516.05 181.58C1550.16 186.616 1587.47 192.847 1611.73 217.337C1636.08 241.918 1648.63 279.067 1646.83 313.607C1645.07 347.318 1611.92 370.748 1602.02 403.023C1593.01 432.422 1608.34 467.682 1591.66 493.521C1575.02 519.304 1537.34 520.694 1513.55 540.09C1481.8 565.986 1467.4 613.936 1428.42 626.619C1390.34 639.011 1347.84 622.905 1311.63 605.802C1275.32 588.649 1236.26 565.834 1221.08 528.672C1205.69 490.967 1230.08 449.158 1231.05 408.447C1231.78 377.634 1219.14 347.3 1226.1 317.275C1233.06 287.287 1257.04 265.306 1270.67 237.696C1287.83 202.908 1280.04 143.801 1317.21 132.629C1357.71 120.456 1387.36 180.166 1428.42 190.275Z" fill="#AFE7A1"/>
<path fill-rule="evenodd" clip-rule="evenodd" d="M647.723 289.292C701.196 294.28 717.918 362.468 755.167 401.246C791.032 438.582 851.417 457.632 858.718 508.944C866.469 563.422 838.477 624.99 790.913 652.471C747.44 677.59 697.44 624.051 647.723 630.854C579.067 640.249 523.304 724.369 459.258 697.855C390.001 669.184 339.579 582.792 353.243 508.944C366.496 437.315 459.922 422.633 518.228 379.142C562.011 346.485 593.383 284.222 647.723 289.292Z" fill="#1447A8"/>
<path fill-rule="evenodd" clip-rule="evenodd" d="M231.305 208.475C296.636 183.906 391.212 130.369 431.618 187.268C474.396 247.508 355.798 313.691 358.45 387.519C361.341 468.029 481.811 530.249 446.537 602.684C413.155 671.231 305.957 664.19 231.305 648.607C168.468 635.49 132.832 576.529 90.432 528.348C52.3059 485.024 -10.6519 443.92 1.5422 387.519C13.6942 331.313 95.1378 332.1 140.505 296.747C175.12 269.774 190.227 223.924 231.305 208.475Z" fill="#65C24D"/>
<path fill-rule="evenodd" clip-rule="evenodd" d="M1624.3 46.4754C1689.64 21.9062 1784.21 -31.6314 1824.62 25.268C1867.4 85.5076 1748.8 151.691 1751.45 225.519C1754.34 306.029 1874.81 368.249 1839.54 440.684C1806.16 509.231 1698.96 502.19 1624.3 486.607C1561.47 473.49 1525.83 414.529 1483.43 366.348C1445.31 323.024 1382.35 281.92 1394.54 225.519C1406.69 169.313 1488.14 170.1 1533.5 134.747C1568.12 107.774 1583.23 61.9237 1624.3 46.4754Z" fill="#43A7A7"/>
</svg>
