<svg width="436" height="428" viewBox="0 0 436 428" fill="none" xmlns="http://www.w3.org/2000/svg">
<mask id="path-1-inside-1_176_863" fill="white">
<path d="M174.938 21.917L435.589 124.196L326.369 402.534L65.718 300.255L174.938 21.917Z"/>
</mask>
<path d="M435.589 124.196L436.519 124.561L436.885 123.631L435.954 123.265L435.589 124.196ZM174.572 22.8479L435.223 125.127L435.954 123.265L175.303 20.9861L174.572 22.8479ZM434.658 123.831L325.438 402.169L327.3 402.9L436.519 124.561L434.658 123.831Z" fill="#F8FBFF" mask="url(#path-1-inside-1_176_863)"/>
<rect x="109.502" y="25.7824" width="279" height="298" transform="rotate(21.425 109.502 25.7824)" stroke="#F8FBFF"/>
<line x1="108.834" y1="25.5654" x2="175.481" y2="22.7134" stroke="white"/>
<line x1="368.553" y1="127.479" x2="435.2" y2="124.627" stroke="white"/>
<line x1="259.697" y1="404.887" x2="326.345" y2="402.035" stroke="white"/>
<path d="M256.339 256.353C239.403 299.513 193.247 316.997 150.035 300.04C128.429 291.563 113.779 276.914 106.637 259.011C99.493 241.104 99.8418 219.895 108.326 198.273C125.31 154.99 168.303 126.738 211.402 143.65C254.551 160.581 273.3 213.127 256.339 256.353Z" stroke="#F8FBFF"/>
<path d="M246.577 251.355C231.86 288.861 191.789 304.071 154.279 289.352C135.524 281.993 122.815 269.271 116.623 253.723C110.429 238.17 110.738 219.741 118.113 200.946C132.878 163.319 170.213 138.767 207.61 153.441C245.056 168.135 261.32 213.785 246.577 251.355Z" stroke="#F8FBFF"/>
<path d="M218.86 92.0262C216.251 98.6767 209.045 101.368 202.209 98.6848C198.792 97.3443 196.495 95.062 195.368 92.3056C194.24 89.5457 194.266 86.263 195.588 82.8941C198.245 76.1219 204.984 71.8438 211.706 74.4815C218.478 77.1388 221.495 85.3112 218.86 92.0262Z" stroke="#F8FBFF"/>
<line x1="94.9912" y1="64.1317" x2="353.781" y2="165.68" stroke="#F8FBFF"/>
<line x1="189.376" y1="57.6621" x2="174.399" y2="95.8289" stroke="#F8FBFF"/>
<line x1="111.511" y1="63.0946" x2="163.641" y2="83.5504" stroke="#F8FBFF"/>
<line x1="237.336" y1="109.246" x2="276.799" y2="123.657" stroke="#F8FBFF"/>
<line x1="299.543" y1="136.878" x2="339.006" y2="151.288" stroke="#F8FBFF"/>
<path d="M219.651 284.388C216.685 280.539 212.033 269.582 217.147 256.549C223.539 240.259 235.588 236.93 240.69 236.246C244.772 235.7 249.559 234.176 251.442 233.483" stroke="white"/>
<path d="M222.97 280.32C220.593 277.157 216.899 268.124 221.146 257.301C226.455 243.771 236.257 240.926 240.402 240.322C243.719 239.839 247.615 238.543 249.148 237.955" stroke="white"/>
</svg>
