<svg width="142" height="266" viewBox="0 0 142 266" fill="none" xmlns="http://www.w3.org/2000/svg">
<mask id="path-1-inside-1_176_1041" fill="white">
<path d="M44.3398 123.025L127.367 133.147L112.508 255.022L29.481 244.899L44.3398 123.025Z"/>
</mask>
<path d="M127.367 133.147L128.359 133.269L128.48 132.276L127.488 132.155L127.367 133.147ZM44.2188 124.018L127.246 134.14L127.488 132.155L44.4609 122.032L44.2188 124.018ZM126.374 133.026L111.515 254.901L113.5 255.143L128.359 133.269L126.374 133.026Z" fill="#F8FBFF" mask="url(#path-1-inside-1_176_1041)"/>
<rect x="25.9593" y="132.11" width="82.6416" height="121.777" transform="rotate(6.95117 25.9593 132.11)" stroke="#F8FBFF"/>
<path d="M47.94 76.6839C47.0279 84.1652 40.4871 88.8111 32.9571 87.893C29.1931 87.4341 26.3057 85.72 24.4682 83.2093C22.6279 80.6948 21.8112 77.3402 22.2727 73.5545C23.2008 65.9425 28.8634 59.799 36.2722 60.7023C43.7338 61.612 48.8606 69.1332 47.94 76.6839Z" stroke="#F8FBFF"/>
<path d="M73.2478 46.6476C72.6697 51.3886 68.4768 54.3447 63.6066 53.7509C61.1735 53.4542 59.3186 52.36 58.1399 50.7712C56.9588 49.1792 56.4264 47.0493 56.721 44.6327C57.3149 39.7617 60.9663 35.8835 65.7144 36.4624C70.5157 37.0478 73.8342 41.8377 73.2478 46.6476Z" stroke="#F8FBFF"/>
<path d="M48.111 11.8883C47.533 16.6293 43.3401 19.5854 38.4699 18.9916C36.0368 18.695 34.1819 17.6008 33.0032 16.0119C31.8221 14.4199 31.2896 12.29 31.5843 9.8734C32.1782 5.00239 35.8296 1.12424 40.5777 1.70313C45.379 2.2885 48.6975 7.07839 48.111 11.8883Z" stroke="#F8FBFF"/>
<path d="M71.681 97.5592C71.0008 103.139 66.0358 106.613 60.2739 105.911C57.3955 105.56 55.1945 104.27 53.7941 102.395C52.3915 100.517 51.7616 98.0092 52.1074 95.1728C52.8035 89.4635 57.1139 84.888 62.7532 85.5756C68.446 86.2696 72.3697 91.9109 71.681 97.5592Z" stroke="#F8FBFF"/>
<line x1="25.2319" y1="131.856" x2="44.8131" y2="123.421" stroke="#F8FBFF"/>
<line x1="107.497" y1="141.886" x2="127.079" y2="133.45" stroke="#F8FBFF"/>
<line x1="92.7319" y1="262.998" x2="112.313" y2="254.563" stroke="#F8FBFF"/>
<path d="M36.7899 195.109C36.7312 195.591 36.6838 195.635 37.0801 195.885C37.3866 196.079 37.6088 196.294 37.9033 196.499C38.3874 196.836 38.989 197.27 39.5031 196.822C40.2909 196.136 41.3699 195.498 41.7475 194.43C42.0258 193.643 42.1293 192.805 41.8859 192.01C41.7415 191.538 41.9036 190.987 41.8146 190.49C41.7097 189.905 41.3449 189.27 41.1335 188.711C40.8762 188.03 40.2873 187.163 39.6237 186.83C38.7187 186.377 37.9101 185.829 36.891 185.628C36.5754 185.565 36.084 185.432 35.8089 185.268C35.1351 184.864 33.7417 185.145 33.0654 185.147C31.3738 185.152 29.7559 186.635 28.6341 187.764C27.2293 189.177 25.9229 191.646 25.6781 193.654C25.6279 194.066 25.5776 194.478 25.5274 194.89C25.4225 195.75 25.576 196.476 25.6138 197.338C25.6458 198.069 26.5799 198.533 26.832 199.154C27.0918 199.794 28.0962 200.447 28.6535 200.816C29.4076 201.315 30.1871 201.819 30.8968 202.408C31.4666 202.881 31.5071 203.716 31.4241 204.397C31.3021 205.397 30.8467 205.518 30.1817 206.169C29.9542 206.392 29.5989 206.35 29.3616 206.582C29.1567 206.783 28.8825 206.976 28.6525 207.137C28.2874 207.393 28.1226 207.876 27.8115 208.19C27.6028 208.4 27.4114 208.945 27.1973 209.077C26.69 209.39 26.8622 210.492 27.0379 210.91C27.247 211.408 27.9247 211.673 28.1779 212.083C28.4081 212.455 28.8683 212.661 29.1669 212.973C29.8259 213.661 30.9389 214.023 31.8477 214.134C32.5844 214.224 33.0596 214.125 33.7758 213.927C34.392 213.757 34.8249 213.376 35.4161 213.158C36.8226 212.639 37.9804 211.72 38.6211 210.37C39.1893 209.172 39.5202 207.445 39.0629 206.162C38.8975 205.698 38.7758 205.235 38.5603 204.789C38.3792 204.414 37.9934 204.066 37.897 203.682C37.7751 203.196 37.1586 202.623 36.7802 202.32C35.5774 201.356 34.5409 200.271 33.5175 199.093C32.9336 198.421 32.3636 197.743 32.4752 196.827C32.5776 195.988 32.3847 195.448 32.9268 194.702C33.3073 194.178 34.2946 194.676 34.846 194.743C35.2413 194.791 35.6354 194.968 35.9683 195.008C36.2487 195.043 36.6306 195.47 36.2227 195.553" stroke="#F8FBFF" stroke-width="0.3" stroke-linecap="round"/>
<path d="M53.1351 188.378C52.5979 188.426 51.0805 188.613 50.7428 189.177C50.475 189.624 50.1051 190.066 49.7701 190.491C49.0975 191.343 48.5637 192.28 48.1737 193.297C47.4081 195.292 46.9227 197.244 46.6609 199.391C46.4005 201.527 47.4301 203.643 48.3205 205.537C48.7829 206.521 49.8403 207.398 50.5181 208.264C52.1187 210.309 54.8461 210.48 56.846 208.914C57.2975 208.561 57.7723 208.24 58.2259 207.885C58.8991 207.358 59.2516 206.724 59.7665 206.063C61.3334 204.052 61.6807 201.411 61.9808 198.95C62.2333 196.878 60.743 195.112 59.7678 193.484C59.4474 192.949 59.0786 192.595 58.7702 192.08C58.3667 191.406 57.6562 190.51 57.038 190.037C56.0102 189.251 54.7703 188.619 53.5605 188.045" stroke="#F8FBFF" stroke-width="0.3" stroke-linecap="round"/>
<path d="M55.3998 195.068C54.9574 195.014 54.515 194.96 54.0726 194.907C53.6475 194.855 53.1756 195.379 52.8356 195.582C51.7585 196.228 52.071 196.843 51.6571 197.883C51.2182 198.986 50.9316 200.613 52.0583 201.432C52.6554 201.866 53.2449 202.588 53.9541 202.718C55.9458 203.08 56.9112 201.612 57.1272 199.84C57.2421 198.898 57.8658 197.587 56.8548 196.814C56.2732 196.369 55.6015 195.606 54.8326 195.512" stroke="#F8FBFF" stroke-width="0.3" stroke-linecap="round"/>
<path d="M67.4584 187.687C67.5388 187.027 67.4941 186.192 67.8391 185.616C68.1881 185.033 69.4505 185.309 70.0168 185.233C70.7173 185.14 71.4685 184.797 72.1715 184.805C73.0303 184.814 73.6631 185.946 74.2143 186.522C75.1095 187.457 76.0881 188.34 76.8834 189.356C78.7903 191.792 80.2014 194.737 80.8832 197.762C81.3106 199.658 82.3489 201.75 82.1772 203.749C82.1202 204.413 82.2346 205.086 82.0534 205.758C81.8654 206.456 80.8844 206.918 80.2161 206.682C79.8112 206.539 79.6722 205.875 79.5238 205.521C79.2963 204.98 78.9375 204.546 78.76 203.953C78.3937 202.73 77.9567 201.543 77.4915 200.327C77.3143 199.864 76.6548 199.518 76.3541 199.134C76.1469 198.869 75.5812 198.555 75.2466 198.514C74.7888 198.458 73.907 198.177 73.5639 198.637C73.3173 198.968 72.9705 199.296 72.9204 199.706C72.8587 200.213 72.3025 200.566 72.2453 201.035C72.1941 201.455 71.5989 202.25 71.3497 202.593C70.317 204.014 69.8257 205.836 68.6741 207.178C68.0497 207.905 67.6074 207.259 67.2 206.642C66.5382 205.638 66.5913 203.563 66.6819 202.473C66.9246 199.551 67.2751 196.555 67.6274 193.665C67.6996 193.074 67.507 192.549 67.5784 191.963C67.6566 191.322 67.7348 190.68 67.813 190.039C67.8513 189.725 67.7712 189.549 67.6808 189.253C67.5925 188.965 67.7552 188.529 67.776 188.239C67.8008 187.89 67.8457 187.124 67.5508 186.928" stroke="#F8FBFF" stroke-width="0.3" stroke-linecap="round"/>
<path d="M71.9336 195.16C72.6427 195.246 73.325 194.816 74.0177 194.901C74.605 194.973 75.0867 194.775 75.6918 194.848C76.1772 194.908 75.6082 193.49 75.5445 193.134C75.4606 192.666 75.4245 192.58 75.1152 192.212C74.5702 191.565 73.9388 191.003 73.3556 190.394C73.2276 190.261 73.1527 190.006 73.0162 189.904C72.8198 189.758 71.5919 188.492 71.4817 189.396C71.4165 189.931 71.2259 190.442 71.1549 191.024C71.0245 192.094 70.8985 193.443 71.2522 194.435" stroke="#F8FBFF" stroke-width="0.3" stroke-linecap="round"/>
<path d="M81.8046 183.662C81.6108 185.252 81.1606 186.967 81.4964 188.528C81.6831 189.396 81.9468 190.307 82.0336 191.195C82.1553 192.441 82.7899 193.55 83.0474 194.747C83.398 196.377 84.3603 197.971 85.0046 199.504C85.5447 200.789 86.4143 202.175 87.1644 203.359C87.54 203.952 87.948 204.93 88.5935 205.258C89.2885 205.611 89.1886 205.239 89.5839 204.852C90.2107 204.238 90.1821 202.634 90.0407 201.864C89.8212 200.668 89.3823 199.669 89.0013 198.523C88.689 197.584 88.0853 196.332 88.2054 195.347C88.3092 194.496 88.534 194.459 89.2958 194.354C89.8654 194.275 90.4237 194.208 90.9808 194.153C92.1042 194.044 93.8382 193.593 94.427 192.485C94.7848 191.812 95.1281 191.333 95.355 190.603C95.6039 189.801 95.6556 188.955 95.7572 188.122C95.972 186.36 95.2081 184.425 94.1307 183.049C93.6862 182.481 93.0494 182.3 92.398 182.003C91.7918 181.727 91.0623 181.327 90.381 181.244C89.9971 181.198 89.3287 180.978 89.0066 181.177C88.7144 181.357 87.7806 181.037 87.4041 181.109C86.9024 181.206 86.3209 181.221 85.85 181.405C84.9849 181.743 83.9356 181.651 83.1672 182.189C82.883 182.389 81.7594 183.359 81.598 183.252" stroke="#F8FBFF" stroke-width="0.3" stroke-linecap="round"/>
<path d="M84.705 186.197C84.601 187.05 84.3501 188.003 84.5393 188.842C84.7812 189.915 85.1741 190.529 85.9437 191.294C87.8276 193.167 92.1739 192.278 92.5211 189.431C92.582 188.931 92.7666 188.303 92.6548 187.808C92.5382 187.29 92.2896 186.924 92.0856 186.455C91.8805 185.984 91.0027 185.736 90.6415 185.381C90.31 185.055 89.6495 184.747 89.1862 184.691C88.2179 184.573 87.4907 184.389 86.6048 184.761C86.2204 184.922 85.8912 185.319 85.5806 185.562C85.3565 185.738 85.062 186.102 84.9424 186.354" stroke="#F8FBFF" stroke-width="0.3" stroke-linecap="round"/>
<line x1="19.7908" y1="183.711" x2="104.266" y2="169.273" stroke="#F8FBFF"/>
<line x1="15.1658" y1="227.984" x2="99.6409" y2="213.546" stroke="#F8FBFF"/>
</svg>
