<svg width="2172" height="827" viewBox="0 0 2172 827" fill="none" xmlns="http://www.w3.org/2000/svg">
<path fill-rule="evenodd" clip-rule="evenodd" d="M1679.88 223.707C1713.83 232.063 1748.37 208.376 1782.96 213.482C1823.09 219.404 1866.97 226.732 1895.51 255.533C1924.15 284.44 1938.92 328.126 1936.8 368.746C1934.73 408.39 1895.73 435.943 1884.09 473.899C1873.49 508.472 1891.52 549.937 1871.9 580.324C1852.33 610.646 1808.01 612.28 1780.02 635.09C1742.66 665.543 1725.73 721.932 1679.88 736.848C1635.09 751.421 1585.08 732.481 1542.49 712.367C1499.78 692.195 1453.83 665.365 1435.98 621.662C1417.87 577.322 1446.57 528.154 1447.7 480.278C1448.56 444.042 1433.69 408.369 1441.88 373.06C1450.07 337.794 1478.28 311.943 1494.31 279.474C1514.5 238.564 1505.34 169.054 1549.06 155.916C1596.7 141.6 1631.58 211.819 1679.88 223.707Z" fill="#F66448"/>
<path fill-rule="evenodd" clip-rule="evenodd" d="M762.189 340.343C825.117 346.211 844.796 426.422 888.631 472.038C930.838 515.958 1001.9 538.367 1010.49 598.726C1019.61 662.811 986.671 735.234 930.697 767.562C879.537 797.109 820.697 734.13 762.189 742.132C681.393 753.184 615.77 852.137 540.4 820.947C458.897 787.221 399.56 685.596 415.64 598.726C431.236 514.467 541.181 497.196 609.797 446.037C661.321 407.621 698.241 334.38 762.189 340.343Z" fill="#8E2BB5"/>
<path fill-rule="evenodd" clip-rule="evenodd" d="M272.153 245.611C349.022 216.741 460.301 153.832 507.842 220.691C558.175 291.476 418.632 369.244 421.752 455.996C425.154 550.6 566.899 623.711 525.395 708.826C486.119 789.372 359.989 781.099 272.153 762.787C198.22 747.374 156.29 678.092 106.402 621.478C61.5432 570.57 -12.533 522.27 1.81455 455.996C16.1126 389.951 111.939 390.876 165.318 349.335C206.046 317.639 223.821 263.764 272.153 245.611Z" fill="#601CD7"/>
<path fill-rule="evenodd" clip-rule="evenodd" d="M1911.15 54.7045C1988.02 25.785 2099.3 -37.2321 2146.84 29.742C2197.18 100.648 2057.63 178.55 2060.75 265.45C2064.15 360.215 2205.9 433.452 2164.4 518.712C2125.12 599.397 1998.99 591.109 1911.15 572.767C1837.22 557.327 1795.29 487.927 1745.4 431.215C1700.54 380.22 1626.47 331.837 1640.81 265.45C1655.11 199.292 1750.94 200.218 1804.32 158.606C1845.05 126.856 1862.82 72.8881 1911.15 54.7045Z" fill="#6110E8"/>
</svg>
