<svg width="230" height="49" viewBox="0 0 230 49" fill="none" xmlns="http://www.w3.org/2000/svg">
<path d="M14.112 40V36.364L13.644 35.464V28.768C13.644 27.688 13.308 26.86 12.636 26.284C11.988 25.684 10.944 25.384 9.504 25.384C8.568 25.384 7.62 25.54 6.66 25.852C5.7 26.14 4.884 26.548 4.212 27.076L1.908 22.432C3.012 21.712 4.332 21.16 5.868 20.776C7.428 20.368 8.976 20.164 10.512 20.164C13.68 20.164 16.128 20.896 17.856 22.36C19.608 23.8 20.484 26.068 20.484 29.164V40H14.112ZM8.352 40.324C6.792 40.324 5.472 40.06 4.392 39.532C3.312 39.004 2.484 38.284 1.908 37.372C1.356 36.46 1.08 35.44 1.08 34.312C1.08 33.112 1.38 32.08 1.98 31.216C2.604 30.328 3.552 29.656 4.824 29.2C6.096 28.72 7.74 28.48 9.756 28.48H14.364V32.044H10.692C9.588 32.044 8.808 32.224 8.352 32.584C7.92 32.944 7.704 33.424 7.704 34.024C7.704 34.624 7.932 35.104 8.388 35.464C8.844 35.824 9.468 36.004 10.26 36.004C11.004 36.004 11.676 35.824 12.276 35.464C12.9 35.08 13.356 34.504 13.644 33.736L14.58 36.256C14.22 37.6 13.512 38.62 12.456 39.316C11.424 39.988 10.056 40.324 8.352 40.324ZM31.7436 40.324C29.9676 40.324 28.3476 39.916 26.8836 39.1C25.4436 38.26 24.2916 37.096 23.4276 35.608C22.5636 34.096 22.1316 32.296 22.1316 30.208C22.1316 28.144 22.5636 26.368 23.4276 24.88C24.2916 23.368 25.4436 22.204 26.8836 21.388C28.3476 20.572 29.9676 20.164 31.7436 20.164C33.4236 20.164 34.8396 20.524 35.9916 21.244C37.1676 21.964 38.0556 23.068 38.6556 24.556C39.2556 26.044 39.5556 27.928 39.5556 30.208C39.5556 32.536 39.2676 34.444 38.6916 35.932C38.1156 37.42 37.2516 38.524 36.0996 39.244C34.9476 39.964 33.4956 40.324 31.7436 40.324ZM33.1836 34.888C33.9516 34.888 34.6356 34.708 35.2356 34.348C35.8596 33.988 36.3516 33.46 36.7116 32.764C37.0716 32.044 37.2516 31.192 37.2516 30.208C37.2516 29.224 37.0716 28.396 36.7116 27.724C36.3516 27.028 35.8596 26.5 35.2356 26.14C34.6356 25.78 33.9516 25.6 33.1836 25.6C32.3916 25.6 31.6836 25.78 31.0596 26.14C30.4596 26.5 29.9796 27.028 29.6196 27.724C29.2596 28.396 29.0796 29.224 29.0796 30.208C29.0796 31.192 29.2596 32.044 29.6196 32.764C29.9796 33.46 30.4596 33.988 31.0596 34.348C31.6836 34.708 32.3916 34.888 33.1836 34.888ZM37.4676 40V36.652L37.5036 30.208L37.1436 23.764V13.288H43.9836V40H37.4676ZM57.265 40.324C54.769 40.324 52.825 39.712 51.433 38.488C50.041 37.24 49.345 35.368 49.345 32.872V16.132H56.185V32.8C56.185 33.496 56.377 34.048 56.761 34.456C57.145 34.84 57.637 35.032 58.237 35.032C59.053 35.032 59.749 34.828 60.325 34.42L62.017 39.208C61.441 39.592 60.733 39.868 59.893 40.036C59.053 40.228 58.177 40.324 57.265 40.324ZM46.501 26.32V21.208H60.649V26.32H46.501ZM62.8546 40V20.488H69.6946V40H62.8546ZM66.2746 18.328C65.0266 18.328 64.0186 17.98 63.2506 17.284C62.4826 16.588 62.0986 15.724 62.0986 14.692C62.0986 13.66 62.4826 12.796 63.2506 12.1C64.0186 11.404 65.0266 11.056 66.2746 11.056C67.5226 11.056 68.5306 11.392 69.2986 12.064C70.0666 12.712 70.4506 13.552 70.4506 14.584C70.4506 15.664 70.0666 16.564 69.2986 17.284C68.5546 17.98 67.5466 18.328 66.2746 18.328ZM97.7558 20.164C99.2678 20.164 100.612 20.476 101.788 21.1C102.988 21.7 103.924 22.636 104.596 23.908C105.292 25.18 105.64 26.824 105.64 28.84V40H98.7998V29.956C98.7998 28.564 98.5358 27.556 98.0078 26.932C97.4798 26.284 96.7598 25.96 95.8478 25.96C95.1998 25.96 94.6118 26.116 94.0838 26.428C93.5558 26.74 93.1478 27.22 92.8598 27.868C92.5718 28.492 92.4278 29.308 92.4278 30.316V40H85.5878V29.956C85.5878 28.564 85.3238 27.556 84.7958 26.932C84.2918 26.284 83.5718 25.96 82.6358 25.96C81.9638 25.96 81.3638 26.116 80.8358 26.428C80.3318 26.74 79.9238 27.22 79.6118 27.868C79.3238 28.492 79.1798 29.308 79.1798 30.316V40H72.3398V20.488H78.8558V25.924L77.5598 24.376C78.2798 22.984 79.2638 21.94 80.5118 21.244C81.7598 20.524 83.1518 20.164 84.6878 20.164C86.4398 20.164 87.9758 20.62 89.2958 21.532C90.6398 22.42 91.5398 23.812 91.9958 25.708L89.7638 25.24C90.4598 23.656 91.5038 22.42 92.8958 21.532C94.3118 20.62 95.9318 20.164 97.7558 20.164ZM118.195 40.324C116.059 40.324 114.163 39.892 112.507 39.028C110.851 38.164 109.543 36.976 108.583 35.464C107.647 33.928 107.179 32.176 107.179 30.208C107.179 28.24 107.647 26.5 108.583 24.988C109.543 23.476 110.851 22.3 112.507 21.46C114.163 20.596 116.059 20.164 118.195 20.164C120.331 20.164 122.227 20.596 123.883 21.46C125.563 22.3 126.871 23.476 127.807 24.988C128.743 26.5 129.211 28.24 129.211 30.208C129.211 32.176 128.743 33.928 127.807 35.464C126.871 36.976 125.563 38.164 123.883 39.028C122.227 39.892 120.331 40.324 118.195 40.324ZM118.195 34.888C118.987 34.888 119.683 34.708 120.283 34.348C120.907 33.988 121.399 33.46 121.759 32.764C122.119 32.044 122.299 31.192 122.299 30.208C122.299 29.224 122.119 28.396 121.759 27.724C121.399 27.028 120.907 26.5 120.283 26.14C119.683 25.78 118.987 25.6 118.195 25.6C117.427 25.6 116.731 25.78 116.107 26.14C115.507 26.5 115.015 27.028 114.631 27.724C114.271 28.396 114.091 29.224 114.091 30.208C114.091 31.192 114.271 32.044 114.631 32.764C115.015 33.46 115.507 33.988 116.107 34.348C116.731 34.708 117.427 34.888 118.195 34.888ZM136.268 36.4L136.448 28.228L144.404 20.488H152.504L143.684 29.596L140.192 32.404L136.268 36.4ZM130.58 40V13.288H137.42V40H130.58ZM144.908 40L138.932 32.512L143.18 27.256L153.188 40H144.908ZM166.167 20.164C167.679 20.164 169.047 20.476 170.271 21.1C171.495 21.7 172.455 22.636 173.151 23.908C173.871 25.18 174.231 26.824 174.231 28.84V40H167.391V29.956C167.391 28.564 167.103 27.556 166.527 26.932C165.975 26.284 165.195 25.96 164.187 25.96C163.467 25.96 162.807 26.128 162.207 26.464C161.607 26.776 161.139 27.268 160.803 27.94C160.467 28.612 160.299 29.488 160.299 30.568V40H153.459V13.288H160.299V26.032L158.715 24.412C159.459 22.996 160.479 21.94 161.775 21.244C163.071 20.524 164.535 20.164 166.167 20.164ZM176.726 40V20.488H183.566V40H176.726ZM180.146 18.328C178.898 18.328 177.89 17.98 177.122 17.284C176.354 16.588 175.97 15.724 175.97 14.692C175.97 13.66 176.354 12.796 177.122 12.1C177.89 11.404 178.898 11.056 180.146 11.056C181.394 11.056 182.402 11.392 183.17 12.064C183.938 12.712 184.322 13.552 184.322 14.584C184.322 15.664 183.938 16.564 183.17 17.284C182.426 17.98 181.418 18.328 180.146 18.328ZM198.919 20.164C200.431 20.164 201.799 20.476 203.023 21.1C204.247 21.7 205.207 22.636 205.903 23.908C206.623 25.18 206.983 26.824 206.983 28.84V40H200.143V29.956C200.143 28.564 199.855 27.556 199.279 26.932C198.727 26.284 197.947 25.96 196.939 25.96C196.219 25.96 195.559 26.128 194.959 26.464C194.359 26.776 193.891 27.268 193.555 27.94C193.219 28.612 193.051 29.488 193.051 30.568V40H186.211V20.488H192.727V26.032L191.467 24.412C192.211 22.996 193.231 21.94 194.527 21.244C195.823 20.524 197.287 20.164 198.919 20.164Z" fill="#F8FBFF"/>
<path d="M210 0H229.283C229.283 10.6496 220.65 19.2828 210 19.2828V0Z" fill="#F8FBFF"/>
</svg>
