<svg width="1828" height="696" viewBox="0 0 1828 696" fill="none" xmlns="http://www.w3.org/2000/svg">
<path fill-rule="evenodd" clip-rule="evenodd" d="M1413.87 187.934C1442.44 194.97 1471.5 175.024 1500.61 179.324C1534.37 184.311 1571.3 190.482 1595.31 214.734C1619.41 239.075 1631.85 275.863 1630.06 310.068C1628.32 343.452 1595.5 366.653 1585.71 398.615C1576.78 427.728 1591.96 462.645 1575.45 488.233C1558.98 513.766 1521.68 515.142 1498.14 534.35C1466.7 559.994 1452.45 607.478 1413.87 620.038C1376.17 632.309 1334.1 616.36 1298.26 599.423C1262.32 582.437 1223.65 559.844 1208.63 523.043C1193.39 485.704 1217.54 444.302 1218.49 403.986C1219.22 373.473 1206.7 343.434 1213.6 313.701C1220.48 284.004 1244.22 262.236 1257.71 234.894C1274.7 200.445 1266.99 141.912 1303.78 130.849C1343.87 118.793 1373.22 177.923 1413.87 187.934Z" fill="#B73E4B"/>
<path fill-rule="evenodd" clip-rule="evenodd" d="M641.313 286.786C694.311 291.72 710.885 359.167 747.803 397.523C783.35 434.455 843.199 453.298 850.435 504.052C858.118 557.939 830.374 618.837 783.232 646.021C740.145 670.866 690.589 617.909 641.313 624.638C573.266 633.931 517.997 717.137 454.52 690.911C385.878 662.551 335.903 577.098 349.446 504.052C362.582 433.201 455.178 418.678 512.967 375.66C556.361 343.358 587.455 281.771 641.313 286.786Z" fill="#2A59B9"/>
<path fill-rule="evenodd" clip-rule="evenodd" d="M228.971 206.386C293.643 182.063 387.265 129.061 427.264 185.391C469.61 245.028 352.208 310.549 354.833 383.638C357.695 463.343 476.949 524.94 442.031 596.65C408.987 664.511 302.87 657.541 228.971 642.114C166.768 629.128 131.492 570.757 89.5196 523.058C51.7782 480.168 -10.5444 439.475 1.52664 383.638C13.556 327.995 94.1779 328.774 139.087 293.775C173.353 267.071 188.308 221.68 228.971 206.386Z" fill="#AD5962"/>
<path fill-rule="evenodd" clip-rule="evenodd" d="M1608.51 46.0104C1673.19 21.687 1766.81 -31.3149 1806.81 25.0152C1849.15 84.652 1731.75 150.173 1734.38 223.262C1737.24 302.967 1856.49 364.564 1821.57 436.274C1788.53 504.135 1682.41 497.165 1608.51 481.738C1546.31 468.752 1511.03 410.381 1469.06 362.682C1431.32 319.792 1369 279.099 1381.07 223.262C1393.1 167.619 1473.72 168.398 1518.63 133.399C1552.9 106.695 1567.85 61.3041 1608.51 46.0104Z" fill="#4F3D48"/>
</svg>
