<svg width="119" height="118" viewBox="0 0 119 118" fill="none" xmlns="http://www.w3.org/2000/svg">
<path d="M99.5061 77.758L99.5043 77.7601C99.0728 78.259 98.9243 78.8248 98.9651 79.1916C98.9854 79.3733 99.0452 79.4616 99.0841 79.4959C99.1087 79.5176 99.1667 79.5575 99.3223 79.5281C99.3229 79.528 99.3235 79.5279 99.324 79.5278L99.377 79.5171C101.224 79.1471 104.21 78.5489 106.931 78.4315C108.303 78.3723 109.643 78.4334 110.75 78.7251C111.851 79.0155 112.81 79.5597 113.269 80.5355C113.269 80.5357 113.269 80.5358 113.269 80.536L112.817 80.7485C114.268 83.832 111.282 96.4016 109.879 102.309L99.5061 77.758ZM99.5061 77.758C102.684 74.043 106.871 72.7158 110.431 72.6331C112.213 72.5918 113.821 72.8624 115.048 73.2912C115.661 73.5057 116.169 73.756 116.551 74.0183C116.94 74.2843 117.17 74.542 117.276 74.7591C117.39 74.9934 117.498 75.4769 117.562 76.2272C117.625 76.9585 117.642 77.8869 117.608 78.9674C117.54 81.1272 117.268 83.865 116.766 86.7934C115.758 92.6686 113.836 99.223 110.828 103.422L99.5061 77.758ZM22.0853 0.588098H22.1225L22.1594 0.582582C25.4105 0.0956368 28.8153 1.77756 31.455 5.4602C33.6761 9.62325 34.7557 15.0348 34.5232 20.5875L34.5228 20.598V20.6084V41.046C34.4434 44.4108 34.9243 46.8506 35.4311 48.6894C35.5992 49.299 35.7733 49.8526 35.9265 50.3399C36.0011 50.5769 36.0707 50.7983 36.1323 51.0029C36.3243 51.6405 36.4395 52.1181 36.4508 52.5146C36.4133 53.1796 36.1481 53.7032 35.8524 53.9988L35.8385 54.0126L35.8258 54.0275L33.5921 56.6405C33.2801 56.9638 33.1009 57.0655 32.9408 57.0655C32.9129 57.0655 32.8904 57.0679 32.8792 57.0693C32.8777 57.0686 32.876 57.0679 32.8743 57.0672C32.8168 57.0413 32.6365 56.9327 32.3552 56.5359C31.7889 55.7372 30.9219 53.9269 29.8436 49.9088L29.497 48.6171L28.9112 49.8194C26.2388 55.3048 22.2859 58.3174 18.2747 58.2561L18.2538 58.2558L18.2329 58.2572C15.729 58.4286 8.48777 55.7908 8.48777 42.1657C8.48777 35.9331 9.97896 31.4691 12.2113 28.6562C14.4338 25.8558 17.41 24.6618 20.4988 24.9719L20.5238 24.9744H20.5488C21.7557 24.9744 24.2538 25.0272 28.6701 26.7701L29.3536 27.0398V26.305V21.7372C29.5908 17.7825 28.9368 14.2232 27.5024 11.7377C26.0595 9.23749 23.7965 7.7951 20.9094 8.24167C20.2991 8.24086 17.2399 8.25845 12.5315 11.3313L12.5137 11.3429L12.497 11.3559C11.8739 11.8426 11.5637 12.0129 11.3846 12.0757C11.2705 12.1157 11.2239 12.1144 11.0969 12.1107C11.0599 12.1096 11.016 12.1084 10.9616 12.1079C10.9548 12.0992 10.946 12.0867 10.9352 12.0694C10.8716 11.9669 10.8022 11.7819 10.743 11.4996C10.6263 10.9432 10.5802 10.1658 10.5822 9.33229C10.5842 8.50581 10.6332 7.65243 10.6964 6.95778C10.757 6.29126 10.8266 5.81779 10.8698 5.6425C11.0595 5.26986 11.495 4.76733 12.1732 4.20856C12.8623 3.64084 13.7628 3.04701 14.8056 2.5077C16.8957 1.42671 19.5117 0.588098 22.0853 0.588098ZM10.9783 12.126C10.9783 12.1262 10.9771 12.1253 10.9747 12.123C10.9771 12.1247 10.9783 12.1258 10.9783 12.126ZM86.5197 16.6017L86.5196 16.5946C86.4618 12.5175 87.5417 8.49392 89.5734 5.50448C91.5985 2.52478 94.5528 0.588098 98.2888 0.588098C99.3246 0.588098 101.321 0.888119 103.247 1.6082C105.187 2.33338 106.92 3.43363 107.625 4.94561C107.837 5.4796 107.973 6.11348 107.938 6.74309L107.937 6.7567V6.77033V9.79141C107.937 10.4297 107.867 10.8128 107.771 11.0204C107.727 11.1158 107.688 11.1504 107.67 11.1627C107.659 11.1704 107.64 11.1805 107.603 11.1844C107.394 11.1405 107.089 10.979 106.607 10.6726C106.495 10.6012 106.375 10.5236 106.249 10.4416C105.838 10.1754 105.355 9.86197 104.811 9.55833C103.374 8.75682 101.457 7.98767 98.8991 8.04906C98.1847 7.98119 96.3386 8.06615 94.6688 9.09542C92.9263 10.1695 91.453 12.2256 91.5735 15.9553C91.5387 21.6764 96.2852 23.881 97.0659 24.2436C97.0884 24.254 97.1077 24.2629 97.1234 24.2704C97.9777 24.7043 98.7518 25.0878 99.4583 25.4379C101.448 26.4236 102.902 27.1437 104.099 27.9764C105.679 29.0742 106.798 30.363 108.026 32.7581C109.493 35.9377 109.841 39.4013 109.738 42.3474C109.635 45.2951 109.083 47.6914 108.78 48.705L108.78 48.7052C107.311 53.6412 104.398 56.0778 101.852 57.2933C99.2972 58.5128 97.0882 58.5121 97.0294 58.512H97.0288C95.998 58.512 91.1927 58.3759 87.202 55.0195L87.1965 55.0149L87.1909 55.0104C86.525 54.4821 86.005 53.2845 86.005 51.869V48.6559C86.005 48.0804 86.0714 47.7215 86.1525 47.5063C86.2305 47.2994 86.3079 47.2588 86.3258 47.2505C86.353 47.2379 86.4081 47.2266 86.5142 47.253C86.613 47.2775 86.7169 47.3251 86.8149 47.3782C86.9094 47.4448 87.0023 47.5103 87.0938 47.5748C88.6987 48.7067 89.8791 49.5394 91.9898 50.2431C95.3233 51.3873 97.7757 51.2342 99.5044 50.6738C101.207 50.1217 102.158 49.1893 102.52 48.8345L102.534 48.8209L102.535 48.8195C103.816 47.5539 104.468 45.5308 104.615 43.5341C104.763 41.5332 104.413 39.4399 103.56 37.9831L103.55 37.9648L103.537 37.9475C102.58 36.5901 101.844 35.8529 100.489 35.0187C99.6166 34.4819 98.4701 33.8945 96.8264 33.0525C96.0038 32.6311 95.0566 32.1458 93.9569 31.5712L93.9569 31.5711L93.9489 31.5671C93.2546 31.22 86.5197 27.7436 86.5197 16.6017ZM38.4093 3.25523L38.4094 3.25522L38.4085 3.24696C38.3783 2.97071 38.425 2.69636 38.5135 2.48939C38.5804 2.33314 38.6499 2.25884 38.6905 2.22665H42.5517H42.5941L42.6359 2.21951C42.8966 2.17495 43.0881 2.22769 43.2472 2.33196C43.4192 2.44467 43.5823 2.6379 43.7288 2.91373C44.0248 3.47142 44.1837 4.23453 44.2601 4.87133L44.2611 4.87909L44.2622 4.88683L50.5543 46.3115L51.5437 46.3065L57.4055 4.8818L57.4056 4.88181L57.4068 4.87133C57.4644 4.39172 57.5945 3.64436 57.8919 3.06144C58.0389 2.77326 58.2105 2.55817 58.403 2.42746C58.5827 2.3054 58.8068 2.23799 59.1172 2.28502L59.1545 2.29066H59.1921H62.2191H62.2604L62.3012 2.28386C62.4435 2.26016 62.767 2.23106 63.0828 2.47064C63.4002 2.71143 63.8324 3.31734 63.9642 4.85445L63.9654 4.86791L63.9672 4.88128L69.8675 46.8948L70.8567 46.9021L77.3869 4.88854L77.3882 4.87995L77.3892 4.87133C77.4286 4.54325 77.5295 3.77426 77.8139 3.13599C77.9555 2.81795 78.1246 2.57512 78.3151 2.4292C78.4875 2.29714 78.698 2.22658 78.999 2.2823L79.0441 2.29066H79.09H82.5933H82.6932L82.76 2.26286C82.7657 2.2668 82.7784 2.27607 82.7971 2.29891C82.9043 2.4297 83.1145 2.89439 83.0402 4.23686C83.0376 4.25592 83.0363 4.26743 83.0349 4.27894C83.0097 4.49422 82.9685 4.70761 73.7277 54.2607L73.725 54.2755L73.7231 54.2904C73.6289 55.0438 73.4255 55.7829 73.1114 56.2866C72.9566 56.5348 72.7898 56.7018 72.6199 56.7968C72.4593 56.8865 72.2708 56.9267 72.0285 56.8818L71.9834 56.8735H71.9375H68.6724H68.6302L68.5886 56.8806C68.2611 56.9362 68.0304 56.8491 67.8391 56.6856C67.6286 56.5057 67.45 56.2165 67.307 55.859C67.042 55.1966 66.959 54.461 66.9312 54.2142C66.929 54.1945 66.9271 54.178 66.9256 54.1648L66.9257 54.1648L66.924 54.1527L61.0621 13.7137L60.0724 13.7145L54.2874 54.0895L54.2873 54.0895L54.2859 54.1008C54.2843 54.1139 54.2825 54.1302 54.2803 54.1496C54.2526 54.3958 54.1697 55.1309 53.901 55.7926C53.7562 56.1491 53.575 56.4383 53.3599 56.6187C53.1637 56.7834 52.9238 56.8731 52.5828 56.8163L52.542 56.8095H52.5006H49.2739H49.2267L49.1804 56.8183C48.9513 56.8619 48.7768 56.8229 48.6284 56.7368C48.4693 56.6445 48.3107 56.48 48.1623 56.2311C47.8612 55.7262 47.6677 54.9848 47.5728 54.2264L47.5711 54.2126L47.5686 54.1989L38.7567 5.77193L38.7546 5.7604L38.752 5.74899C38.5646 4.93701 38.4888 4.11643 38.4098 3.26051L38.4093 3.25523ZM29.3152 33.512V33.1696L28.9959 33.0458C27.2741 32.3786 24.7797 31.6497 21.8825 31.579C20.3909 31.4065 18.3577 31.8586 16.7189 33.3899C15.0608 34.9393 13.8588 37.5418 13.9563 41.5731C13.8579 44.0951 14.3607 46.4966 15.3422 48.2554C16.3226 50.0121 17.8391 51.2081 19.752 51.0628C22.8045 50.9885 24.9749 49.4264 26.4357 47.503C27.89 45.5882 28.6611 43.2947 28.9467 41.663L28.9469 41.6631L28.9489 41.6494C29.3309 39.0451 29.3255 37.2834 29.3176 34.7206C29.3165 34.3375 29.3152 33.9365 29.3152 33.512ZM105.2 87.8848L105.201 87.8835C105.628 87.5667 105.962 87.5701 106.216 87.6842C106.503 87.8133 106.797 88.1342 106.998 88.6441C107.399 89.6591 107.336 91.1852 106.384 92.4095C93.5482 108.817 74.9705 117.5 59.0154 117.5C36.6127 117.5 16.3997 105.828 1.06586 81.8638C0.68304 81.2499 0.573313 80.5571 0.646066 80.0107C0.682495 79.7372 0.761808 79.5215 0.854688 79.3769C0.947684 79.2321 1.03367 79.1867 1.0853 79.1749C1.13209 79.1641 1.30578 79.1555 1.6095 79.4619C18.3337 96.3364 39.0124 103.766 60.3599 103.766C74.7999 103.766 90.6367 98.5912 105.2 87.8848Z" stroke="#F8FBFF"/>
</svg>
