<svg width="119" height="118" viewBox="0 0 119 118" fill="none" xmlns="http://www.w3.org/2000/svg">
<path d="M102.53 43.0194L102.53 43.0195C104.604 51.4551 107.848 56.1019 111.141 58.6017L111.665 58.9998L111.141 59.3981C107.85 61.898 104.607 66.5481 102.53 74.9806C102.53 74.9806 102.53 74.9807 102.53 74.9807L102.53 43.0194ZM102.53 43.0194C100.27 33.8299 100.043 22.8383 100.254 15.2131C100.324 12.7166 99.5625 10.2517 98.1411 8.45508M102.53 43.0194L98.1411 8.45508M16.2132 74.8612L15.7277 74.9806C13.654 66.5483 10.4079 61.8982 7.11455 59.3983L6.5899 59L7.11455 58.6017C10.4079 56.1018 13.654 51.4517 15.7277 43.0194L16.1719 43.1287L15.7277 43.0194C17.9881 33.8298 18.2152 22.8381 18.0037 15.2129C17.9337 12.7163 18.6956 10.2515 20.1171 8.45489M16.2132 74.8612L20.1174 8.45452C20.1173 8.45464 20.1172 8.45476 20.1171 8.45489M16.2132 74.8612L15.7277 74.9806C17.9881 84.1701 18.2152 95.1617 18.0037 102.787L16.2132 74.8612ZM20.1171 8.45489C20.9554 7.3924 22.4465 6.05556 24.6341 6.05556H93.6239C95.8117 6.05556 97.3028 7.39256 98.1411 8.45508M20.1171 8.45489L98.1411 8.45508M106.698 41.3703C108.66 49.3478 112 54.7556 117.625 55.6746V62.3254C112 63.2444 108.66 68.6522 106.698 76.6297L106.698 76.6298C104.681 84.8349 104.403 94.873 104.618 102.592C104.727 106.501 103.566 110.248 101.576 113.005C99.5862 115.762 96.7952 117.5 93.6266 117.5H24.6341C21.4655 117.5 18.6745 115.762 16.685 113.005C14.6945 110.248 13.5339 106.501 13.6424 102.592L13.6424 102.592C13.8546 94.8731 13.5801 84.8349 11.5604 76.6297C9.6002 68.6514 6.24983 63.2443 0.625 62.3254V55.6746C6.24988 54.7557 9.60026 49.3485 11.5604 41.3701C13.5801 33.165 13.8573 23.127 13.6424 15.4081C13.5339 11.4986 14.6945 7.75233 16.685 4.99461C18.6745 2.23833 21.4655 0.5 24.6341 0.5H93.6239C96.7925 0.5 99.5835 2.23832 101.573 4.99464C103.564 7.75235 104.725 11.4985 104.618 15.408M106.698 41.3703L107.183 41.2508L106.698 41.3703C106.698 41.3703 106.698 41.3703 106.698 41.3703ZM106.698 41.3703C104.678 33.165 104.403 23.1268 104.618 15.408M104.618 15.408C104.618 15.4081 104.618 15.4082 104.618 15.4082L105.117 15.4219L104.618 15.408ZM98.1411 109.545C97.3028 110.607 95.8117 111.944 93.6239 111.944H24.6341C22.4463 111.944 20.9552 110.607 20.117 109.545C18.6956 107.748 17.9338 105.284 18.0037 102.787L98.1411 109.545ZM98.1411 109.545C99.5622 107.745 100.324 105.284 100.254 102.787L98.1411 109.545ZM66.1073 57.2005V57.6347L66.5372 57.6956C73.2124 58.6404 77.7544 64.4284 77.7544 72.275C77.7544 77.501 76.1641 81.7827 73.2121 84.7064L73.2119 84.7065C70.2648 87.6272 65.944 89.1997 60.6697 89.1997H40.4956V28.7938H60.5625C64.9418 28.7938 68.6137 30.2079 71.2157 32.8408L71.2157 32.8409C73.8287 35.4838 75.2308 39.2197 75.2308 43.6862C75.2308 49.9927 71.3309 55.5975 66.504 56.6162L66.1073 56.7V57.1054V57.2005ZM47.6805 54.3062V54.8062H48.1805H56.9769C60.4591 54.8062 63.2369 53.9627 65.1498 52.2794C67.0728 50.5871 68.0499 48.1097 68.0513 45.0008V45.0006C68.0513 42.1117 67.2327 39.7988 65.6014 38.2105C63.9722 36.6243 61.6043 35.8309 58.6476 35.8309H48.1805H47.6805V36.3309V54.3062ZM48.1805 61.332H47.6805V61.832V81.6724V82.1724H48.1805H59.0365C62.661 82.1724 65.5154 81.2918 67.466 79.4981C69.4238 77.6978 70.3925 75.0504 70.3925 71.6883C70.3925 68.3203 69.4084 65.6992 67.3782 63.9309C65.3608 62.1739 62.3928 61.332 58.5752 61.332H48.1805Z" stroke="#F8FBFF"/>
</svg>
