<svg width="119" height="118" viewBox="0 0 119 118" fill="none" xmlns="http://www.w3.org/2000/svg">
<path d="M84.2018 74.0009C84.2236 73.8757 84.2418 73.7636 84.2571 73.6656L116.185 75.4185C116.191 75.4993 116.197 75.5913 116.202 75.6942C116.228 76.1522 116.249 76.824 116.232 77.6704C116.199 79.3637 116.014 81.753 115.405 84.5261C114.187 90.0707 111.278 97.1422 104.505 103.265C90.9042 115.558 74.2024 117.581 62.4769 117.498C62.1949 117.495 61.9103 117.494 61.6233 117.492C49.9307 117.412 34.1898 117.306 18.9286 103.015C11.0929 95.6761 6.52417 88.4563 3.90988 81.3359C1.29419 74.2118 0.625 67.16 0.625 60.1385C0.625 46.102 3.59862 27.6079 22.1919 13.569C34.8515 4.01828 47.6784 0.5 60.5106 0.5C87.3385 0.497554 101.588 11.7935 109.151 23.0402C112.941 28.6759 115.061 34.3145 116.234 38.5455C116.82 40.6602 117.169 42.421 117.371 43.6507C117.466 44.2331 117.529 44.6961 117.568 45.0209L84.2491 44.7149C84.234 44.6277 84.2158 44.5284 84.1943 44.418C84.1053 43.9601 83.9585 43.3092 83.7266 42.5284C83.2634 40.9682 82.4578 38.8805 81.0872 36.7753C78.3336 32.546 73.315 28.2769 64.3303 28.0457L64.3301 28.0457C55.3954 27.8183 48.582 30.9096 44.0131 36.3901C39.4567 41.8556 37.1799 49.6397 37.1799 58.7255C37.1799 67.8225 39.7012 76.048 44.4231 82.0107C49.1539 87.9846 56.0749 91.6605 64.7908 91.6605C73.5728 91.6605 78.4776 87.0216 81.1621 82.402C82.4996 80.1003 83.288 77.8032 83.7423 76.0844C83.9697 75.224 84.1141 74.5059 84.2018 74.0009Z" stroke="#F8FBFF"/>
</svg>
