<svg width="120" height="120" viewBox="0 0 120 120" fill="none" xmlns="http://www.w3.org/2000/svg">
<path d="M57.0374 44.3738C58.0013 42.8004 59.0571 42.5947 59.9184 42.5947C60.7717 42.5947 62.2001 42.8004 63.1667 44.3738C75.7387 63.566 101.814 114.189 104.225 116.946C107.795 121.028 112.696 118.486 115.542 113.854C118.35 109.291 119.125 106.09 119.125 102.68C119.125 100.353 78.5199 16.407 74.4237 9.41758C70.4896 2.69743 69.2097 1 62.4836 1H57.4478C50.7352 1 49.7631 2.69743 45.8317 9.41153C41.7301 16.4161 1.125 100.362 1.125 102.686C1.125 106.105 1.89995 109.3 4.70812 113.86C7.5514 118.489 12.4522 121.04 16.0245 116.952C18.4331 114.199 44.4708 63.5721 57.0374 44.389V44.3738Z" stroke="#F8FBFF" stroke-miterlimit="10"/>
</svg>
