<svg width="119" height="118" viewBox="0 0 119 118" fill="none" xmlns="http://www.w3.org/2000/svg">
<path d="M117.556 87.2244L117.556 87.2242L104.779 23.375C104.468 21.8369 103.145 20.4891 101.227 19.9251C99.3055 19.3702 97.1697 19.7025 95.663 20.78C95.6629 20.78 95.6628 20.78 95.6628 20.7801L76.1397 34.7533L75.7085 35.0619L75.4258 34.6134L64.429 17.1733C63.5352 15.7615 61.7435 14.8083 59.7079 14.7485C57.666 14.6886 55.7948 15.5295 54.7715 16.8961L48.2057 25.668L47.7665 26.2548L47.3804 25.6318L33.3228 2.94555C32.2981 1.29336 30.0299 0.320218 27.6689 0.527478C25.2975 0.777957 23.4679 2.20538 22.9931 3.98937L0.746159 87.613C0.746147 87.6131 0.746135 87.6131 0.746123 87.6132C0.141771 89.8878 1.89125 92.2908 4.94979 92.8321L4.95196 92.8325C5.0018 92.8415 5.05766 92.8464 5.13637 92.8511C5.14737 92.8518 5.15916 92.8525 5.17158 92.8532C5.23884 92.8571 5.325 92.862 5.40975 92.8723L5.4459 92.8766L5.48104 92.8862C5.51084 92.8943 5.53859 92.9046 5.56421 92.9164C5.58969 92.928 5.61146 92.9404 5.62945 92.9518C5.63072 92.9526 5.63197 92.9534 5.6332 92.9542L56.4423 116.885L56.4446 116.886C57.2991 117.294 58.2591 117.5 59.2296 117.5C60.2069 117.5 61.1785 117.293 62.0378 116.881L62.0391 116.881L114.921 91.7091L117.556 87.2244ZM117.556 87.2244C117.904 88.9602 116.915 90.758 114.921 91.7089L117.556 87.2244ZM59.4781 28.9081L59.0905 28.2934L58.6549 28.8752L53.7906 35.3732L53.5862 35.6463L53.766 35.9363L59.8508 45.7496L60.1323 46.2035L60.5667 45.8927L66.8139 41.4232L67.1975 41.1488L66.9459 40.7499L59.4781 28.9081ZM51.229 52.5773L51.6095 52.305L51.363 51.9073L47.2503 45.2718L46.8639 44.6484L46.4249 45.2358L31.0323 65.8299L31.7238 66.5359L51.229 52.5773ZM31.0882 19.1964L30.4778 18.2117L30.18 19.3313L18.2688 64.1147L19.1525 64.5426L40.8403 35.5301L41.0444 35.2571L40.8648 34.9673L31.0882 19.1964ZM58.9985 107.863L59.2127 107.964L59.4264 107.862L105.73 85.8241L106.082 85.6566L106.006 85.2745L95.6398 33.4922L95.4879 32.7334L94.8585 33.1837L62.7567 56.155L62.7302 56.1739L62.7224 56.1812C62.7209 56.1821 62.7192 56.1832 62.7173 56.1843C62.7141 56.1863 62.7096 56.189 62.7043 56.1923C62.6926 56.1996 62.6766 56.2097 62.6602 56.2209C62.6428 56.2329 62.6219 56.2481 62.5994 56.2668L18.3828 87.913L17.69 88.4089L18.4608 88.7719L58.9985 107.863Z" stroke="#F8FBFF"/>
</svg>
