<svg width="119" height="118" viewBox="0 0 119 118" fill="none" xmlns="http://www.w3.org/2000/svg">
<path d="M32.968 102.522L2.28026 65.3626L2.27933 65.3615C1.80011 64.7846 1.37312 63.8815 1.07162 62.7249C0.771714 61.5744 0.615849 60.249 0.625416 58.8971L0.625421 58.8962C0.632502 57.5445 0.804477 56.2306 1.11768 55.1012C1.43273 53.9651 1.86893 53.0937 2.34998 52.5519L2.35073 52.5511L32.968 17.911V33.35L10.3876 58.8957L10.1047 59.2158L10.3767 59.5452L32.968 86.9023V102.522ZM85.2816 33.3506V17.9115L115.898 52.5511L115.899 52.552C116.38 53.0938 116.817 53.9651 117.132 55.1013C117.445 56.2308 117.617 57.5448 117.625 58.8968L117.625 58.8976C117.634 60.2494 117.478 61.5746 117.178 62.725C116.877 63.8816 116.45 64.7849 115.971 65.3621L115.97 65.3631L85.2816 102.523V86.9013L107.873 59.5458L108.145 59.2164L107.862 58.8963L85.2816 33.3506ZM72.6209 30.1434H78.2066V46.7074H71.2111H70.7496L70.7127 47.1674L68.6869 72.4231L68.6436 72.9631H69.1853H75.846V89.5271H67.7762H67.3147L67.2778 89.9871L65.0707 117.5H58.1856L60.3864 90.0671L60.4297 89.5271H59.888H52.475H52.0135L51.9766 89.9871L49.7694 117.5H42.8844L45.0853 90.0671L45.1287 89.5271H44.5869H38.833V72.9631H45.996H46.4575L46.4944 72.5031L48.5205 47.2474L48.5638 46.7074H48.0221H42.2181V30.1434H49.4312H49.8926L49.9296 29.6834L52.2711 0.5H59.1563L56.8212 29.6034L56.7779 30.1434H57.3196H64.7322H65.1937L65.2306 29.6834L67.5719 0.5H74.4569L72.1225 29.6035L72.0792 30.1434H72.6209ZM55.9105 46.7074H55.4491L55.4121 47.1674L53.3861 72.4231L53.3428 72.9631H53.8845H61.2973H61.7588L61.7957 72.5031L63.8217 47.2474L63.8651 46.7074H63.3233H55.9105Z" stroke="#F8FBFF"/>
</svg>
