<svg width="118" height="118" viewBox="0 0 118 118" fill="none" xmlns="http://www.w3.org/2000/svg">
<path d="M56.6377 63.6346L56.6381 63.6343C56.8057 63.4942 56.8536 63.2554 56.7527 63.0608L57.1965 62.8305L56.7527 63.0608C56.7156 62.9893 55.1178 59.8854 53.5574 55.6953C52.0023 51.5195 50.4589 46.1996 50.5784 41.7174L50.5784 41.7171C50.6254 39.9848 51.8432 38.2342 53.4915 36.5238C55.156 34.7966 57.3732 32.9991 59.6204 31.1775L59.6392 31.1623C63.7975 27.7911 68.4175 24.0395 71.1111 19.6744C74.0354 14.9224 73.8765 10.2127 72.9691 6.65685C72.515 4.87753 71.8744 3.39269 71.3432 2.34741C71.0778 1.8252 70.8404 1.41398 70.6683 1.13197C70.5823 0.991001 70.5127 0.882446 70.4643 0.808591C70.4168 0.736348 70.3904 0.698471 70.3889 0.696326L70.3888 0.696231L70.796 0.406937L70.3891 0.696653C70.2606 0.516141 70.0234 0.450492 69.8199 0.539388C69.6168 0.629469 69.5051 0.848783 69.5513 1.065L69.5514 1.06532C69.5741 1.17201 70.9037 7.68907 67.1906 14.4105L56.6377 63.6346ZM56.6377 63.6346C56.5512 63.7071 56.4451 63.7435 56.3382 63.7435C56.2376 63.7435 56.1372 63.7112 56.0531 63.6465C55.691 63.3677 51.1671 59.8358 47.4539 54.8301C43.7212 49.7982 40.932 43.4519 43.6857 37.4448M56.6377 63.6346L43.6857 37.4448M43.6857 37.4448C46.9324 30.3945 52.9951 26.1183 58.462 22.2733L58.4742 22.2647C60.3657 20.9345 62.1517 19.6783 63.6512 18.4136C65.1528 17.1471 66.4002 15.8453 67.1902 14.411L43.6857 37.4448Z" stroke="#F8FBFF"/>
<path d="M64.3363 68.4002C64.1694 68.5164 63.9763 68.5735 63.7841 68.5735C63.5582 68.5735 63.3326 68.4943 63.1519 68.3382C62.8175 68.0497 62.7211 67.5708 62.9177 67.1758L64.3363 68.4002ZM64.3363 68.4002C64.7103 68.1403 73.4782 61.9411 71.9057 54.4724L64.3363 68.4002ZM65.015 59.3515L65.0141 59.3483C64.8691 58.8838 64.5882 58.4101 64.2574 57.9395C63.9257 57.4675 63.5184 56.9638 63.0962 56.4416L63.0901 56.4341C60.9296 53.7619 58.0391 50.1862 58.0391 43.3792C58.0391 41.0279 59.3037 38.7208 61.3196 36.5454C63.3299 34.376 66.0354 32.3945 68.794 30.7025C74.3088 27.3198 79.945 25.1483 80.3985 24.9759C80.6161 24.8934 80.8609 24.9831 80.9735 25.187L81.4112 24.9453L80.9733 25.1867C81.0856 25.3904 81.0312 25.6454 80.8458 25.7854C80.7605 25.8494 77.9622 27.9656 74.8727 30.6206C73.3213 31.9538 71.691 33.4275 70.2922 34.8486C68.9016 36.2613 67.7088 37.6526 67.062 38.8186L67.0615 38.8195C65.9707 40.7945 65.7549 42.3802 66.1118 43.867C66.4544 45.2945 67.3188 46.58 68.2465 47.9595L68.279 48.0079L68.279 48.0079C69.5122 49.8415 70.8524 51.8419 71.4161 54.5734L71.4165 54.5754C72.156 58.0877 70.4715 61.3497 68.4627 63.8245C66.4634 66.2876 64.2215 67.8711 64.0509 67.9897L64.0506 67.9899C63.9699 68.046 63.8771 68.0735 63.7841 68.0735C63.6749 68.0735 63.5661 68.0353 63.4787 67.9598L63.4785 67.9597C63.317 67.8203 63.2706 67.5889 63.3654 67.3985L63.3656 67.398C63.7188 66.6862 64.3069 65.2981 64.7216 63.7962C65.1289 62.3209 65.4024 60.6221 65.015 59.3515Z" stroke="#F8FBFF"/>
<path d="M24.9897 68.8903L24.9892 68.8916C24.6688 69.8511 24.8149 70.7917 25.4293 71.6452L24.9897 68.8903ZM24.9897 68.8903C25.3097 67.9228 26.3589 67.0915 28.0084 66.4122C29.6309 65.744 31.7048 65.276 33.8526 64.9515C38.1429 64.3034 42.6192 64.2432 44.11 64.2432C44.3505 64.2432 44.5517 64.4256 44.5751 64.6652C44.5984 64.9045 44.4363 65.1223 44.2004 65.1686L44.2002 65.1687C41.6207 65.6761 39.2852 66.3444 37.5036 67.0051C36.6135 67.3352 35.8533 67.6665 35.2666 67.979C34.7046 68.2783 34.2273 68.598 33.9863 68.9289L33.6166 69.4366L34.1943 69.6831C34.5758 69.8459 35.2004 70.0049 36.0527 70.1549C36.9159 70.3067 38.0446 70.4546 39.4542 70.5843C42.2741 70.8439 46.2347 71.0325 51.473 71.0325C60.8152 71.0325 74.3464 70.3352 81.6319 68.346L81.633 68.3458M24.9897 68.8903L81.633 68.3458M53.9764 76.4133L53.9765 76.4133C74.352 75.6841 81.8382 69.3418 82.0606 69.1494C82.2255 69.0066 82.2696 68.769 82.1672 68.5767L53.9764 76.4133ZM53.9764 76.4133C52.1048 76.4804 50.2781 76.5144 48.5486 76.5144H48.5486H48.5486H48.5486H48.5486H48.5485H48.5485H48.5485H48.5485H48.5485H48.5485H48.5484H48.5484H48.5484H48.5484H48.5484H48.5484H48.5483H48.5483H48.5483H48.5483H48.5483H48.5483H48.5483H48.5482H48.5482H48.5482H48.5482H48.5482H48.5482H48.5481H48.5481H48.5481H48.5481H48.5481H48.5481H48.548H48.548H48.548H48.548H48.548H48.548H48.5479H48.5479H48.5479H48.5479H48.5479H48.5479H48.5479H48.5478H48.5478H48.5478H48.5478H48.5478H48.5478H48.5477H48.5477H48.5477H48.5477H48.5477H48.5477H48.5476H48.5476H48.5476H48.5476H48.5476H48.5476H48.5475H48.5475H48.5475H48.5475H48.5475H48.5475H48.5474H48.5474H48.5474H48.5474H48.5474H48.5474H48.5473H48.5473H48.5473H48.5473H48.5473H48.5473H48.5473H48.5472H48.5472H48.5472H48.5472H48.5472H48.5472H48.5471H48.5471H48.5471H48.5471H48.5471H48.5471H48.547H48.547H48.547C42.1602 76.5144 36.9078 76.0647 32.971 75.215M53.9764 76.4133L32.971 75.215M81.633 68.3458C81.8431 68.2879 82.0636 68.3829 82.1671 68.5764L81.633 68.3458ZM32.971 75.215C31.0027 74.7902 29.3772 74.2684 28.1084 73.6611M32.971 75.215L28.1084 73.6611M28.1084 73.6611C26.836 73.052 25.9523 72.3713 25.4294 71.6453L28.1084 73.6611Z" stroke="#F8FBFF"/>
<path d="M101.864 70.8777L101.865 70.878C102.363 73.6241 101.565 75.9402 100.047 77.9C98.518 79.8736 96.2599 81.4803 93.8717 82.7529C89.0964 85.2975 83.9427 86.4325 83.5291 86.521L83.6337 87.0099L83.5299 86.5209C83.4972 86.5278 83.4642 86.5312 83.4318 86.5312C83.2469 86.5312 83.0754 86.4208 83.0014 86.2446C82.9145 86.0377 82.987 85.7985 83.1744 85.6745C84.9885 84.4742 88.2027 82.0789 90.8805 79.422C92.2186 78.0943 93.439 76.6853 94.2822 75.3142C95.1163 73.9579 95.6308 72.5587 95.4231 71.2801C94.9678 68.4115 92.2472 67.0418 89.8848 66.3808C87.4839 65.709 85.184 65.6887 85.1101 65.6886C84.8963 65.6883 84.7095 65.5425 84.6574 65.335C84.6056 65.1263 84.7017 64.9104 84.8895 64.8094C85.0635 64.717 88.9687 62.6611 93.0536 62.6611C94.7544 62.6611 96.6411 63.022 98.2502 64.2039C99.85 65.3789 101.238 67.4111 101.864 70.8777Z" stroke="#F8FBFF"/>
<path d="M73.4846 79.8489L73.4795 79.8503C73.4804 79.85 73.4804 79.85 73.4762 79.8511L73.4627 79.8546L73.4136 79.8672C73.3714 79.878 73.3104 79.8934 73.2313 79.9131C73.0731 79.9525 72.8425 80.0087 72.5448 80.0782C71.9495 80.2173 71.0857 80.4096 69.9957 80.6267C67.8161 81.0608 64.7304 81.5945 61.0763 82.0003C58.1686 82.3264 54.916 82.4982 51.668 82.4982C48.0133 82.4982 44.9836 82.2836 42.7734 81.9881C41.6693 81.8406 40.762 81.6718 40.0798 81.497C39.7392 81.4098 39.4465 81.319 39.2099 81.2253C38.9854 81.1364 38.7665 81.0279 38.6113 80.8874L38.5448 80.8273L38.5034 80.7477C38.4339 80.6143 38.39 80.4789 38.3836 80.3398C38.377 80.1926 38.4155 80.0863 38.4307 80.0451C38.4964 79.8637 38.6156 79.7131 38.7259 79.5989C38.8416 79.4792 38.9775 79.3692 39.114 79.273C39.3852 79.0818 39.6996 78.9164 39.9583 78.8184L39.9618 78.8171L39.9618 78.8171C40.1939 78.7312 40.3186 78.4792 40.2466 78.2434L40.2465 78.2428C40.1747 78.0067 39.9314 77.8669 39.6897 77.9247C37.3089 78.4993 35.5895 79.1772 34.4972 79.931C33.413 80.6792 33.0202 81.4433 33.0851 82.2177L73.4846 79.8489ZM73.4846 79.8489C73.6174 79.8137 73.7607 79.839 73.8729 79.9175C73.873 79.9175 73.873 79.9175 73.873 79.9176L78.6641 83.2735C78.8145 83.379 78.8892 83.5625 78.8557 83.7421C78.8218 83.923 78.6861 84.0658 78.5094 84.1089L78.507 84.1095M73.4846 79.8489L78.507 84.1095M78.507 84.1095C78.3543 84.1475 63.3186 87.8255 51.6161 87.8255H51.6161H51.6161H51.6161H51.616H51.616H51.616H51.616H51.616H51.616H51.6159H51.6159H51.6159H51.6159H51.6159H51.6159H51.6159H51.6158H51.6158H51.6158H51.6158H51.6158H51.6158H51.6157H51.6157H51.6157H51.6157H51.6157H51.6157H51.6157H51.6156H51.6156H51.6156H51.6156H51.6156H51.6156H51.6155H51.6155H51.6155H51.6155H51.6155H51.6154H51.6154H51.6154H51.6154H51.6154H51.6154H51.6154H51.6153H51.6153H51.6153H51.6153H51.6153H51.6153H51.6152H51.6152H51.6152H51.6152H51.6152H51.6152H51.6151H51.6151H51.6151H51.6151H51.6151H51.6151H51.615H51.615H51.615H51.615H51.615H51.615H51.6149H51.6149H51.6149H51.6149H51.6149H51.6149H51.6148H51.6148H51.6148H51.6148H51.6148H51.6148H51.6147H51.6147H51.6147H51.6147H51.6147H51.6147H51.6146H51.6146H51.6146H51.6146H51.6146H51.6146H51.6145H51.6145H51.6145H51.6145H51.6145H51.6145H51.6145H51.6144H51.6144H51.6144H51.6144H51.6144H51.6144H51.6143H51.6143H51.6143H51.6143H51.6143H51.6143C50.4718 87.8255 49.3825 87.7905 48.3773 87.7218M78.507 84.1095L48.3773 87.7218M48.3773 87.7218C44.8601 87.4781 41.0413 86.896 38.0782 85.9362M48.3773 87.7218L38.0782 85.9362M38.0782 85.9362C36.5945 85.4555 35.3549 84.8894 34.4776 84.2443M38.0782 85.9362L34.4776 84.2443M34.4776 84.2443C33.5978 83.5973 33.144 82.919 33.0851 82.2178L34.4776 84.2443Z" stroke="#F8FBFF"/>
<path d="M60.6785 93.8208C66.4469 93.0377 70.288 92.2447 70.398 92.2217C70.5153 92.1979 70.6373 92.2192 70.7379 92.2805L76.7928 95.9768C76.9396 96.0666 77.0252 96.2294 77.016 96.4008C77.0069 96.5722 76.9045 96.7249 76.7491 96.7984C76.4523 96.9387 68.6101 100.588 56.9555 100.588C55.8672 100.588 54.7659 100.556 53.682 100.491L53.6809 100.491C49.0722 100.223 45.4258 99.7343 42.6899 99.0203C39.938 98.3021 38.1837 97.3754 37.2697 96.2921L37.2696 96.292C36.6254 95.5289 36.3635 94.6803 36.4674 93.7461L36.4675 93.7455C36.6319 92.2502 37.8871 91.3836 39.3856 90.8827C40.8538 90.392 42.3644 90.324 42.6792 90.3154C42.8988 90.3137 43.0813 90.4495 43.1413 90.6428L43.1415 90.6433C43.2039 90.8435 43.1257 91.0598 42.9512 91.1732L42.9389 91.1813L42.927 91.19C42.772 91.3043 42.6575 91.4485 42.5943 91.6172C42.5323 91.7829 42.5322 91.9387 42.5511 92.0601L42.5907 92.3147L42.821 92.4302C43.1978 92.6192 43.8955 92.805 44.7587 92.9799C45.6428 93.159 46.7585 93.3373 48.0126 93.4955C50.5203 93.8119 53.6024 94.0505 56.525 94.0505C58.1516 94.0505 59.5507 93.9742 60.6785 93.8208ZM60.6785 93.8208L60.6117 93.3288L60.6786 93.8207C60.6785 93.8208 60.6785 93.8208 60.6785 93.8208Z" stroke="#F8FBFF"/>
<path d="M95.2778 104.038L95.2779 104.038C96.1533 103.091 96.2246 102.233 96.1576 101.705C96.0714 101.03 95.7174 100.467 95.3402 100.046C94.9647 99.6269 94.5936 99.3795 94.5306 99.339L95.2778 104.038ZM95.2778 104.038C94.6602 104.706 93.3217 105.537 91.1692 106.404C89.0348 107.264 86.1541 108.139 82.5099 108.923C75.2602 110.483 65.0183 111.679 51.6816 111.703M95.2778 104.038L51.6816 111.703M93.9192 100.031L93.9276 100.042C94.0671 100.221 94.1971 100.49 94.1664 100.83C94.1363 101.164 93.9583 101.483 93.6579 101.783L93.6518 101.79L93.6455 101.796C93.4334 101.994 93.0586 102.185 92.6103 102.372C92.1398 102.568 91.52 102.786 90.7599 103.017C89.2385 103.48 87.1294 104.006 84.4762 104.527C79.1686 105.569 71.6646 106.598 62.2956 107.073C59.7259 107.206 57.0316 107.274 54.2879 107.275H54.2878C45.8976 107.275 38.6281 106.7 33.2487 105.957C30.5598 105.585 28.3368 105.171 26.679 104.762C25.8506 104.558 25.156 104.354 24.6116 104.155C24.0828 103.962 23.6455 103.757 23.3739 103.531L23.0208 103.238L23.283 102.861C23.4128 102.674 23.608 102.514 23.814 102.375C24.0275 102.231 24.2886 102.088 24.5845 101.946C25.1766 101.662 25.9427 101.368 26.8227 101.08C28.5847 100.504 30.8432 99.9418 33.1677 99.5359L33.1678 99.5358C33.4185 99.4921 33.588 99.256 33.5491 99.004C33.5106 98.7545 33.2811 98.5796 33.0234 98.6124C32.8808 98.6315 32.4787 98.6561 32.0377 98.6831C31.9944 98.6857 31.9507 98.6884 31.9068 98.6911L31.9067 98.6911C28.1069 98.9231 24.0507 99.296 20.8957 100.09C19.3164 100.487 17.9986 100.982 17.0587 101.594C16.1217 102.203 15.6171 102.889 15.5261 103.666L93.9192 100.031ZM93.9192 100.031L93.9103 100.021M93.9192 100.031L93.9103 100.021M93.9103 100.021C93.7626 99.8509 93.7603 99.5986 93.9172 99.4173C94.0636 99.2488 94.3277 99.2086 94.5304 99.3389L93.9103 100.021ZM51.6816 111.703L51.6814 111.703H51.4743C37.7688 111.703 29.4736 110.936 24.361 109.891C19.249 108.846 17.3819 107.534 16.4576 106.496L51.6816 111.703ZM51.8263 111.848C51.8288 111.85 51.8296 111.851 51.8278 111.849L51.8263 111.848ZM16.4576 106.496C15.708 105.653 15.4044 104.71 15.5261 103.666L16.4576 106.496Z" stroke="#F8FBFF"/>
<path d="M83.6559 112.7L83.6577 112.699L99.8204 105.447L100.187 105.786C100.187 105.786 100.187 105.786 100.188 105.786C100.324 105.639 100.541 105.596 100.725 105.681C100.909 105.766 101.017 105.96 100.993 106.16L100.993 106.16C100.985 106.226 100.764 107.943 98.8352 109.949C96.9062 111.954 93.2294 114.289 86.2358 115.515C78.6818 116.832 70.6817 117.5 62.4577 117.5C45.3329 117.5 32.804 114.57 32.6632 114.536C32.4298 114.481 32.2762 114.256 32.3092 114.018L32.3092 114.018C32.3427 113.775 32.5508 113.603 32.7882 113.615L32.7914 113.615C32.9135 113.62 44.9275 114.117 57.5549 114.117C70.1446 114.117 78.94 113.645 83.6559 112.7Z" stroke="#F8FBFF"/>
</svg>
