<svg width="118" height="118" viewBox="0 0 118 118" fill="none" xmlns="http://www.w3.org/2000/svg">
<g clip-path="url(#clip0_233_182)">
<path d="M108.667 89.8423L108.828 89.7781C108.382 86.9913 107.247 84.4176 104.885 82.0073C102.537 79.6105 98.996 77.3946 93.7693 75.2731C93.043 74.9329 92.2996 74.6127 91.5742 74.3003C91.391 74.2214 91.209 74.143 91.0287 74.0649C90.125 73.6735 89.261 73.2882 88.4758 72.8739C86.9049 72.0449 85.7389 71.1437 85.206 69.9579C84.7762 68.3895 84.7392 67.6214 84.9862 66.805L84.991 66.7892L84.9947 66.7733C85.3181 65.3805 86.2995 64.4617 87.5777 63.983C88.8666 63.5002 90.431 63.4799 91.8111 63.8936C93.5817 64.4389 95.2464 65.8096 96.3027 68.0532L96.5476 68.5732L97.0287 68.2587C100.041 66.2895 101.266 65.4882 102.502 64.703C103.352 64.1634 104.206 63.6315 105.648 62.7333L106.079 62.4652L105.804 62.0385C104.479 59.977 103.796 59.0464 102.865 58.1287C99.6493 54.5371 95.3715 52.7355 88.5575 52.8902L88.5317 52.8908L88.5062 52.894L85.04 53.3316L85.0117 53.3352L84.984 53.3419C81.5858 54.1714 78.3166 55.9852 76.3136 58.4455C73.4035 61.7462 72.385 66.2482 72.952 70.4919C73.5187 74.7335 75.6774 78.7782 79.2032 81.1592C82.0693 83.2983 85.4919 84.7389 88.533 86.0189C89.1148 86.2637 89.6826 86.5027 90.2299 86.7396C91.9531 87.4854 93.465 88.2056 94.6203 89.0193C95.7691 89.8284 96.5106 90.6922 96.7845 91.7074C97.0591 93.0579 96.9379 94.1382 96.5594 94.9936C96.1795 95.852 95.5214 96.5271 94.6505 97.0325C92.8964 98.0504 90.3194 98.3519 87.6901 98.0318C85.7719 97.6031 84.3011 96.9134 83.0182 95.8994C81.7232 94.8759 80.5972 93.5044 79.3937 91.681L79.1349 91.2888L78.7274 91.5228L69.7299 96.6902L69.3411 96.9135L69.5208 97.3242C70.3813 99.291 71.3604 100.391 72.6114 101.797C72.9178 102.141 73.2405 102.504 73.5818 102.902L73.5935 102.916L73.6062 102.928C78.0181 107.381 85.6691 109.449 92.6693 108.766C99.6692 108.084 106.219 104.622 108.222 97.7873C108.224 97.7787 108.228 97.7694 108.231 97.7593C108.413 97.198 109.361 94.2765 108.667 89.8423ZM64.6661 54.2714L64.7044 53.7357H64.1674H53.1147H52.6147V54.2357C52.6147 58.9968 52.6037 63.7432 52.5926 68.4921L52.5926 68.4997C52.5816 73.2509 52.5705 78.0047 52.5705 82.777C52.5705 84.0029 52.583 85.2004 52.595 86.3473C52.6128 88.0552 52.6295 89.651 52.6019 91.0617C52.579 92.2359 52.5255 93.2598 52.419 94.0898C52.3105 94.9349 52.1536 95.5191 51.959 95.856L51.9494 95.8727L51.9411 95.8901C51.2193 97.397 49.937 98.0634 48.5654 98.286C47.1968 98.508 45.7787 98.2768 44.8792 98.0005C43.0859 97.103 42.1637 95.8804 41.0406 94.0054L41.0404 94.0051C40.965 93.8795 40.8942 93.7576 40.8275 93.6428C40.7618 93.5297 40.6987 93.4208 40.6422 93.3277C40.5877 93.2377 40.5295 93.1458 40.4736 93.0728C40.4468 93.0377 40.4072 92.9892 40.3572 92.9449L40.356 92.9438C40.3267 92.9177 40.1928 92.7987 39.9873 92.7987H39.8455L39.7249 92.873L30.752 98.4043L30.3675 98.6413L30.5643 99.0478C32.0965 102.213 34.3438 104.96 37.2664 106.717L37.2679 106.718C41.5984 109.301 47.3822 110.119 53.4012 108.768L53.4159 108.764L53.4304 108.76C57.3738 107.622 60.8251 105.265 62.6397 101.573C63.9388 99.1991 64.4406 96.5763 64.6203 93.7868C64.7474 91.8143 64.714 89.7246 64.6796 87.5672C64.6656 86.6857 64.6513 85.7929 64.6478 84.8921C64.687 78.164 64.674 71.4321 64.6609 64.6799C64.6543 61.302 64.6478 57.919 64.6478 54.529L64.6661 54.2714ZM0.5 0.5H117.5V117.5H0.5V0.5Z" stroke="#F8FBFF"/>
</g>
<defs>
<clipPath id="clip0_233_182">
<rect width="118" height="118" fill="white"/>
</clipPath>
</defs>
</svg>
