<svg width="119" height="118" viewBox="0 0 119 118" fill="none" xmlns="http://www.w3.org/2000/svg">
<mask id="path-1-inside-1_283_194" fill="white">
<path d="M62.1306 0C61.2056 0 60.2507 0.0393305 59.272 0.103243C34.0457 1.74038 40.7357 23.736 40.3537 31.0662C39.8942 36.4397 38.5634 40.6727 34.0815 45.9184C28.7999 51.0854 21.3878 59.4382 17.8727 68.145C16.2136 72.2354 15.4259 76.4241 16.1599 80.3817C15.8856 80.5627 15.6599 80.7887 15.4975 81.0454C13.9458 82.363 12.8179 84.0001 11.5467 85.1702C10.3591 86.1486 8.65231 86.4829 6.79033 87.1367C4.92238 87.8054 2.86346 88.4592 1.63407 90.4848C1.09696 91.409 0.822439 92.4169 0.84631 93.4395C0.84631 94.4178 1.00744 95.4109 1.17454 96.0746C1.52068 98.0362 1.86682 99.6586 1.40729 100.843C-0.0727442 104.187 -0.257749 106.478 0.780664 108.144C1.81908 109.786 3.97348 110.45 6.38451 111.099C11.2245 112.082 17.7832 111.763 22.9454 114.044C28.4717 116.34 34.0815 117.343 38.5574 116.354C41.6965 115.789 44.3463 114.078 45.7666 111.708C49.2698 111.694 53.1071 110.386 59.2541 110.066C63.4256 109.781 68.6475 111.379 74.6393 111.045C74.7885 111.708 75.0153 112.023 75.3196 112.687L75.3375 112.702C77.671 116.526 81.9798 118.267 86.581 117.967C91.1823 117.672 96.0819 115.332 100.051 111.546C103.816 107.785 110.095 106.217 114.242 104.157C116.319 103.179 117.996 101.851 118.115 99.9634C118.253 97.9969 116.928 95.9714 113.854 93.1936V92.7168L113.836 92.702C112.822 91.7188 112.344 90.0718 111.819 88.1495C111.312 86.1781 110.733 84.2853 108.883 83.007H108.865C108.513 82.7416 108.131 82.6776 107.743 82.3433C107.409 82.1514 107.016 82.0422 106.609 82.0287C109.181 75.7456 108.185 69.4921 105.577 63.8678C102.396 56.9358 96.8339 50.8986 92.5967 46.7443C87.8462 41.8034 83.1913 37.1231 83.2808 30.1812C83.4419 19.6013 84.6952 0.0294979 62.1306 0ZM65.2876 16.74H65.3652C66.6363 16.74 67.7285 17.0449 68.8504 17.7135C69.9903 18.3772 70.8198 19.3457 71.4703 20.3339C72.097 21.6072 72.4133 22.5905 72.461 23.8933C72.461 23.795 72.4968 23.6966 72.4968 23.6032V24.1145C72.4837 24.0811 72.4757 24.0464 72.4729 24.0113L72.4491 23.8933C72.437 25.0881 72.1326 26.2686 71.5539 27.3642C71.2752 27.9806 70.8421 28.5418 70.2827 29.0112C70.1136 28.9325 69.9381 28.8635 69.7575 28.8047C69.1309 28.5834 68.5699 28.49 68.0567 28.1508C67.6333 28.0115 67.196 27.9029 66.7497 27.8263C67.0422 27.5363 67.6151 27.1725 67.8359 26.8529C68.1522 26.2236 68.3253 25.555 68.3611 24.8765V24.7831C68.3746 24.1154 68.2515 23.4506 67.997 22.8166C67.7285 22.1529 67.3943 21.8284 66.9049 21.1746C66.4036 20.8501 65.9083 20.5256 65.3115 20.5256H65.216C64.661 20.5256 64.1656 20.6731 63.6524 21.1746C63.0856 21.6299 62.6652 22.1942 62.429 22.8166C62.112 23.4413 61.9302 24.1068 61.8919 24.7831V24.8765C61.9038 25.3141 61.9396 25.7566 62.0112 26.1892C60.8594 25.8598 59.3973 25.5255 58.3887 25.1961C58.3287 24.8721 58.2929 24.5454 58.2813 24.2178V24.1194C58.2335 22.82 58.5394 21.5282 59.1765 20.3388C59.6658 19.2621 60.561 18.3428 61.7427 17.7184C62.7636 17.0832 64.0082 16.7397 65.2876 16.74ZM47.6107 17.0301H47.8255C48.673 17.0301 49.4369 17.2661 50.2067 17.6938C51.078 18.328 51.7823 19.1097 52.2597 19.9799C52.7968 20.9582 53.1012 21.9513 53.1728 23.2591V23.2787C53.2146 23.9375 53.2086 24.2669 53.1608 24.5865V24.9798C52.9818 25.0142 52.8266 25.0683 52.6655 25.0978C51.7584 25.3682 51.0303 25.7615 50.3201 26.081C50.3917 25.6435 50.3977 25.201 50.338 24.7684V24.6946C50.2664 24.0408 50.1053 23.7163 49.8487 23.0575C49.6626 22.5565 49.3211 22.104 48.858 21.7449C48.7109 21.6347 48.5384 21.55 48.3508 21.496C48.1632 21.4419 47.9642 21.4196 47.7659 21.4302H47.6405C47.2168 21.4597 46.8647 21.6318 46.5305 22.0792C46.1498 22.4598 45.9022 22.9187 45.8144 23.4066C45.6523 23.9381 45.6059 24.489 45.6771 25.0339V25.1027C45.7487 25.7664 45.8979 26.0909 46.1605 26.7447C46.4291 27.4035 46.7394 27.728 47.1452 28.0623C47.2109 28.1066 47.2705 28.1508 47.3481 28.1803C46.9304 28.4605 46.6499 28.5245 46.2978 28.8489C46.0743 29.0114 45.8059 29.1262 45.516 29.1832C44.8956 28.5678 44.3462 27.9062 43.8748 27.2069C43.3106 26.1738 42.9964 25.0599 42.9498 23.9277C42.8509 22.8179 43.0131 21.7028 43.4272 20.6436C43.7559 19.6776 44.3318 18.7808 45.1161 18.0134C45.88 17.3595 46.6678 17.0301 47.6107 17.0301ZM55.7927 25.4173C57.7681 25.4173 60.1612 25.7369 63.0437 27.3789C64.7923 28.3622 66.1649 28.7014 69.3279 29.6798H69.3458C70.8676 30.3484 71.7628 30.9875 72.1984 31.6414V30.9974C72.4126 31.3548 72.5319 31.7458 72.5483 32.1442C72.5648 32.5426 72.4781 32.9394 72.2939 33.308C71.5599 34.837 69.2145 36.4741 65.9441 37.4525V37.4623C64.3447 38.126 62.9541 39.0994 61.3189 39.7484C59.6718 40.4121 57.8098 41.184 55.2794 41.0611C54.3705 41.0998 53.4613 40.9878 52.6058 40.7317C51.9448 40.4354 51.3034 40.1105 50.6842 39.7582C49.5204 39.0945 48.5178 38.126 47.0318 37.4721V37.4476H47.002C44.6148 36.2381 43.3258 34.9304 42.908 33.9521C42.4962 32.6345 42.8782 31.6463 44.0598 31.0023C45.3966 30.3386 46.3276 29.67 46.9423 29.3504C47.563 28.9866 47.7957 28.8489 47.9926 28.7064H48.0046V28.6916C49.0132 27.6985 50.6066 26.3859 53.0116 25.7369C53.8412 25.5599 54.7662 25.4173 55.7927 25.4173ZM72.4968 35.953C74.6393 42.9194 79.6404 53.0372 82.8571 57.9437C84.5639 60.569 87.9596 66.0998 89.4337 72.8106C90.3647 72.786 91.3971 72.8991 92.4952 73.1252C96.3505 64.9101 89.2367 56.0804 85.9962 53.6271C84.6773 52.639 84.6116 51.9802 85.2621 51.9802C88.7772 54.6055 93.4083 59.7086 95.0853 65.5345C95.8551 68.1647 96.0342 70.9621 95.2106 73.7447C95.6104 73.8824 96.0163 74.0446 96.434 74.0741C102.593 76.6994 104.867 78.6856 103.775 81.6305V81.4191C103.41 81.4043 103.058 81.4191 102.694 81.4191H102.605C103.506 79.1232 101.519 77.3631 96.249 75.4015C90.7884 73.435 86.4259 73.7496 85.6799 77.6876C85.6381 77.899 85.6083 78.0121 85.5784 78.3513C85.1726 78.4644 84.7489 78.6119 84.3311 78.6659C81.7649 79.9835 80.3804 81.9549 79.5986 84.5016C78.8228 87.122 78.5841 90.1849 78.3752 93.6902V93.7049C78.2499 95.347 77.3547 97.8248 76.4714 100.347C67.5196 105.617 55.1064 107.908 44.5492 101.989C43.887 101.035 43.0809 100.155 42.1501 99.3685C41.7058 98.7566 41.1526 98.2031 40.5089 97.7265C41.5951 97.7265 42.5261 97.5839 43.284 97.3971C44.1422 97.0691 44.8135 96.4809 45.1579 95.755C45.8024 94.4424 45.1579 92.3284 43.099 90.0374C41.0401 87.7414 37.5429 85.1456 32.4284 82.5597C28.6686 80.598 26.544 78.2825 25.5653 75.6965C24.5806 73.0712 24.7119 70.3623 25.4758 67.6091C26.9379 62.3487 30.6858 57.2357 33.0789 54.0254C33.7175 53.7058 33.2997 54.6891 30.644 58.8139C28.2807 62.506 23.8346 71.0899 29.9159 77.7613C30.1455 72.8937 31.4541 68.1017 33.7771 63.622C37.143 57.339 44.1792 46.3953 44.7342 37.7229C45.0206 37.8999 46.0292 38.3866 46.4589 38.716C47.7599 39.3698 48.7267 40.3531 49.98 41.0021C51.2392 41.9902 52.8266 42.649 55.2078 42.649C55.4406 42.6638 55.6554 42.6785 55.8703 42.6785C58.3231 42.6785 60.2209 42.0197 61.8143 41.3609C63.545 40.7022 64.9236 39.7189 66.2305 39.3944H66.2604C69.0474 38.7307 71.2495 37.4181 72.4968 35.953ZM85.5426 79.9933C85.7634 82.948 87.5896 86.1142 90.8063 86.7631C94.3154 87.4219 99.3643 85.126 101.495 83.0021L102.754 82.9579C104.634 82.9185 106.197 83.007 107.809 84.2705L107.827 84.2853C109.068 85.2636 109.647 86.8958 110.16 88.592C110.667 90.5634 111.079 92.4267 112.601 93.8328C115.501 96.4237 116.45 98.2869 116.397 99.4374L116.415 99.4079V99.4964L116.397 99.4374C116.307 100.725 115.293 101.384 113.425 102.363C109.665 104.334 103.005 105.863 98.7615 110.081C95.0733 113.705 90.5795 115.681 86.6109 115.937C82.6482 116.197 79.2286 114.953 77.2174 111.522L77.1876 111.507C75.9343 109.535 76.4714 106.468 77.5218 103.198C78.5721 99.9142 80.076 96.5859 80.2849 93.8672C80.5057 90.3569 80.7385 87.3039 81.4486 84.949C82.1648 82.6629 83.2868 81.0307 85.2741 80.1113L85.5426 80.0032V79.9933ZM20.9999 80.2342H21.0596C21.3759 80.2342 21.6862 80.2588 21.9965 80.3031C24.2404 80.5735 26.2098 81.9402 28.1017 84.0001L33.5324 92.1809L33.5504 92.1956C35.0005 94.816 38.0501 97.4266 40.6462 100.249C43.2362 103.189 45.2414 105.809 44.9968 107.967V107.997C44.6566 111.654 42.1381 113.641 38.2829 114.358C34.4336 115.022 29.2117 114.368 23.9898 112.077C18.2129 109.442 11.3498 109.771 6.93953 109.118C4.73738 108.793 3.29315 108.129 2.62474 107.146C1.96231 106.168 1.95037 104.191 3.35879 101.099V101.084L3.37073 101.07C4.06897 99.4275 3.54977 97.3676 3.2096 95.5682C2.88136 93.5968 2.71426 92.0826 3.46622 90.9469C4.42108 89.3048 5.8295 88.9853 7.57809 88.3265C9.33862 87.6628 11.4035 87.3334 13.0447 86.0207H13.0566V86.006C14.5844 84.6884 15.7123 83.0513 17.0432 81.8861C18.1771 80.8979 19.311 80.2342 20.9999 80.2342ZM63.724 35.6236C61.128 36.6118 58.0844 38.2538 54.8438 38.2538C51.6092 38.2538 49.0549 36.9412 47.2109 35.9628C46.2858 35.304 45.5398 34.6453 44.9789 34.3159C44.0001 33.6571 44.1195 32.6738 44.5372 32.6738C45.1877 32.7525 45.3071 33.3375 45.7248 33.662C46.2978 33.9865 47.0079 34.6403 47.8793 35.2991C49.6159 36.2824 51.9374 37.595 54.8378 37.595C57.7322 37.595 61.122 36.2824 63.1809 35.304C64.3447 34.6403 65.8366 33.662 67.0481 33.0081C67.9791 32.3346 67.9373 31.6906 68.7132 31.6906C69.483 31.7692 68.9161 32.3493 67.8359 33.3277C66.5121 34.1524 65.1377 34.9203 63.718 35.6285V35.6236H63.724ZM57.2668 27.8362V27.728C57.2309 27.6346 57.3443 27.5215 57.4398 27.4822C57.8814 27.2708 58.514 27.3495 58.9915 27.5019C59.3675 27.5019 59.9463 27.8313 59.8867 28.1656C59.8508 28.4065 59.3794 28.49 59.081 28.49C58.7528 28.49 58.5319 28.2786 58.2395 28.1557C57.9292 28.0672 57.3682 28.1164 57.2668 27.8362ZM53.9784 27.8362C53.8591 28.1213 53.3041 28.0771 52.9878 28.1606C52.7073 28.2836 52.4745 28.495 52.1582 28.495C51.8539 28.495 51.3764 28.4015 51.3406 28.1606C51.2869 27.8362 51.8658 27.5068 52.2358 27.5068C52.7192 27.3544 53.3339 27.2757 53.7815 27.4822C53.8949 27.5264 53.9963 27.6297 53.9605 27.728V27.8313H53.9784V27.8362Z"/>
</mask>
<path d="M62.1306 0L62.1319 -1H62.1306V0ZM59.272 0.103243L59.3367 1.10114L59.3371 1.10112L59.272 0.103243ZM40.3537 31.0662L41.3501 31.1514L41.3515 31.1348L41.3524 31.1182L40.3537 31.0662ZM34.0815 45.9184L34.7808 46.6332L34.8128 46.6019L34.8418 46.568L34.0815 45.9184ZM17.8727 68.145L18.7994 68.5209L18.8 68.5194L17.8727 68.145ZM16.1599 80.3817L16.7105 81.2165L17.2641 80.8514L17.1431 80.1994L16.1599 80.3817ZM15.4975 81.0454L16.1448 81.8077L16.261 81.709L16.3425 81.5802L15.4975 81.0454ZM11.5467 85.1702L12.1826 85.942L12.2038 85.9246L12.224 85.906L11.5467 85.1702ZM6.79033 87.1367L6.45899 86.1932L6.45333 86.1952L6.79033 87.1367ZM1.63407 90.4848L0.77921 89.9659L0.774257 89.9741L0.769461 89.9823L1.63407 90.4848ZM0.84631 93.4395H1.84631V93.4278L1.84604 93.4161L0.84631 93.4395ZM1.17454 96.0746L2.15933 95.9008L2.15307 95.8654L2.14428 95.8304L1.17454 96.0746ZM1.40729 100.843L2.32169 101.248L2.33116 101.227L2.33963 101.205L1.40729 100.843ZM0.780664 108.144L-0.0680919 108.673L-0.0645157 108.679L0.780664 108.144ZM6.38451 111.099L6.1246 112.064L6.15479 112.073L6.18542 112.079L6.38451 111.099ZM22.9454 114.044L22.5412 114.958L22.5514 114.963L22.5617 114.967L22.9454 114.044ZM38.5574 116.354L38.3802 115.37L38.3609 115.374L38.3418 115.378L38.5574 116.354ZM45.7666 111.708L45.7624 110.708L45.1987 110.711L44.9089 111.194L45.7666 111.708ZM59.2541 110.066L59.306 111.065L59.3141 111.065L59.3223 111.064L59.2541 110.066ZM74.6393 111.045L75.6149 110.825L75.4292 109.999L74.5836 110.046L74.6393 111.045ZM75.3196 112.687L74.4106 113.104L74.5064 113.312L74.6837 113.459L75.3196 112.687ZM75.3375 112.702L76.1912 112.181L76.1035 112.037L75.9735 111.93L75.3375 112.702ZM86.581 117.967L86.5171 116.969L86.516 116.969L86.581 117.967ZM100.051 111.546L100.741 112.27L100.749 112.262L100.757 112.254L100.051 111.546ZM114.242 104.157L113.816 103.252L113.807 103.257L113.797 103.261L114.242 104.157ZM118.115 99.9634L117.118 99.8938L117.117 99.9003L118.115 99.9634ZM113.854 93.1936H112.854V93.6378L113.184 93.9355L113.854 93.1936ZM113.854 92.7168H114.854V92.2447L114.49 91.9447L113.854 92.7168ZM113.836 92.702L113.14 93.4201L113.17 93.4483L113.201 93.474L113.836 92.702ZM111.819 88.1495L110.851 88.3987L110.853 88.4059L110.855 88.4131L111.819 88.1495ZM108.883 83.007L109.451 82.1843L109.195 82.007H108.883V83.007ZM108.865 83.007L108.263 83.8055L108.53 84.007H108.865V83.007ZM107.743 82.3433L108.396 81.5858L108.324 81.5238L108.242 81.4765L107.743 82.3433ZM106.609 82.0287L105.684 81.6498L105.139 82.9804L106.576 83.0281L106.609 82.0287ZM105.577 63.8678L104.668 64.2849L104.67 64.2885L105.577 63.8678ZM92.5967 46.7443L91.8758 47.4374L91.886 47.448L91.8966 47.4584L92.5967 46.7443ZM83.2808 30.1812L82.2809 30.166L82.2809 30.1684L83.2808 30.1812ZM65.2876 16.74L65.2873 17.74H65.2876V16.74ZM68.8504 17.7135L68.3385 18.5726L68.3472 18.5777L68.8504 17.7135ZM71.4703 20.3339L72.3676 19.8923L72.34 19.8362L72.3056 19.784L71.4703 20.3339ZM72.461 23.8933L71.4617 23.9299L73.461 23.8933H72.461ZM72.4968 24.1145L71.566 24.48L73.4968 24.1145H72.4968ZM72.4729 24.0113L73.47 23.9342L73.4652 23.8731L73.4531 23.813L72.4729 24.0113ZM72.4491 23.8933L73.4292 23.695L71.4491 23.8832L72.4491 23.8933ZM71.5539 27.3642L70.6696 26.8972L70.6553 26.9243L70.6427 26.9522L71.5539 27.3642ZM70.2827 29.0112L69.861 29.9179L70.438 30.1863L70.9255 29.7772L70.2827 29.0112ZM69.7575 28.8047L69.4246 29.7476L69.4362 29.7517L69.4478 29.7555L69.7575 28.8047ZM68.0567 28.1508L68.6081 27.3166L68.4964 27.2427L68.3692 27.2009L68.0567 28.1508ZM66.7497 27.8263L66.0455 27.1164L64.6672 28.4835L66.5806 28.8119L66.7497 27.8263ZM67.8359 26.8529L68.6586 27.4214L68.6981 27.3641L68.7294 27.302L67.8359 26.8529ZM68.3611 24.8765L69.3597 24.9293L69.3611 24.9029V24.8765H68.3611ZM68.3611 24.7831L67.3613 24.7629L67.3611 24.773V24.7831H68.3611ZM67.997 22.8166L68.9251 22.4441L68.924 22.4415L67.997 22.8166ZM66.9049 21.1746L67.7055 20.5754L67.5984 20.4322L67.4483 20.3351L66.9049 21.1746ZM63.6524 21.1746L64.2787 21.9541L64.3165 21.9237L64.3513 21.8898L63.6524 21.1746ZM62.429 22.8166L63.3207 23.2691L63.3449 23.2214L63.3639 23.1715L62.429 22.8166ZM61.8919 24.7831L60.8935 24.7265L60.8919 24.7548V24.7831H61.8919ZM61.8919 24.8765H60.8919V24.8902L60.8922 24.9038L61.8919 24.8765ZM62.0112 26.1892L61.7363 27.1507L63.2559 27.5853L62.9978 26.0259L62.0112 26.1892ZM58.3887 25.1961L57.4054 25.3782L57.5136 25.9623L58.0783 26.1467L58.3887 25.1961ZM58.2813 24.2178H57.2813V24.2354L57.2819 24.253L58.2813 24.2178ZM58.2813 24.1194H59.2813V24.1011L59.2806 24.0827L58.2813 24.1194ZM59.1765 20.3388L60.058 20.811L60.0734 20.7822L60.0869 20.7526L59.1765 20.3388ZM61.7427 17.7184L62.2099 18.6026L62.241 18.5861L62.271 18.5675L61.7427 17.7184ZM50.2067 17.6938L50.7952 16.8853L50.7458 16.8493L50.6924 16.8197L50.2067 17.6938ZM52.2597 19.9799L51.383 20.4609L51.3831 20.4611L52.2597 19.9799ZM53.1728 23.2591H54.1728V23.2317L54.1713 23.2044L53.1728 23.2591ZM53.1728 23.2787H52.1728V23.3104L52.1748 23.342L53.1728 23.2787ZM53.1608 24.5865L52.1718 24.4387L52.1608 24.5122V24.5865H53.1608ZM53.1608 24.9798L53.3496 25.9618L54.1608 25.8059V24.9798H53.1608ZM52.6655 25.0978L52.4854 24.1141L52.432 24.1239L52.3798 24.1395L52.6655 25.0978ZM50.3201 26.081L49.3333 25.9195L49.0325 27.757L50.7305 26.993L50.3201 26.081ZM50.338 24.7684H49.338V24.837L49.3474 24.905L50.338 24.7684ZM50.338 24.6946H51.338V24.64L51.3321 24.5858L50.338 24.6946ZM49.8487 23.0575L48.9112 23.4057L48.914 23.4131L48.9169 23.4205L49.8487 23.0575ZM48.858 21.7449L49.4708 20.9546L49.4642 20.9495L49.4576 20.9445L48.858 21.7449ZM47.7659 21.4302V22.4302H47.7927L47.8195 22.4288L47.7659 21.4302ZM47.6405 21.4302V20.4302H47.6058L47.5711 20.4326L47.6405 21.4302ZM46.5305 22.0792L47.2376 22.7863L47.2885 22.7354L47.3317 22.6776L46.5305 22.0792ZM45.8144 23.4066L46.7709 23.6982L46.7881 23.6418L46.7985 23.5838L45.8144 23.4066ZM45.6771 25.0339H46.6771V24.9688L46.6687 24.9042L45.6771 25.0339ZM45.6771 25.1027H44.6771V25.1565L44.6829 25.21L45.6771 25.1027ZM46.1605 26.7447L45.2325 27.1174L45.2345 27.1222L46.1605 26.7447ZM47.1452 28.0623L46.5094 28.8341L46.5465 28.8647L46.5863 28.8915L47.1452 28.0623ZM47.3481 28.1803L47.9052 29.0108L49.5117 27.9331L47.7035 27.2456L47.3481 28.1803ZM46.2978 28.8489L46.8859 29.6577L46.9328 29.6236L46.9754 29.5843L46.2978 28.8489ZM45.516 29.1832L44.8117 29.8932L45.1884 30.2668L45.709 30.1644L45.516 29.1832ZM43.8748 27.2069L42.9972 27.6862L43.0195 27.7271L43.0456 27.7658L43.8748 27.2069ZM42.9498 23.9277L43.9489 23.8866L43.948 23.8628L43.9458 23.839L42.9498 23.9277ZM43.4272 20.6436L44.3585 21.0078L44.3667 20.9869L44.3739 20.9658L43.4272 20.6436ZM45.1161 18.0134L44.4658 17.2537L44.4406 17.2753L44.4168 17.2986L45.1161 18.0134ZM63.0437 27.3789L62.5487 28.2479L62.5535 28.2506L63.0437 27.3789ZM69.3279 29.6798L69.0324 30.6351L69.1767 30.6798H69.3279V29.6798ZM69.3458 29.6798L69.748 28.7643L69.5558 28.6798H69.3458V29.6798ZM72.1984 31.6414L71.3662 32.1959L73.1984 34.9458V31.6414H72.1984ZM72.1984 30.9974L73.0562 30.4834L71.1984 27.3823V30.9974H72.1984ZM72.2939 33.308L71.3993 32.8611L71.3958 32.8682L71.3924 32.8752L72.2939 33.308ZM65.9441 37.4525L65.6575 36.4944L64.9441 36.7078V37.4525H65.9441ZM65.9441 37.4623L66.3273 38.3859L66.9441 38.13V37.4623H65.9441ZM61.3189 39.7484L60.9501 38.8189L60.9452 38.8209L61.3189 39.7484ZM55.2794 41.0611L55.328 40.0622L55.2824 40.06L55.2368 40.062L55.2794 41.0611ZM52.6058 40.7317L52.1968 41.6442L52.2564 41.6709L52.319 41.6896L52.6058 40.7317ZM50.6842 39.7582L50.1888 40.6269L50.1897 40.6274L50.6842 39.7582ZM47.0318 37.4721H46.0318V38.1247L46.6291 38.3875L47.0318 37.4721ZM47.0318 37.4476H48.0318V36.4476H47.0318V37.4476ZM47.002 37.4476L46.55 38.3396L46.7631 38.4476H47.002V37.4476ZM42.908 33.9521L41.9535 34.2504L41.9686 34.2984L41.9883 34.3448L42.908 33.9521ZM44.0598 31.0023L43.6151 30.1066L43.598 30.1151L43.5812 30.1242L44.0598 31.0023ZM46.9423 29.3504L47.4036 30.2377L47.4261 30.2259L47.448 30.2131L46.9423 29.3504ZM47.9926 28.7064V27.7064H47.6687L47.4062 27.8963L47.9926 28.7064ZM48.0046 28.7064V29.7064H49.0046V28.7064H48.0046ZM48.0046 28.6916L47.303 27.9791L47.0046 28.2729V28.6916H48.0046ZM53.0116 25.7369L52.803 24.7589L52.7769 24.7645L52.7511 24.7714L53.0116 25.7369ZM72.4968 35.953L73.4526 35.659L72.9169 33.917L71.7354 35.3048L72.4968 35.953ZM82.8571 57.9437L83.6955 57.3986L83.6934 57.3954L82.8571 57.9437ZM89.4337 72.8106L88.457 73.0251L88.6342 73.8321L89.4601 73.8103L89.4337 72.8106ZM92.4952 73.1252L92.2935 74.1047L93.0656 74.2637L93.4005 73.5501L92.4952 73.1252ZM85.9962 53.6271L86.5998 52.8298L86.5958 52.8269L85.9962 53.6271ZM85.2621 51.9802L85.8605 51.179L85.5943 50.9802H85.2621V51.9802ZM95.0853 65.5345L94.1243 65.8111L94.1255 65.8154L95.0853 65.5345ZM95.2106 73.7447L94.2517 73.4609L93.9801 74.3787L94.8851 74.6902L95.2106 73.7447ZM96.434 74.0741L96.8261 73.1542L96.6718 73.0884L96.5045 73.0766L96.434 74.0741ZM103.775 81.6305H102.775L104.712 81.9782L103.775 81.6305ZM103.775 81.4191H104.775V80.4588L103.815 80.4199L103.775 81.4191ZM102.605 81.4191L101.674 81.0537L101.138 82.4191H102.605V81.4191ZM96.249 75.4015L96.5979 74.4643L96.5878 74.4607L96.249 75.4015ZM85.6799 77.6876L86.6609 77.8815L86.6624 77.8737L85.6799 77.6876ZM85.5784 78.3513L85.8468 79.3146L86.5139 79.1287L86.5746 78.4389L85.5784 78.3513ZM84.3311 78.6659L84.2028 77.6742L84.0297 77.6966L83.8744 77.7763L84.3311 78.6659ZM79.5986 84.5016L78.6426 84.2081L78.6397 84.2177L79.5986 84.5016ZM78.3752 93.6902L77.377 93.6307L77.3752 93.6604V93.6902H78.3752ZM78.3752 93.7049L79.3723 93.781L79.3752 93.743V93.7049H78.3752ZM76.4714 100.347L76.9788 101.209L77.2942 101.023L77.4152 100.677L76.4714 100.347ZM44.5492 101.989L43.7278 102.559L43.8592 102.749L44.0601 102.861L44.5492 101.989ZM42.1501 99.3685L41.3409 99.9561L41.4121 100.054L41.5047 100.132L42.1501 99.3685ZM40.5089 97.7265V96.7265H37.4782L39.9138 98.5301L40.5089 97.7265ZM43.284 97.3971L43.5233 98.368L43.5833 98.3533L43.6409 98.3312L43.284 97.3971ZM45.1579 95.755L44.2602 95.3142L44.2544 95.3264L45.1579 95.755ZM43.099 90.0374L42.3545 90.705L42.3552 90.7058L43.099 90.0374ZM32.4284 82.5597L31.9658 83.4463L31.9772 83.4521L32.4284 82.5597ZM25.5653 75.6965L24.629 76.0477L24.6301 76.0505L25.5653 75.6965ZM25.4758 67.6091L24.5123 67.3413L24.5122 67.3418L25.4758 67.6091ZM33.0789 54.0254L32.6314 53.1311L32.419 53.2374L32.2771 53.4277L33.0789 54.0254ZM30.644 58.8139L29.8032 58.2725L29.8018 58.2748L30.644 58.8139ZM29.9159 77.7613L29.1769 78.435L30.8012 80.2169L30.9148 77.8085L29.9159 77.7613ZM33.7771 63.622L32.8956 63.1498L32.8894 63.1617L33.7771 63.622ZM44.7342 37.7229L45.2598 36.8722L43.8426 35.9966L43.7362 37.659L44.7342 37.7229ZM46.4589 38.716L45.8505 39.5096L45.9255 39.5671L46.0098 39.6095L46.4589 38.716ZM49.98 41.0021L50.5973 40.2154L50.5233 40.1573L50.4398 40.114L49.98 41.0021ZM55.2078 42.649L55.2711 41.651L55.2395 41.649H55.2078V42.649ZM61.8143 41.3609L61.4585 40.4264L61.4453 40.4314L61.4322 40.4368L61.8143 41.3609ZM66.2305 39.3944V38.3944H66.1082L65.9896 38.4239L66.2305 39.3944ZM66.2604 39.3944V40.3944H66.3778L66.492 40.3672L66.2604 39.3944ZM85.5426 79.9933L86.5398 79.9188L84.5426 79.9933H85.5426ZM90.8063 86.7631L90.6085 87.7434L90.6218 87.7459L90.8063 86.7631ZM101.495 83.0021L101.46 82.0027L101.067 82.0165L100.789 82.2939L101.495 83.0021ZM102.754 82.9579L102.733 81.9581L102.726 81.9582L102.719 81.9585L102.754 82.9579ZM107.809 84.2705L108.444 83.4985L108.435 83.4909L108.426 83.4836L107.809 84.2705ZM107.827 84.2853L107.191 85.0573L107.199 85.0641L107.208 85.0707L107.827 84.2853ZM110.16 88.592L111.129 88.3428L111.123 88.3224L111.117 88.3023L110.16 88.592ZM112.601 93.8328L111.922 94.5673L111.929 94.5729L111.935 94.5785L112.601 93.8328ZM116.415 99.4079H117.415V95.833L115.56 98.889L116.415 99.4079ZM116.415 99.4964L115.458 99.7868L117.415 99.4964H116.415ZM113.425 102.363L112.961 101.477L112.96 101.477L113.425 102.363ZM98.7615 110.081L99.4623 110.795L99.4665 110.79L98.7615 110.081ZM86.6109 115.937L86.5466 114.939L86.5453 114.939L86.6109 115.937ZM77.2174 111.522L78.0802 111.016L77.9288 110.758L77.6605 110.625L77.2174 111.522ZM77.1876 111.507L76.3437 112.043L76.4937 112.279L76.7444 112.403L77.1876 111.507ZM77.5218 103.198L78.4738 103.504L78.4742 103.503L77.5218 103.198ZM80.2849 93.8672L81.2821 93.9438L81.2829 93.93L80.2849 93.8672ZM81.4486 84.949L80.4943 84.65L80.4912 84.6603L81.4486 84.949ZM85.2741 80.1113L84.9005 79.1837L84.8771 79.1932L84.8542 79.2037L85.2741 80.1113ZM85.5426 80.0032L85.9162 80.9308L86.5426 80.6785V80.0032H85.5426ZM21.9965 80.3031L21.8554 81.2931L21.8661 81.2946L21.8769 81.2959L21.9965 80.3031ZM28.1017 84.0001L28.9348 83.4471L28.8913 83.3816L28.8382 83.3237L28.1017 84.0001ZM33.5324 92.1809L32.6993 92.734L32.7817 92.858L32.8966 92.9527L33.5324 92.1809ZM33.5504 92.1956L34.4253 91.7114L34.3331 91.5448L34.1862 91.4238L33.5504 92.1956ZM40.6462 100.249L41.3965 99.5875L41.3894 99.5794L41.3821 99.5715L40.6462 100.249ZM44.9968 107.967L44.0031 107.855L43.9968 107.911V107.967H44.9968ZM44.9968 107.997L45.9925 108.089L45.9968 108.043V107.997H44.9968ZM38.2829 114.358L38.4528 115.344L38.4659 115.341L38.2829 114.358ZM23.9898 112.077L23.5748 112.987L23.5814 112.99L23.588 112.993L23.9898 112.077ZM6.93953 109.118L7.08619 108.128L7.0853 108.128L6.93953 109.118ZM2.62474 107.146L1.7967 107.707L1.79773 107.708L2.62474 107.146ZM3.35879 101.099L4.26885 101.514L4.35879 101.316V101.099H3.35879ZM3.35879 101.084L2.58144 100.455L2.35879 100.73V101.084H3.35879ZM3.37073 101.07L4.14808 101.699L4.23618 101.59L4.29098 101.461L3.37073 101.07ZM3.2096 95.5682L2.22317 95.7325L2.22497 95.7432L2.227 95.754L3.2096 95.5682ZM3.46622 90.9469L4.30001 91.499L4.31606 91.4747L4.33068 91.4496L3.46622 90.9469ZM7.57809 88.3265L7.93065 89.2623L7.93085 89.2622L7.57809 88.3265ZM13.0447 86.0207V85.0207H12.694L12.4201 85.2398L13.0447 86.0207ZM13.0566 86.0207V87.0207H14.0566V86.0207H13.0566ZM13.0566 86.006L12.4035 85.2487L12.0566 85.5479V86.006H13.0566ZM17.0432 81.8861L16.3862 81.1322L16.3844 81.1337L17.0432 81.8861ZM63.724 35.6236L64.0798 36.5582L63.724 34.6236V35.6236ZM47.2109 35.9628L46.6308 36.7774L46.6842 36.8155L46.7422 36.8462L47.2109 35.9628ZM44.9789 34.3159L44.4205 35.1454L44.446 35.1626L44.4725 35.1782L44.9789 34.3159ZM44.5372 32.6738L44.6573 31.6811L44.5975 31.6738H44.5372V32.6738ZM45.7248 33.662L45.1114 34.4518L45.1688 34.4963L45.232 34.5321L45.7248 33.662ZM47.8793 35.2991L47.2762 36.0968L47.329 36.1367L47.3866 36.1693L47.8793 35.2991ZM63.1809 35.304L63.6101 36.2073L63.6439 36.1912L63.6763 36.1727L63.1809 35.304ZM67.0481 33.0081L67.5231 33.8881L67.581 33.8569L67.6343 33.8183L67.0481 33.0081ZM68.7132 31.6906L68.8148 30.6957L68.7641 30.6906H68.7132V31.6906ZM67.8359 33.3277L68.3647 34.1765L68.4407 34.1291L68.5072 34.0689L67.8359 33.3277ZM63.718 35.6285H62.718V37.2449L64.1644 36.5234L63.718 35.6285ZM63.718 35.6236V34.6236H62.718V35.6236H63.718ZM57.2668 27.8362H56.2668V28.0116L56.3265 28.1766L57.2668 27.8362ZM57.2668 27.728H58.2668V27.5429L58.2005 27.3701L57.2668 27.728ZM57.4398 27.4822L57.8207 28.4068L57.8464 28.3962L57.8716 28.3842L57.4398 27.4822ZM58.9915 27.5019L58.6874 28.4545L58.8357 28.5019H58.9915V27.5019ZM59.8867 28.1656L58.9022 27.9898L58.8997 28.0041L58.8975 28.0185L59.8867 28.1656ZM58.2395 28.1557L58.627 27.2338L58.5716 27.2106L58.5137 27.1941L58.2395 28.1557ZM53.9784 27.8362L54.9009 28.2223L54.9784 28.037V27.8362H53.9784ZM52.9878 28.1606L52.7323 27.1938L52.6574 27.2136L52.5864 27.2447L52.9878 28.1606ZM51.3406 28.1606L52.3298 28.0136L52.3286 28.0055L52.3272 27.9973L51.3406 28.1606ZM52.2358 27.5068V28.5068H52.3897L52.5365 28.4605L52.2358 27.5068ZM53.7815 27.4822L53.3626 28.3902L53.3899 28.4028L53.418 28.4138L53.7815 27.4822ZM53.9605 27.728L53.0209 27.3858L52.9605 27.5516V27.728H53.9605ZM53.9605 27.8313H52.9605V28.8313H53.9605V27.8313ZM53.9784 27.8313H54.9784V26.8313H53.9784V27.8313ZM62.1306 -1C61.1779 -1 60.2004 -0.959516 59.2068 -0.894632L59.3371 1.10112C60.301 1.03818 61.2332 1 62.1306 1V-1ZM59.2072 -0.894658C52.7563 -0.476006 48.224 1.25279 45.0921 3.82874C41.9544 6.40951 40.3222 9.75855 39.5219 13.2248C38.7252 16.6751 38.7441 20.2765 38.9251 23.4234C39.0153 24.993 39.1488 26.4867 39.2444 27.7725C39.3417 29.0815 39.3992 30.1687 39.3551 31.0141L41.3524 31.1182C41.4038 30.1311 41.3358 28.9274 41.2389 27.6242C41.1403 26.2976 41.0108 24.8575 40.9218 23.3086C40.7441 20.2185 40.7387 16.8443 41.4706 13.6748C42.1988 10.5212 43.6478 7.60628 46.3626 5.37337C49.0832 3.13564 53.1745 1.50106 59.3367 1.10114L59.2072 -0.894658ZM39.3574 30.981C38.9136 36.1708 37.6523 40.1996 33.3212 45.2688L34.8418 46.568C39.4745 41.1457 40.8749 36.7086 41.3501 31.1514L39.3574 30.981ZM33.3822 45.2036C28.0784 50.3923 20.5411 58.8643 16.9454 67.7707L18.8 68.5194C22.2345 60.0122 29.5214 51.7785 34.7808 46.6332L33.3822 45.2036ZM16.946 67.7692C15.2436 71.9664 14.3962 76.3563 15.1767 80.5641L17.1431 80.1994C16.4555 76.4919 17.1836 72.5044 18.7994 68.5209L16.946 67.7692ZM15.6094 79.5469C15.2265 79.7994 14.8968 80.1247 14.6525 80.5107L16.3425 81.5802C16.4231 81.4527 16.5446 81.3259 16.7105 81.2165L15.6094 79.5469ZM14.8502 80.2832C14.0146 80.9927 13.3037 81.7792 12.6667 82.5019C12.0132 83.2434 11.4565 83.8941 10.8695 84.4345L12.224 85.906C12.9081 85.2762 13.551 84.5234 14.1671 83.8244C14.7998 83.1066 15.4287 82.4157 16.1448 81.8077L14.8502 80.2832ZM10.9109 84.3984C10.451 84.7773 9.85664 85.0588 9.08605 85.3331C8.70278 85.4695 8.29607 85.5975 7.85188 85.7373C7.41344 85.8753 6.94236 86.0235 6.459 86.1932L7.12166 88.0803C7.56929 87.9231 8.00981 87.7843 8.45218 87.6451C8.88882 87.5077 9.33216 87.3684 9.7568 87.2172C10.602 86.9164 11.4549 86.5415 12.1826 85.942L10.9109 84.3984ZM6.45333 86.1952C4.66477 86.8354 2.22492 87.584 0.77921 89.9659L2.48893 91.0036C3.50199 89.3345 5.17999 88.7753 7.12733 88.0783L6.45333 86.1952ZM0.769461 89.9823C0.147051 91.0534 -0.181922 92.2417 -0.153417 93.4628L1.84604 93.4161C1.8268 92.592 2.04687 91.7647 2.49868 90.9872L0.769461 89.9823ZM-0.15369 93.4395C-0.15369 94.5139 0.0212862 95.5898 0.204808 96.3188L2.14428 95.8304C1.9936 95.232 1.84631 94.3217 1.84631 93.4395H-0.15369ZM0.189759 96.2484C0.368031 97.2587 0.529676 98.0959 0.59712 98.8405C0.66446 99.584 0.621876 100.103 0.474959 100.482L2.33963 101.205C2.65224 100.399 2.66635 99.5144 2.58897 98.6601C2.51169 97.8069 2.3272 96.8521 2.15933 95.9008L0.189759 96.2484ZM0.492895 100.439C-1.0134 103.841 -1.38655 106.557 -0.0680729 108.673L1.6294 107.615C0.871051 106.398 0.867915 104.532 2.32169 101.248L0.492895 100.439ZM-0.0645157 108.679C0.594197 109.72 1.57802 110.402 2.64518 110.9C3.70383 111.394 4.92422 111.741 6.1246 112.064L6.64442 110.133C5.43378 109.807 4.37145 109.498 3.49054 109.088C2.61813 108.681 2.00554 108.21 1.62584 107.61L-0.0645157 108.679ZM6.18542 112.079C8.66134 112.582 11.6238 112.759 14.4313 113.078C17.3016 113.404 20.1056 113.882 22.5412 114.958L23.3496 113.129C20.623 111.924 17.5665 111.421 14.6569 111.091C11.6845 110.753 8.94764 110.599 6.5836 110.119L6.18542 112.079ZM22.5617 114.967C28.1825 117.302 34.0153 118.381 38.773 117.331L38.3418 115.378C34.1477 116.304 28.7608 115.377 23.3291 113.12L22.5617 114.967ZM38.7347 117.339C42.1103 116.731 45.0325 114.878 46.6243 112.223L44.9089 111.194C43.66 113.278 41.2827 114.847 38.3802 115.37L38.7347 117.339ZM45.7708 112.708C47.6235 112.701 49.5519 112.351 51.6868 111.988C53.8451 111.62 56.2936 111.222 59.306 111.065L59.2021 109.068C56.0676 109.231 53.5239 109.646 51.3511 110.016C49.1548 110.39 47.4129 110.702 45.7624 110.708L45.7708 112.708ZM59.3223 111.064C61.2882 110.93 63.5213 111.239 66.14 111.566C68.7183 111.889 71.6007 112.216 74.695 112.043L74.5836 110.046C71.6861 110.208 68.9616 109.903 66.3881 109.582C63.8551 109.265 61.3915 108.918 59.1859 109.069L59.3223 111.064ZM73.6636 111.264C73.8435 112.064 74.1692 112.577 74.4106 113.104L76.2286 112.27C75.8613 111.469 75.7335 111.353 75.6149 110.825L73.6636 111.264ZM74.6837 113.459L74.7016 113.473L75.9735 111.93L75.9556 111.915L74.6837 113.459ZM74.4838 113.222C77.0541 117.435 81.7643 119.283 86.6461 118.965L86.516 116.969C82.1953 117.251 78.2878 115.617 76.1912 112.181L74.4838 113.222ZM86.645 118.965C91.5242 118.652 96.6365 116.185 100.741 112.27L99.3603 110.823C95.5273 114.479 90.8403 116.692 86.5171 116.969L86.645 118.965ZM100.757 112.254C102.504 110.509 104.874 109.237 107.404 108.13C108.666 107.578 109.936 107.079 111.178 106.579C112.409 106.084 113.611 105.587 114.687 105.053L113.797 103.261C112.799 103.757 111.662 104.229 110.431 104.724C109.211 105.215 107.899 105.73 106.602 106.298C104.015 107.43 101.363 108.822 99.3439 110.839L100.757 112.254ZM114.668 105.062C116.766 104.074 118.955 102.524 119.113 100.027L117.117 99.9003C117.037 101.178 115.873 102.284 113.816 103.252L114.668 105.062ZM119.113 100.033C119.287 97.542 117.589 95.2207 114.525 92.4517L113.184 93.9355C116.267 96.722 117.218 98.4518 117.118 99.8938L119.113 100.033ZM114.854 93.1936V92.7168H112.854V93.1936H114.854ZM114.49 91.9447L114.472 91.93L113.201 93.474L113.219 93.4888L114.49 91.9447ZM114.532 91.9839C114.166 91.6292 113.858 91.1154 113.572 90.4046C113.285 89.6919 113.049 88.8548 112.784 87.886L110.855 88.4131C111.115 89.3665 111.38 90.314 111.717 91.1512C112.054 91.9903 112.492 92.7915 113.14 93.4201L114.532 91.9839ZM112.788 87.9003C112.282 85.9349 111.636 83.6938 109.451 82.1843L108.315 83.8298C109.83 84.8767 110.342 86.4212 110.851 88.3987L112.788 87.9003ZM108.883 82.007H108.865V84.007H108.883V82.007ZM109.467 82.2086C109.195 82.003 108.905 81.8745 108.753 81.8008C108.582 81.7182 108.487 81.6644 108.396 81.5858L107.09 83.1008C107.387 83.3566 107.677 83.5019 107.882 83.6012C108.106 83.7094 108.184 83.7456 108.263 83.8055L109.467 82.2086ZM108.242 81.4765C107.758 81.1982 107.203 81.0479 106.642 81.0292L106.576 83.0281C106.829 83.0365 107.061 83.1045 107.245 83.2102L108.242 81.4765ZM107.535 82.4076C110.243 75.7918 109.17 69.2391 106.484 63.4472L104.67 64.2885C107.2 69.7451 108.12 75.6995 105.684 81.6498L107.535 82.4076ZM106.486 63.4508C103.225 56.344 97.5506 50.2008 93.2967 46.0303L91.8966 47.4584C96.1172 51.5964 101.567 57.5276 104.668 64.2849L106.486 63.4508ZM93.3175 46.0512C88.4945 41.0349 84.1974 36.6531 84.2807 30.1941L82.2809 30.1684C82.1851 37.5931 87.1979 42.572 91.8758 47.4374L93.3175 46.0512ZM84.2807 30.1965C84.3601 24.9831 84.7347 17.2101 82.1563 10.7629C80.853 7.50378 78.7837 4.54298 75.5262 2.40451C72.2731 0.268917 67.9176 -0.992436 62.1319 -0.999999L62.1293 0.999999C67.6259 1.00718 71.5754 2.20337 74.4286 4.07643C77.2774 5.94659 79.1156 8.54553 80.2993 11.5055C82.6952 17.4966 82.3626 24.7995 82.2809 30.166L84.2807 30.1965ZM65.2876 17.74H65.3652V15.74H65.2876V17.74ZM65.3652 17.74C66.4512 17.74 67.367 17.9936 68.3385 18.5725L69.3624 16.8544C68.0899 16.0961 66.8215 15.74 65.3652 15.74V17.74ZM68.3472 18.5777C69.3033 19.1344 70.0303 19.9651 70.6351 20.8837L72.3056 19.784C71.6093 18.7263 70.6773 17.62 69.3536 16.8493L68.3472 18.5777ZM70.5731 20.7754C71.1591 21.9662 71.4206 22.8094 71.4617 23.9299L73.4603 23.8567C73.4059 22.3715 73.0348 21.2482 72.3676 19.8923L70.5731 20.7754ZM73.461 23.8933C73.461 23.9282 73.4579 23.9513 73.4573 23.9553C73.4571 23.9572 73.4574 23.9547 73.4623 23.9277C73.4659 23.9084 73.4746 23.8623 73.4815 23.8133C73.4887 23.7618 73.4968 23.6887 73.4968 23.6032H71.4968C71.4968 23.5644 71.5004 23.5386 71.5009 23.535C71.5011 23.5337 71.5009 23.5359 71.4955 23.5651C71.4915 23.5866 71.4828 23.6331 71.4758 23.6839C71.4686 23.7369 71.461 23.8093 71.461 23.8933H73.461ZM71.4968 23.6032V24.1145H73.4968V23.6032H71.4968ZM73.4276 23.749C73.45 23.806 73.4649 23.8683 73.47 23.9342L71.4759 24.0884C71.4864 24.2244 71.5174 24.3562 71.566 24.48L73.4276 23.749ZM73.4531 23.813L73.4292 23.695L71.4689 24.0916L71.4928 24.2096L73.4531 23.813ZM71.4491 23.8832C71.4388 24.9127 71.1768 25.9371 70.6696 26.8972L72.4381 27.8312C73.0884 26.6001 73.4353 25.2635 73.449 23.9033L71.4491 23.8832ZM70.6427 26.9522C70.4306 27.4214 70.0937 27.8644 69.6399 28.2451L70.9255 29.7772C71.5905 29.2192 72.1198 28.5399 72.4651 27.7762L70.6427 26.9522ZM70.7045 28.1045C70.4983 28.0085 70.2854 27.9249 70.0673 27.8539L69.4478 29.7555C69.5909 29.8021 69.7289 29.8565 69.861 29.9179L70.7045 28.1045ZM70.0905 27.8617C69.8008 27.7595 69.3501 27.6292 69.1783 27.5725C68.9328 27.4914 68.7588 27.4162 68.6081 27.3166L67.5053 28.9851C67.8678 29.2247 68.231 29.3658 68.5509 29.4715C68.9446 29.6016 69.0876 29.6287 69.4246 29.7476L70.0905 27.8617ZM68.3692 27.2009C67.8983 27.046 67.413 26.9256 66.9189 26.8407L66.5806 28.8119C66.979 28.8803 67.3684 28.9771 67.7442 29.1007L68.3692 27.2009ZM67.454 28.5363C67.5516 28.4395 67.6948 28.3327 67.9472 28.1293C68.1381 27.9754 68.4529 27.7191 68.6586 27.4214L67.0132 26.2844C67.0161 26.2801 66.997 26.307 66.9309 26.3688C66.8689 26.4268 66.7903 26.493 66.6921 26.5721C66.5298 26.7029 66.2403 26.9231 66.0455 27.1164L67.454 28.5363ZM68.7294 27.302C69.1084 26.5479 69.3167 25.7441 69.3597 24.9293L67.3625 24.8238C67.3338 25.3659 67.196 25.8994 66.9424 26.4038L68.7294 27.302ZM69.3611 24.8765V24.7831H67.3611V24.8765H69.3611ZM69.3609 24.8034C69.3771 23.9981 69.2284 23.2 68.9251 22.4441L67.069 23.1891C67.2746 23.7013 67.372 24.2327 67.3613 24.7629L69.3609 24.8034ZM68.924 22.4415C68.591 21.6186 68.1145 21.1218 67.7055 20.5754L66.1043 21.7738C66.674 22.535 66.8659 22.6872 67.07 23.1917L68.924 22.4415ZM67.4483 20.3351C67.0019 20.0462 66.2552 19.5256 65.3115 19.5256V21.5256C65.5613 21.5256 65.8053 21.654 66.3615 22.0141L67.4483 20.3351ZM65.3115 19.5256H65.216V21.5256H65.3115V19.5256ZM65.216 19.5256C64.426 19.5256 63.6715 19.7578 62.9535 20.4593L64.3513 21.8898C64.6597 21.5884 64.896 21.5256 65.216 21.5256V19.5256ZM63.0261 20.395C62.3336 20.9513 61.7992 21.6577 61.4941 22.4618L63.3639 23.1715C63.5312 22.7307 63.8376 22.3085 64.2787 21.9541L63.0261 20.395ZM61.5372 22.3641C61.1599 23.1077 60.9399 23.9076 60.8935 24.7265L62.8903 24.8398C62.9205 24.3061 63.0641 23.7749 63.3207 23.2691L61.5372 22.3641ZM60.8919 24.7831V24.8765H62.8919V24.7831H60.8919ZM60.8922 24.9038C60.9051 25.3764 60.944 25.8656 61.0246 26.3525L62.9978 26.0259C62.9352 25.6476 62.9025 25.2518 62.8915 24.8493L60.8922 24.9038ZM62.2862 25.2277C61.0326 24.8692 59.7026 24.5732 58.6992 24.2455L58.0783 26.1467C59.092 26.4778 60.6862 26.8504 61.7363 27.1507L62.2862 25.2277ZM59.372 25.0141C59.3209 24.7383 59.2905 24.4606 59.2807 24.1825L57.2819 24.253C57.2952 24.6302 57.3365 25.0059 57.4054 25.3782L59.372 25.0141ZM59.2813 24.2178V24.1194H57.2813V24.2178H59.2813ZM59.2806 24.0827C59.2396 22.9672 59.5013 21.8503 60.058 20.811L58.295 19.8666C57.5775 21.2061 57.2274 22.6728 57.282 24.1562L59.2806 24.0827ZM60.0869 20.7526C60.4741 19.9006 61.2002 19.1361 62.2099 18.6026L61.2755 16.8342C59.9219 17.5495 58.8576 18.6237 58.2661 19.925L60.0869 20.7526ZM62.271 18.5675C63.123 18.0373 64.1823 17.7397 65.2873 17.74L65.2879 15.74C63.8341 15.7396 62.4042 16.129 61.2144 16.8693L62.271 18.5675ZM47.6107 18.0301H47.8255V16.0301H47.6107V18.0301ZM47.8255 18.0301C48.4702 18.0301 49.0682 18.2052 49.7211 18.568L50.6924 16.8197C49.8056 16.327 48.8758 16.0301 47.8255 16.0301V18.0301ZM49.6182 18.5023C50.3823 19.0585 50.983 19.732 51.383 20.4609L53.1364 19.4989C52.5815 18.4875 51.7738 17.5976 50.7952 16.8853L49.6182 18.5023ZM51.3831 20.4611C51.8476 21.3073 52.1108 22.1545 52.1743 23.3138L54.1713 23.2044C54.0915 21.7482 53.746 20.6092 53.1363 19.4987L51.3831 20.4611ZM52.1728 23.2591V23.2787H54.1728V23.2591H52.1728ZM52.1748 23.342C52.2152 23.9788 52.2038 24.2246 52.1718 24.4387L54.1499 24.7342C54.2134 24.3092 54.2139 23.8962 54.1708 23.2155L52.1748 23.342ZM52.1608 24.5865V24.9798H54.1608V24.5865H52.1608ZM52.9721 23.9978C52.8437 24.0225 52.7278 24.0535 52.6507 24.0739C52.5632 24.097 52.5215 24.1075 52.4854 24.1141L52.8456 26.0814C52.9707 26.0585 53.0871 26.0272 53.1622 26.0074C53.2477 25.9847 53.299 25.9715 53.3496 25.9618L52.9721 23.9978ZM52.3798 24.1395C51.3876 24.4352 50.5431 24.8841 49.9098 25.1691L50.7305 26.993C51.5175 26.6388 52.1292 26.3011 52.9512 26.0561L52.3798 24.1395ZM51.307 26.2426C51.3945 25.7077 51.4022 25.1648 51.3287 24.6317L49.3474 24.905C49.3932 25.2373 49.389 25.5792 49.3333 25.9195L51.307 26.2426ZM51.338 24.7684V24.6946H49.338V24.7684H51.338ZM51.3321 24.5858C51.2428 23.7704 51.0181 23.3045 50.7805 22.6945L48.9169 23.4205C49.1925 24.1281 49.29 24.3111 49.344 24.8035L51.3321 24.5858ZM50.7861 22.7094C50.5289 22.0169 50.0665 21.4166 49.4708 20.9546L48.2452 22.5351C48.5757 22.7914 48.7962 23.096 48.9112 23.4057L50.7861 22.7094ZM49.4576 20.9445C49.2076 20.7573 48.9243 20.6205 48.6276 20.5351L48.074 22.4569C48.1525 22.4795 48.2143 22.5121 48.2584 22.5452L49.4576 20.9445ZM48.6276 20.5351C48.3308 20.4496 48.0201 20.4151 47.7122 20.4317L47.8195 22.4288C47.9084 22.424 47.9955 22.4343 48.074 22.4569L48.6276 20.5351ZM47.7659 20.4302H47.6405V22.4302H47.7659V20.4302ZM47.5711 20.4326C46.8393 20.4836 46.2268 20.8148 45.7294 21.4807L47.3317 22.6776C47.4341 22.5404 47.5055 22.4902 47.5416 22.4699C47.574 22.4517 47.6192 22.4341 47.71 22.4278L47.5711 20.4326ZM45.8235 21.372C45.3115 21.8839 44.9574 22.5233 44.8302 23.2293L46.7985 23.5838C46.8471 23.3141 46.9881 23.0358 47.2376 22.7863L45.8235 21.372ZM44.8578 23.115C44.6547 23.7812 44.5956 24.4757 44.6855 25.1635L46.6687 24.9042C46.6161 24.5023 46.65 24.0949 46.7709 23.6982L44.8578 23.115ZM44.6771 25.0339V25.1027H46.6771V25.0339H44.6771ZM44.6829 25.21C44.7716 26.0323 44.9772 26.4816 45.2325 27.1174L47.0885 26.3721C46.8186 25.7001 46.7258 25.5005 46.6713 24.9954L44.6829 25.21ZM45.2345 27.1222C45.5818 27.9742 46.0134 28.4256 46.5094 28.8341L47.781 27.2905C47.4653 27.0304 47.2763 26.8329 47.0865 26.3673L45.2345 27.1222ZM46.5863 28.8915C46.6046 28.9039 46.7799 29.0341 46.9927 29.115L47.7035 27.2456C47.7222 27.2527 47.7376 27.2599 47.7491 27.2658C47.7603 27.2715 47.767 27.2756 47.7678 27.2761C47.7682 27.2763 47.7673 27.2758 47.7649 27.2742C47.7623 27.2726 47.7588 27.2702 47.7533 27.2665C47.7476 27.2627 47.7417 27.2586 47.7331 27.2528C47.7252 27.2474 47.7149 27.2404 47.7041 27.2331L46.5863 28.8915ZM46.791 27.3498C46.6304 27.4576 46.5216 27.5088 46.3161 27.622C46.1139 27.7333 45.8788 27.8752 45.6201 28.1136L46.9754 29.5843C47.0688 29.4982 47.15 29.4459 47.2805 29.3741C47.4077 29.3041 47.6481 29.1832 47.9052 29.0108L46.791 27.3498ZM45.7096 28.0402C45.6118 28.1113 45.4803 28.1711 45.3229 28.202L45.709 30.1644C46.1315 30.0813 46.5368 29.9115 46.8859 29.6577L45.7096 28.0402ZM46.2202 28.4733C45.6447 27.9024 45.1375 27.291 44.704 26.6479L43.0456 27.7658C43.5549 28.5214 44.1466 29.2333 44.8117 29.8932L46.2202 28.4733ZM44.7524 26.7276C44.2589 25.8239 43.989 24.8593 43.9489 23.8866L41.9506 23.9688C42.0038 25.2605 42.3623 26.5237 42.9972 27.6862L44.7524 26.7276ZM43.9458 23.839C43.861 22.8864 43.9995 21.9261 44.3585 21.0078L42.4959 20.2794C42.0267 21.4795 41.8409 22.7494 41.9537 24.0164L43.9458 23.839ZM44.3739 20.9658C44.6483 20.1593 45.1346 19.3944 45.8155 18.7281L44.4168 17.2986C43.529 18.1673 42.8635 19.196 42.4805 20.3214L44.3739 20.9658ZM45.7664 18.7731C46.3787 18.2489 46.9425 18.0301 47.6107 18.0301V16.0301C46.393 16.0301 45.3813 16.4701 44.4658 17.2537L45.7664 18.7731ZM55.7927 26.4173C57.6331 26.4173 59.8473 26.709 62.5487 28.2479L63.5387 26.51C60.475 24.7648 57.903 24.4173 55.7927 24.4173V26.4173ZM62.5535 28.2506C64.4203 29.3003 65.9295 29.6754 69.0324 30.6351L69.6234 28.7244C66.4002 27.7275 65.1643 27.4241 63.5338 26.5073L62.5535 28.2506ZM69.3279 30.6798H69.3458V28.6798H69.3279V30.6798ZM68.9435 30.5953C70.4255 31.2464 71.096 31.7903 71.3662 32.1959L73.0306 31.0869C72.4295 30.1847 71.3096 29.4504 69.748 28.7643L68.9435 30.5953ZM73.1984 31.6414V30.9974H71.1984V31.6414H73.1984ZM71.3406 31.5113C71.4729 31.7322 71.5399 31.9616 71.5492 32.1855L73.5475 32.1029C73.5238 31.53 73.3522 30.9775 73.0562 30.4834L71.3406 31.5113ZM71.5492 32.1855C71.5584 32.4092 71.5105 32.6385 71.3993 32.8611L73.1885 33.7549C73.4456 33.2403 73.5712 32.6761 73.5475 32.1029L71.5492 32.1855ZM71.3924 32.8752C71.1338 33.4139 70.5259 34.0828 69.5164 34.754C68.524 35.4139 67.213 36.0291 65.6575 36.4944L66.2307 38.4105C67.9456 37.8975 69.4424 37.205 70.6238 36.4195C71.7881 35.6453 72.72 34.7311 73.1954 33.7408L71.3924 32.8752ZM64.9441 37.4525V37.4623H66.9441V37.4525H64.9441ZM65.5608 36.5387C64.7043 36.8941 63.9095 37.3302 63.1685 37.7317C62.4126 38.1413 61.705 38.5193 60.9501 38.8189L61.6878 40.6779C62.5681 40.3285 63.3734 39.8954 64.1213 39.4901C64.8843 39.0767 65.5844 38.6942 66.3273 38.3859L65.5608 36.5387ZM60.9452 38.8209C59.2936 39.4864 57.6162 40.1734 55.328 40.0622L55.2309 42.0599C58.0035 42.1945 60.05 41.3378 61.6927 40.6759L60.9452 38.8209ZM55.2368 40.062C54.4371 40.0961 53.6393 39.9973 52.8927 39.7737L52.319 41.6896C53.2832 41.9784 54.3039 42.1036 55.3221 42.0601L55.2368 40.062ZM53.0148 39.8191C52.3825 39.5357 51.7696 39.2252 51.1786 38.889L50.1897 40.6274C50.8372 40.9957 51.5072 41.3351 52.1968 41.6442L53.0148 39.8191ZM51.1796 38.8896C50.6506 38.5879 50.1736 38.2267 49.5518 37.7919C48.9531 37.3733 48.2677 36.9234 47.4346 36.5568L46.6291 38.3875C47.282 38.6747 47.8408 39.036 48.4058 39.4311C48.9478 39.81 49.554 40.2648 50.1888 40.6269L51.1796 38.8896ZM48.0318 37.4721V37.4476H46.0318V37.4721H48.0318ZM47.0318 36.4476H47.002V38.4476H47.0318V36.4476ZM47.4539 36.5555C45.1494 35.388 44.1094 34.2191 43.8277 33.5594L41.9883 34.3448C42.5421 35.6417 44.0802 37.0883 46.55 38.3396L47.4539 36.5555ZM43.8625 33.6538C43.7032 33.1442 43.7312 32.8107 43.8182 32.5875C43.9034 32.3687 44.0977 32.1205 44.5384 31.8803L43.5812 30.1242C42.8402 30.5281 42.2528 31.096 41.9546 31.8617C41.6581 32.6229 41.701 33.4424 41.9535 34.2504L43.8625 33.6538ZM44.5045 31.898C45.2097 31.5478 45.8043 31.1981 46.2917 30.9016C46.803 30.5904 47.136 30.3768 47.4036 30.2377L46.481 28.4631C46.134 28.6436 45.694 28.9241 45.252 29.193C44.7861 29.4765 44.2467 29.793 43.6151 30.1066L44.5045 31.898ZM47.448 30.2131C48.0488 29.8609 48.3332 29.6943 48.5791 29.5164L47.4062 27.8963C47.2582 28.0035 47.0771 28.1122 46.4366 28.4877L47.448 30.2131ZM47.9926 29.7064H48.0046V27.7064H47.9926V29.7064ZM49.0046 28.7064V28.6916H47.0046V28.7064H49.0046ZM48.7062 29.4042C49.6496 28.4752 51.0972 27.2892 53.2722 26.7024L52.7511 24.7714C50.116 25.4825 48.3767 26.9218 47.303 27.9791L48.7062 29.4042ZM53.2203 26.7149C54.0083 26.5468 54.8595 26.4173 55.7927 26.4173V24.4173C54.6729 24.4173 53.674 24.5731 52.803 24.7589L53.2203 26.7149ZM71.541 36.247C73.7138 43.312 78.7577 53.5147 82.0208 58.492L83.6934 57.3954C80.5231 52.5597 75.5648 42.5268 73.4526 35.659L71.541 36.247ZM82.0187 58.4887C83.7099 61.09 87.023 66.4968 88.457 73.0251L90.4104 72.5961C88.8962 65.7028 85.4179 60.0479 83.6955 57.3986L82.0187 58.4887ZM89.4601 73.8103C90.2948 73.7882 91.2483 73.8894 92.2935 74.1047L92.6969 72.1458C91.5459 71.9088 90.4345 71.7838 89.4073 71.811L89.4601 73.8103ZM93.4005 73.5501C95.5027 69.0705 94.5829 64.4759 92.808 60.7823C91.0379 57.0989 88.3476 54.153 86.5998 52.8299L85.3926 54.4244C86.8854 55.5545 89.3722 58.2502 91.0053 61.6486C92.6336 65.037 93.343 68.9648 91.5899 72.7004L93.4005 73.5501ZM86.5958 52.8269C86.3025 52.6071 86.1028 52.4232 85.9754 52.2823C85.8385 52.1309 85.8237 52.0715 85.8354 52.1054C85.8475 52.1404 85.9321 52.4441 85.6833 52.741C85.5761 52.8689 85.4551 52.9295 85.3786 52.9559C85.3405 52.969 85.3106 52.9748 85.2922 52.9775C85.2737 52.9802 85.2631 52.9802 85.2621 52.9802V50.9802C84.9749 50.9802 84.493 51.0476 84.1506 51.4562C83.7723 51.9074 83.8338 52.4376 83.9458 52.7608C84.0576 53.0829 84.2657 53.3735 84.4918 53.6235C84.7273 53.8841 85.0304 54.1531 85.3966 54.4274L86.5958 52.8269ZM84.6637 52.7814C88.0701 55.3255 92.5271 60.2625 94.1243 65.8111L96.0463 65.2578C94.2895 59.1548 89.4843 53.8855 85.8605 51.179L84.6637 52.7814ZM94.1255 65.8154C94.8534 68.302 95.0098 70.8994 94.2517 73.4609L96.1695 74.0285C97.0585 71.0247 96.8569 68.0274 96.045 65.2536L94.1255 65.8154ZM94.8851 74.6902C95.2095 74.8019 95.7789 75.0303 96.3636 75.0716L96.5045 73.0766C96.2537 73.0589 96.0114 72.9628 95.5361 72.7992L94.8851 74.6902ZM96.0419 74.994C99.1204 76.3063 101.066 77.3974 102.119 78.4422C102.628 78.947 102.882 79.3976 102.983 79.8127C103.082 80.2215 103.056 80.692 102.837 81.2828L104.712 81.9782C105.039 81.0965 105.138 80.2144 104.926 79.3405C104.715 78.473 104.221 77.7107 103.528 77.0227C102.177 75.6818 99.9065 74.4672 96.8261 73.1542L96.0419 74.994ZM104.775 81.6305V81.4191H102.775V81.6305H104.775ZM103.815 80.4199C103.427 80.4042 103 80.4191 102.694 80.4191V82.4191C103.116 82.4191 103.393 82.4045 103.734 82.4183L103.815 80.4199ZM102.694 80.4191H102.605V82.4191H102.694V80.4191ZM103.536 81.7844C103.826 81.045 103.906 80.2823 103.697 79.5221C103.493 78.7745 103.036 78.1254 102.423 77.5535C101.225 76.4366 99.2475 75.4507 96.5979 74.4643L95.9001 76.3387C98.5201 77.314 100.171 78.1888 101.059 79.0164C101.488 79.4167 101.689 79.7606 101.768 80.0501C101.844 80.3269 101.834 80.6452 101.674 81.0537L103.536 81.7844ZM96.5878 74.4607C93.794 73.4545 91.1431 72.9762 89.0249 73.3452C87.9493 73.5325 86.9721 73.9456 86.2002 74.6574C85.4221 75.3749 84.9181 76.336 84.6973 77.5015L86.6624 77.8737C86.8146 77.0702 87.1357 76.5152 87.556 76.1277C87.9826 75.7343 88.5771 75.4533 89.368 75.3155C90.9827 75.0343 93.2434 75.382 95.9102 76.3424L96.5878 74.4607ZM84.6988 77.4937C84.6585 77.6979 84.6176 77.8626 84.5823 78.2637L86.5746 78.4389C86.5877 78.29 86.5996 78.2039 86.6107 78.1382C86.6241 78.0589 86.6351 78.0123 86.6609 77.8815L84.6988 77.4937ZM85.31 77.388C84.8171 77.5253 84.5258 77.6324 84.2028 77.6742L84.4595 79.6577C84.9719 79.5913 85.5281 79.4034 85.8468 79.3146L85.31 77.388ZM83.8744 77.7763C81.0279 79.2378 79.4893 81.4503 78.6426 84.2081L80.5546 84.7951C81.2715 82.4596 82.502 80.7292 84.7879 79.5555L83.8744 77.7763ZM78.6397 84.2177C77.8264 86.9649 77.5849 90.1404 77.377 93.6307L79.3734 93.7497C79.5832 90.2293 79.8192 87.2791 80.5575 84.7855L78.6397 84.2177ZM77.3752 93.6902V93.7049H79.3752V93.6902H77.3752ZM77.3781 93.6288C77.3243 94.3335 77.0975 95.2751 76.7515 96.4025C76.4089 97.5189 75.9726 98.7457 75.5276 100.016L77.4152 100.677C77.8535 99.426 78.3064 98.1528 78.6635 96.9893C79.0172 95.8367 79.3007 94.7185 79.3723 93.781L77.3781 93.6288ZM75.9641 99.4851C67.2087 104.64 55.1877 106.807 45.0382 101.117L44.0601 102.861C55.025 109.009 67.8305 106.595 76.9788 101.209L75.9641 99.4851ZM45.3705 101.419C44.656 100.39 43.7898 99.4449 42.7955 98.6047L41.5047 100.132C42.372 100.865 43.118 101.681 43.7278 102.559L45.3705 101.419ZM42.9593 98.781C42.4516 98.0818 41.8248 97.4566 41.104 96.9229L39.9138 98.5301C40.4804 98.9497 40.96 99.4315 41.3409 99.9561L42.9593 98.781ZM40.5089 98.7265C41.6834 98.7265 42.6949 98.5722 43.5233 98.368L43.0447 96.4262C42.3573 96.5956 41.5068 96.7265 40.5089 96.7265V98.7265ZM43.6409 98.3312C44.7023 97.9256 45.5906 97.1758 46.0614 96.1837L44.2544 95.3264C44.0363 95.786 43.582 96.2127 42.927 96.463L43.6409 98.3312ZM46.0555 96.1958C46.5342 95.2208 46.4784 94.0693 46.0875 92.9368C45.6941 91.797 44.9335 90.5826 43.8428 89.3689L42.3552 90.7058C43.3234 91.7831 43.9145 92.7712 44.197 93.5894C44.4819 94.4148 44.4261 94.9766 44.2603 95.3143L46.0555 96.1958ZM43.8435 89.3697C41.6722 86.9486 38.0574 84.2852 32.8796 81.6672L31.9772 83.4521C37.0283 86.006 40.4079 88.5343 42.3545 90.705L43.8435 89.3697ZM32.891 81.6731C29.2828 79.7906 27.3693 77.6378 26.5006 75.3425L24.6301 76.0505C25.7188 78.9271 28.0544 81.4055 31.9658 83.4462L32.891 81.6731ZM26.5016 75.3453C25.6131 72.9764 25.7128 70.4953 26.4394 67.8765L24.5122 67.3418C23.711 70.2292 23.5481 73.1659 24.629 76.0477L26.5016 75.3453ZM26.4393 67.8769C27.8436 62.8245 31.4712 57.8553 33.8806 54.623L32.2771 53.4277C29.9004 56.6161 26.0323 61.8729 24.5123 67.3413L26.4393 67.8769ZM33.5264 54.9196C33.5938 54.8859 33.4317 54.9912 33.169 54.9654C32.9899 54.9479 32.7488 54.8659 32.5607 54.6471C32.3891 54.4477 32.3527 54.2388 32.3446 54.1403C32.3311 53.9746 32.3778 53.8895 32.3452 53.9828C32.3243 54.0427 32.2807 54.1474 32.2003 54.3099C31.8727 54.9727 31.1353 56.2036 29.8032 58.2725L31.4848 59.3552C32.8084 57.2994 33.6077 55.9762 33.9933 55.1961C34.0912 54.9979 34.1744 54.8112 34.2334 54.6421C34.2808 54.5063 34.3607 54.2546 34.338 53.9772C34.3253 53.8228 34.2738 53.5718 34.0771 53.3432C33.8639 53.0952 33.5876 52.9969 33.364 52.975C33.0124 52.9405 32.7237 53.0849 32.6314 53.1311L33.5264 54.9196ZM29.8018 58.2748C28.5941 60.1615 26.8122 63.3582 26.1304 66.9857C25.4424 70.6469 25.8705 74.8078 29.1769 78.435L30.6549 77.0877C27.88 74.0434 27.4906 70.5767 28.096 67.3551C28.7078 64.0997 30.3306 61.1583 31.4862 59.353L29.8018 58.2748ZM30.9148 77.8085C31.1374 73.0901 32.4059 68.4386 34.6649 64.0824L32.8894 63.1617C30.5024 67.7648 29.1537 72.6973 28.917 77.7142L30.9148 77.8085ZM34.6586 64.0942C36.3029 61.025 38.9529 56.6255 41.2083 52.0073C43.4687 47.3788 45.4415 42.3278 45.7321 37.7867L43.7362 37.659C43.4718 41.7903 41.649 46.5474 39.4112 51.1296C37.1683 55.7221 34.6173 59.936 32.8956 63.1498L34.6586 64.0942ZM44.2086 38.5736C44.3837 38.6818 44.7717 38.8819 45.0667 39.0417C45.4195 39.2327 45.7087 39.4009 45.8505 39.5096L47.0673 37.9223C46.7794 37.7017 46.3495 37.4618 46.0189 37.2829C45.6307 37.0727 45.3711 36.9409 45.2598 36.8722L44.2086 38.5736ZM46.0098 39.6095C46.5769 39.8945 47.0818 40.2563 47.6485 40.6691C48.1965 41.0684 48.8138 41.5243 49.5201 41.8901L50.4398 40.114C49.8929 39.8308 49.4001 39.4707 48.8261 39.0526C48.2709 38.6481 47.6419 38.1913 46.908 37.8225L46.0098 39.6095ZM49.3626 41.7887C50.805 42.9207 52.612 43.649 55.2078 43.649V41.649C53.0413 41.649 51.6733 41.0598 50.5973 40.2154L49.3626 41.7887ZM55.1446 43.647C55.366 43.6611 55.6167 43.6785 55.8703 43.6785V41.6785C55.6941 41.6785 55.5151 41.6665 55.2711 41.651L55.1446 43.647ZM55.8703 43.6785C58.5144 43.6785 60.5538 42.9642 62.1964 42.2851L61.4322 40.4368C59.8879 41.0753 58.1317 41.6785 55.8703 41.6785V43.6785ZM62.17 42.2955C63.0972 41.9426 63.9297 41.5025 64.6349 41.1435C65.3708 40.7689 65.9451 40.4956 66.4715 40.365L65.9896 38.4239C65.209 38.6177 64.4405 38.9983 63.7277 39.3611C62.9842 39.7396 62.2621 40.1205 61.4585 40.4264L62.17 42.2955ZM66.2305 40.3944H66.2604V38.3944H66.2305V40.3944ZM66.492 40.3672C69.4329 39.6669 71.8419 38.2649 73.2582 36.6013L71.7354 35.3048C70.6572 36.5712 68.6619 37.7946 66.0287 38.4216L66.492 40.3672ZM84.5454 80.0679C84.7859 83.2856 86.7948 86.974 90.6085 87.7434L91.0041 85.7829C88.3844 85.2544 86.741 82.6105 86.5398 79.9188L84.5454 80.0679ZM90.6218 87.7459C92.6356 88.124 94.9779 87.6479 97.0267 86.8594C99.0844 86.0674 101.011 84.8966 102.201 83.7103L100.789 82.2939C99.8483 83.2315 98.1849 84.2706 96.3083 84.9928C94.4228 85.7185 92.4862 86.061 90.9908 85.7803L90.6218 87.7459ZM101.53 84.0015L102.789 83.9573L102.719 81.9585L101.46 82.0027L101.53 84.0015ZM102.775 83.9577C104.61 83.9193 105.868 84.0196 107.192 85.0575L108.426 83.4836C106.527 81.9945 104.658 81.9178 102.733 81.9581L102.775 83.9577ZM107.173 85.0426L107.191 85.0573L108.462 83.5132L108.444 83.4985L107.173 85.0426ZM107.208 85.0707C108.168 85.8272 108.678 87.148 109.203 88.8816L111.117 88.3023C110.615 86.6437 109.968 84.7 108.446 83.4999L107.208 85.0707ZM109.192 88.8412C109.679 90.7332 110.143 92.9227 111.922 94.5673L113.28 93.0983C112.016 91.9307 111.656 90.3937 111.129 88.3428L109.192 88.8412ZM111.935 94.5785C113.342 95.8357 114.234 96.8803 114.763 97.7115C115.299 98.5553 115.411 99.1021 115.398 99.3907L117.396 99.484C117.436 98.6222 117.101 97.6621 116.451 96.639C115.793 95.6032 114.76 94.4207 113.267 93.087L111.935 94.5785ZM117.251 99.9562L117.269 99.9267L115.56 98.889L115.542 98.9185L117.251 99.9562ZM115.415 99.4079V99.4964H117.415V99.4079H115.415ZM117.371 99.206L117.354 99.147L115.44 99.7278L115.458 99.7868L117.371 99.206ZM115.399 99.368C115.375 99.707 115.252 99.9644 114.909 100.272C114.518 100.624 113.907 100.981 112.961 101.477L113.889 103.248C114.81 102.766 115.641 102.304 116.246 101.76C116.9 101.172 117.328 100.456 117.394 99.5067L115.399 99.368ZM112.96 101.477C112.071 101.943 110.994 102.391 109.773 102.878C108.568 103.359 107.227 103.876 105.876 104.462C103.176 105.633 100.312 107.13 98.0565 109.372L99.4665 110.79C101.454 108.815 104.042 107.438 106.672 106.297C107.987 105.727 109.281 105.228 110.515 104.736C111.733 104.25 112.898 103.768 113.889 103.248L112.96 101.477ZM98.0607 109.368C94.5235 112.843 90.249 114.7 86.5466 114.939L86.6752 116.934C90.91 116.662 95.6232 114.566 99.4623 110.795L98.0607 109.368ZM86.5453 114.939C82.8418 115.182 79.8465 114.03 78.0802 111.016L76.3547 112.027C78.6106 115.877 82.4545 117.212 86.6765 116.934L86.5453 114.939ZM77.6605 110.625L77.6307 110.61L76.7444 112.403L76.7743 112.418L77.6605 110.625ZM78.0315 110.97C77.5674 110.24 77.3873 109.229 77.4879 107.916C77.588 106.608 77.9578 105.111 78.4738 103.504L76.5697 102.892C76.0354 104.555 75.6114 106.226 75.4937 107.763C75.3765 109.294 75.5545 110.802 76.3437 112.043L78.0315 110.97ZM78.4742 103.503C79.0051 101.843 79.6049 100.306 80.1665 98.6401C80.7039 97.046 81.1674 95.4348 81.282 93.9438L79.2878 93.7906C79.1935 95.0183 78.8007 96.4307 78.2713 98.0013C77.7661 99.5001 77.0888 101.269 76.5693 102.894L78.4742 103.503ZM81.2829 93.93C81.5055 90.3916 81.7356 87.461 82.4061 85.2377L80.4912 84.6603C79.7414 87.1468 79.5059 90.3222 79.2869 93.8044L81.2829 93.93ZM82.4029 85.2479C83.0665 83.1297 84.0453 81.7816 85.6939 81.0189L84.8542 79.2037C82.5282 80.2798 81.2631 82.1961 80.4944 84.65L82.4029 85.2479ZM85.6476 81.0389L85.9162 80.9308L85.169 79.0756L84.9005 79.1837L85.6476 81.0389ZM86.5426 80.0032V79.9933H84.5426V80.0032H86.5426ZM20.9999 81.2342H21.0596V79.2342H20.9999V81.2342ZM21.0596 81.2342C21.3235 81.2342 21.5864 81.2547 21.8554 81.2931L22.1377 79.3131C21.7859 79.2629 21.4282 79.2342 21.0596 79.2342V81.2342ZM21.8769 81.2959C23.7767 81.5248 25.5422 82.6916 27.3651 84.6766L28.8382 83.3237C26.8775 81.1888 24.7042 79.6221 22.1162 79.3102L21.8769 81.2959ZM27.2685 84.5532L32.6993 92.734L34.3656 91.6278L28.9348 83.4471L27.2685 84.5532ZM32.8966 92.9527L32.9145 92.9675L34.1862 91.4238L34.1683 91.4091L32.8966 92.9527ZM32.6754 92.6799C33.4663 94.1089 34.6674 95.4939 35.9441 96.8358C37.2721 98.2316 38.6017 99.5032 39.9102 100.926L41.3821 99.5715C40.0946 98.172 38.6014 96.7273 37.3931 95.4572C36.1334 94.1332 35.0846 92.9028 34.4253 91.7114L32.6754 92.6799ZM39.8958 100.91C41.1878 102.376 42.2866 103.711 43.0326 104.925C43.7908 106.158 44.0872 107.113 44.0031 107.855L45.9904 108.08C46.151 106.663 45.5672 105.229 44.7364 103.877C43.8934 102.506 42.6946 101.061 41.3965 99.5875L39.8958 100.91ZM43.9968 107.967V107.997H45.9968V107.967H43.9968ZM44.0011 107.904C43.8523 109.503 43.2411 110.676 42.2873 111.538C41.3134 112.419 39.9129 113.038 38.0999 113.375L38.4659 115.341C40.5082 114.961 42.2944 114.228 43.6287 113.022C44.9829 111.797 45.801 110.148 45.9925 108.089L44.0011 107.904ZM38.113 113.373C34.4935 113.997 29.4711 113.39 24.3916 111.161L23.588 112.993C28.9523 115.346 34.3737 116.047 38.4528 115.344L38.113 113.373ZM24.4048 111.167C21.3737 109.785 18.0907 109.194 15.0615 108.86C13.5459 108.694 12.0738 108.59 10.7271 108.488C9.36915 108.386 8.14794 108.286 7.08619 108.128L6.79287 110.107C7.93625 110.276 9.22678 110.381 10.5765 110.482C11.9376 110.585 13.3693 110.686 14.8428 110.848C17.792 111.173 20.829 111.735 23.5748 112.987L24.4048 111.167ZM7.0853 108.128C4.94387 107.813 3.87193 107.202 3.45175 106.584L1.79773 107.708C2.71436 109.057 4.53088 109.773 6.79376 110.107L7.0853 108.128ZM3.45278 106.585C3.29471 106.352 3.13326 105.871 3.21117 105.005C3.2883 104.148 3.59503 102.993 4.26885 101.514L2.44874 100.685C1.71413 102.297 1.32262 103.677 1.21922 104.826C1.1166 105.966 1.29234 106.962 1.7967 107.707L3.45278 106.585ZM4.35879 101.099V101.084H2.35879V101.099H4.35879ZM4.13615 101.713L4.14808 101.699L2.59337 100.441L2.58144 100.455L4.13615 101.713ZM4.29098 101.461C4.73246 100.423 4.76728 99.3078 4.67554 98.2883C4.58476 97.2793 4.35375 96.237 4.19219 95.3825L2.227 95.754C2.40561 96.6988 2.60429 97.5861 2.68359 98.4675C2.76194 99.3383 2.70724 100.074 2.45047 100.678L4.29098 101.461ZM4.19602 95.404C4.03134 94.4149 3.92301 93.625 3.93273 92.9587C3.94222 92.3085 4.06448 91.8547 4.30001 91.499L2.63242 90.3948C2.116 91.1748 1.94583 92.0459 1.93294 92.9295C1.92028 93.7972 2.05962 94.7501 2.22317 95.7325L4.19602 95.404ZM4.33068 91.4496C5.06467 90.1874 6.03374 89.9769 7.93065 89.2623L7.22553 87.3907C5.62526 87.9936 3.77749 88.4223 2.60175 90.4442L4.33068 91.4496ZM7.93085 89.2622C8.33986 89.108 8.77309 88.9708 9.24031 88.826C9.69922 88.6837 10.1945 88.533 10.6864 88.3609C11.674 88.0153 12.7215 87.5597 13.6693 86.8017L12.4201 85.2398C11.7267 85.7944 10.9211 86.1599 10.0259 86.4731C9.57632 86.6304 9.12274 86.7685 8.64805 86.9157C8.18166 87.0603 7.69658 87.2131 7.22534 87.3908L7.93085 89.2622ZM13.0447 87.0207H13.0566V85.0207H13.0447V87.0207ZM14.0566 86.0207V86.006H12.0566V86.0207H14.0566ZM13.7097 86.7633C14.5304 86.0555 15.2348 85.2695 15.8713 84.5531C16.5239 83.8185 17.0937 83.171 17.7019 82.6385L16.3844 81.1337C15.6618 81.7664 15.0022 82.52 14.3761 83.2247C13.734 83.9475 13.1106 84.6389 12.4035 85.2487L13.7097 86.7633ZM17.7002 82.64C18.7321 81.7407 19.641 81.2342 20.9999 81.2342V79.2342C18.9809 79.2342 17.622 80.0552 16.3862 81.1322L17.7002 82.64ZM63.3683 34.689C62.7 34.9434 62.0029 35.2399 61.3115 35.5288C60.6121 35.821 59.9074 36.1102 59.1883 36.3679C57.7471 36.8843 56.2998 37.2538 54.8438 37.2538V39.2538C56.6284 39.2538 58.3232 38.8024 59.8629 38.2507C60.6343 37.9743 61.3798 37.6678 62.0825 37.3742C62.7931 37.0773 63.45 36.7979 64.0798 36.5582L63.3683 34.689ZM54.8438 37.2538C51.879 37.2538 49.5182 36.055 47.6795 35.0795L46.7422 36.8462C48.5916 37.8274 51.3394 39.2538 54.8438 39.2538V37.2538ZM47.791 35.1483C47.3491 34.8336 46.9516 34.5202 46.5706 34.2251C46.2075 33.944 45.8304 33.6562 45.4852 33.4535L44.4725 35.1782C44.6883 35.3049 44.9647 35.5112 45.3461 35.8065C45.7096 36.0879 46.1476 36.4333 46.6308 36.7774L47.791 35.1483ZM45.5372 33.4863C45.2567 33.2975 45.2275 33.1307 45.2269 33.126C45.225 33.1105 45.2402 33.1856 45.1748 33.3083C45.0999 33.4486 44.8877 33.6738 44.5372 33.6738V31.6738C43.9779 31.6738 43.5941 32.022 43.41 32.3672C43.2353 32.6948 43.2034 33.0569 43.2418 33.3696C43.3218 34.0213 43.7223 34.6755 44.4205 35.1454L45.5372 33.4863ZM44.4172 33.6666C44.427 33.6678 44.4113 33.6658 44.3935 33.6542C44.385 33.6487 44.4001 33.6557 44.4491 33.7147C44.4739 33.7445 44.5009 33.7796 44.5385 33.8294C44.572 33.8739 44.6203 33.9388 44.6689 34.0005C44.7685 34.1269 44.9128 34.2975 45.1114 34.4518L46.3383 32.8722C46.328 32.8643 46.3008 32.8401 46.2401 32.7631C46.2199 32.7374 46.0657 32.5308 45.9875 32.4367C45.7387 32.1373 45.3356 31.7631 44.6573 31.6811L44.4172 33.6666ZM45.232 34.5321C45.4404 34.6502 45.7043 34.8472 46.0656 35.1362C46.4054 35.408 46.8262 35.7566 47.2762 36.0968L48.4824 34.5015C48.061 34.1829 47.691 33.8752 47.3147 33.5742C46.9599 33.2904 46.5822 32.9983 46.2177 32.7919L45.232 34.5321ZM47.3866 36.1693C49.1087 37.1444 51.6424 38.595 54.8378 38.595V36.595C52.2324 36.595 50.1231 35.4204 48.372 34.4289L47.3866 36.1693ZM54.8378 38.595C57.9672 38.595 61.527 37.1971 63.6101 36.2073L62.7517 34.4008C60.7171 35.3677 57.4973 36.595 54.8378 36.595V38.595ZM63.6763 36.1727C64.2751 35.8312 64.9569 35.4097 65.618 35.0057C66.2893 34.5956 66.944 34.2007 67.5231 33.8881L66.5732 32.1281C65.9408 32.4694 65.2437 32.8907 64.5753 33.2991C63.8966 33.7137 63.2505 34.1132 62.6855 34.4354L63.6763 36.1727ZM67.6343 33.8183C68.2304 33.3871 68.552 32.9244 68.7093 32.7343C68.7937 32.6322 68.8006 32.6418 68.7662 32.6622C68.7088 32.6961 68.67 32.6906 68.7132 32.6906V30.6906C68.3684 30.6906 68.0439 30.7655 67.7471 30.9413C67.4732 31.1035 67.2868 31.3161 67.1684 31.4592C66.9199 31.7596 66.7968 31.9557 66.462 32.1979L67.6343 33.8183ZM68.6115 32.6854C68.6517 32.6895 68.6093 32.6909 68.5295 32.6548C68.4415 32.6152 68.2609 32.5063 68.149 32.2699C68.0373 32.034 68.0667 31.8245 68.0922 31.7284C68.1155 31.6408 68.1457 31.6024 68.1304 31.626C68.0995 31.6734 68.0129 31.7798 67.8295 31.9634C67.6555 32.1376 67.4335 32.3429 67.1646 32.5865L68.5072 34.0689C68.7783 33.8233 69.0323 33.5892 69.2443 33.377C69.447 33.1742 69.6566 32.9472 69.8062 32.7175C69.8811 32.6025 69.9727 32.4396 70.0252 32.2419C70.0799 32.0358 70.1065 31.7307 69.9566 31.414C69.8064 31.0969 69.5522 30.9222 69.3521 30.8319C69.1602 30.7453 68.9671 30.7113 68.8148 30.6957L68.6115 32.6854ZM67.3071 32.4789C66.0105 33.2867 64.6636 34.0393 63.2717 34.7337L64.1644 36.5234C65.6118 35.8014 67.0137 35.0181 68.3647 34.1765L67.3071 32.4789ZM64.718 35.6285V35.6236H62.718V35.6285H64.718ZM63.718 36.6236H63.724V34.6236H63.718V36.6236ZM58.2668 27.8362V27.728H56.2668V27.8362H58.2668ZM58.2005 27.3701C58.3724 27.8186 58.1333 28.1489 58.0856 28.2087C58.0144 28.2979 57.9282 28.3626 57.8207 28.4068L57.059 26.5576C56.856 26.6412 56.6653 26.782 56.5225 26.961C56.4032 27.1105 56.1252 27.544 56.333 28.0859L58.2005 27.3701ZM57.8716 28.3842C57.8911 28.3748 57.9782 28.3465 58.1573 28.3546C58.3269 28.3622 58.5166 28.4 58.6874 28.4545L59.2956 26.5492C58.989 26.4513 58.6236 26.3736 58.2472 26.3566C57.8802 26.3401 57.4301 26.3782 57.008 26.5802L57.8716 28.3842ZM58.9915 28.5019C58.9495 28.5019 58.9455 28.4948 58.9765 28.5053C59.0034 28.5145 59.0288 28.5277 59.0437 28.5377C59.0641 28.5514 59.0337 28.5371 58.9919 28.4742C58.9468 28.4064 58.8592 28.2307 58.9022 27.9898L60.8711 28.3413C60.9439 27.9332 60.8063 27.5911 60.6577 27.3674C60.5125 27.1487 60.325 26.9894 60.1612 26.879C59.8498 26.6692 59.4199 26.5019 58.9915 26.5019V28.5019ZM58.8975 28.0185C58.9379 27.7467 59.0965 27.5882 59.1756 27.5271C59.2481 27.4709 59.2968 27.4596 59.2779 27.4656C59.2426 27.4769 59.1582 27.49 59.081 27.49V29.49C59.3022 29.49 59.6027 29.4614 59.8866 29.3707C60.0274 29.3257 60.2193 29.2483 60.3997 29.1087C60.5865 28.9641 60.8175 28.7049 60.8758 28.3126L58.8975 28.0185ZM59.081 27.49C59.146 27.49 59.1747 27.5159 59.1038 27.4795C59.0558 27.4548 59.0243 27.4358 58.9329 27.3851C58.8567 27.3429 58.7506 27.2858 58.627 27.2338L57.852 29.0776C57.8747 29.0871 57.9058 29.1025 57.9635 29.1345C58.006 29.1581 58.1051 29.2149 58.1899 29.2585C58.3846 29.3585 58.6878 29.49 59.081 29.49V27.49ZM58.5137 27.1941C58.3536 27.1484 58.1902 27.1275 58.0948 27.1156C57.9712 27.1001 57.9115 27.0942 57.8484 27.083C57.8361 27.0809 57.827 27.079 57.8205 27.0776C57.814 27.0761 57.8113 27.0754 57.8119 27.0755C57.8124 27.0757 57.8176 27.0772 57.8265 27.0805C57.8354 27.0839 57.8499 27.0898 57.8684 27.0991C57.9416 27.1361 58.1184 27.251 58.207 27.4958L56.3265 28.1766C56.4658 28.5614 56.7508 28.7753 56.9674 28.8847C57.1704 28.9871 57.374 29.0302 57.5012 29.0527C57.6298 29.0753 57.7749 29.0912 57.847 29.1002C57.9471 29.1127 57.9703 29.1188 57.9653 29.1174L58.5137 27.1941ZM53.056 27.45C53.1455 27.2363 53.3015 27.1359 53.3669 27.1028C53.4205 27.0758 53.4406 27.0788 53.3786 27.09C53.3184 27.1009 53.2562 27.1077 53.1375 27.1222C53.0439 27.1337 52.8861 27.1532 52.7323 27.1938L53.2432 29.1275C53.2397 29.1284 53.2481 29.1261 53.275 29.1217C53.3016 29.1174 53.3346 29.113 53.3809 29.1074C53.459 29.0978 53.6023 29.0821 53.7354 29.058C53.8666 29.0342 54.0676 28.9896 54.2686 28.888C54.4816 28.7805 54.7518 28.5786 54.9009 28.2223L53.056 27.45ZM52.5864 27.2447C52.4696 27.2959 52.3676 27.352 52.2954 27.3924C52.2106 27.4399 52.1744 27.4613 52.1295 27.4844C52.0541 27.5231 52.0843 27.495 52.1582 27.495V29.495C52.5485 29.495 52.8531 29.3611 53.0434 29.2634C53.1312 29.2183 53.2256 29.1637 53.2732 29.1371C53.3335 29.1033 53.3657 29.0868 53.3891 29.0766L52.5864 27.2447ZM52.1582 27.495C52.0864 27.495 52.0008 27.4813 51.9623 27.4686C51.9421 27.4619 51.9873 27.4725 52.0565 27.5266C52.1302 27.5842 52.2892 27.7408 52.3298 28.0136L50.3515 28.3077C50.41 28.701 50.6421 28.9595 50.8249 29.1024C51.0032 29.2418 51.1935 29.3209 51.3351 29.3677C51.6204 29.4619 51.9257 29.495 52.1582 29.495V27.495ZM52.3272 27.9973C52.3688 28.2483 52.2727 28.4257 52.2304 28.4874C52.1896 28.5468 52.1618 28.5589 52.1842 28.5439C52.2011 28.5327 52.2278 28.5191 52.2549 28.5098C52.2867 28.499 52.2809 28.5068 52.2358 28.5068V26.5068C51.8081 26.5068 51.3809 26.6757 51.0744 26.8801C50.9126 26.9881 50.727 27.1434 50.5813 27.3558C50.4339 27.5705 50.2857 27.9107 50.3541 28.324L52.3272 27.9973ZM52.5365 28.4605C52.9557 28.3283 53.2641 28.3448 53.3626 28.3902L54.2004 26.5742C53.4037 26.2066 52.4827 26.3804 51.9351 26.5531L52.5365 28.4605ZM53.418 28.4138C53.3411 28.3838 53.2402 28.3266 53.1475 28.2112C53.0552 28.0964 52.8763 27.7828 53.0209 27.3858L54.9002 28.0702C55.0806 27.5749 54.8689 27.1605 54.7065 26.9584C54.5436 26.7558 54.3353 26.6248 54.145 26.5506L53.418 28.4138ZM52.9605 27.728V27.8313H54.9605V27.728H52.9605ZM53.9605 28.8313H53.9784V26.8313H53.9605V28.8313ZM52.9784 27.8313V27.8362H54.9784V27.8313H52.9784Z" fill="#F8FBFF" mask="url(#path-1-inside-1_283_194)"/>
</svg>
