<svg width="118" height="118" viewBox="0 0 118 118" fill="none" xmlns="http://www.w3.org/2000/svg">
<path d="M63.0568 99.0825L63.0718 99.6597L62.4983 99.592C62.0871 99.5434 61.7493 99.2826 61.4851 98.9873C61.2135 98.6838 60.9631 98.2812 60.733 97.826C60.2715 96.913 59.8496 95.7038 59.4927 94.4237C58.7802 91.8685 58.2964 88.9192 58.2964 87.2708H58.7964C58.2964 87.2708 58.2964 87.2707 58.2964 87.2703V87.2689V87.2633L58.2964 87.2411L58.2964 87.1536L58.2967 86.8125C58.297 86.5137 58.2977 86.0756 58.299 85.5181C58.3016 84.403 58.3069 82.8101 58.3175 80.8988C58.3386 77.0762 58.3809 71.9788 58.4654 66.8811C58.5499 61.7847 58.6768 56.6829 58.8673 52.8534C58.9625 50.9404 59.074 49.3351 59.2053 48.204C59.2706 47.6416 59.3428 47.1782 59.4251 46.8478C59.4652 46.6867 59.5146 46.528 59.5809 46.3992C59.6137 46.3356 59.664 46.2523 59.7408 46.1791C59.8201 46.1035 59.9582 46.0116 60.1482 46.0117L63.0568 99.0825ZM63.0568 99.0825L62.557 99.0954L63.0568 99.0825ZM56.6712 6.21502L56.7015 6.19135L56.7277 6.16335C57.8925 4.92123 58.5422 4.01926 58.91 3.08674C59.0579 2.7117 59.1574 2.33788 59.2291 1.94608C60.0736 3.84755 61.0462 5.82096 62.1134 7.33266C62.3508 7.82797 62.7904 8.38047 63.339 8.99245C63.8074 9.51493 64.386 10.1132 65.0421 10.7918C65.1882 10.9429 65.3382 11.0981 65.4917 11.2572C67.1836 13.0116 69.3457 15.3026 71.6508 18.3362C76.2564 24.3973 81.4468 33.4418 84.5367 47.0757C84.9963 49.7972 85.5444 53.9257 85.4959 57.8778L85.4957 57.8778L85.4959 57.89C85.5901 65.6223 84.0609 73.2882 81.0071 80.3923C77.9533 87.4963 73.4429 93.8804 67.7674 99.1316L67.7655 99.1334C66.5685 100.253 65.6667 101.059 63.6391 102.498L63.4823 102.609L63.4405 102.797C62.358 107.655 61.536 112.559 60.9743 117.5H59.5111C59.0704 112.944 58.5433 108.397 57.9301 103.862L57.9012 103.647L57.7253 103.522L57.3845 103.278C57.3838 103.278 57.3832 103.277 57.3826 103.277C54.3566 101.078 32.1883 83.8974 33.5612 55.1102L33.0618 55.0863L33.5612 55.1101C35.0359 24.1557 53.1713 8.95542 56.6712 6.21502Z" stroke="#F8FBFF"/>
</svg>
