<svg width="119" height="118" viewBox="0 0 119 118" fill="none" xmlns="http://www.w3.org/2000/svg">
<path d="M37.959 107.803L37.9589 107.803L54.2335 116.341C54.2343 116.341 54.235 116.342 54.2358 116.342C55.7191 117.105 57.4136 117.5 59.1167 117.5C60.8489 117.5 62.5383 117.104 64.0158 116.341L64.0173 116.341L112.773 91.3748C112.773 91.3746 112.773 91.3744 112.774 91.3742C114.257 90.6081 115.481 89.5148 116.329 88.2088C117.177 86.9035 117.622 85.4295 117.625 83.9328M37.959 107.803L117.625 83.9328M37.959 107.803L37.9488 107.798C37.3564 107.504 37.0315 107.279 36.8705 107.121C36.8542 107.105 36.8406 107.091 36.8291 107.078C36.848 107.067 36.8714 107.054 36.9004 107.039C37.0439 106.966 37.23 106.903 37.4312 106.84C40.699 105.834 41.3794 105.593 44.8704 103.84L44.8713 103.839C45.0373 103.755 45.3351 103.767 45.6207 103.918L45.6218 103.919L58.1298 110.502L58.1396 110.507L58.1497 110.512C58.4501 110.654 58.782 110.726 59.1167 110.726C59.4514 110.726 59.7832 110.654 60.0837 110.512L60.0912 110.509L60.0985 110.505L108.861 85.548L108.861 85.5481L108.869 85.5439C109.167 85.3843 109.421 85.155 109.601 84.8727C109.78 84.5902 109.877 84.2662 109.876 83.9328M37.959 107.803L109.876 83.9328M117.625 83.9328C117.625 83.9324 117.625 83.9321 117.625 83.9318M117.625 83.9328L117.625 83.9318M117.625 83.9318L117.625 34.0292C117.625 30.9977 115.787 28.1349 112.774 26.5929L112.774 26.5928L64.0221 1.60909M117.625 83.9318L64.0221 1.60909M64.0221 1.60909C62.5224 0.882345 60.8373 0.5 59.1222 0.5C57.4072 0.5 55.7221 0.882343 54.2224 1.60908L5.46489 26.5928L5.46445 26.593C2.4586 28.1296 0.625 30.9966 0.625 34.0292V83.9328C0.624876 85.4291 1.06709 86.9034 1.91342 88.209C2.75997 89.5151 3.98268 90.6084 5.46526 91.3742C5.46561 91.3744 5.46595 91.3746 5.46629 91.3748L18.2471 97.8912C21.318 99.2338 23.3825 99.8951 25.0145 100.224C26.6434 100.552 27.8596 100.552 29.266 100.552C33.7655 100.552 37.238 99.3469 39.5822 97.1564C41.9216 94.9704 43.2034 91.7417 43.2034 87.5563V38.2869C43.2034 37.9317 42.8504 37.543 42.2896 37.543H36.1077C35.5303 37.543 35.1884 37.9268 35.1884 38.2869V87.5563C35.1884 89.6564 33.964 91.722 31.7878 92.8232C29.6056 93.9275 26.5218 94.0415 22.7981 92.3891L22.7853 92.3835L22.7729 92.3771L9.42387 85.5368C9.4225 85.5361 9.42112 85.5355 9.41975 85.5348C9.11494 85.384 8.85304 85.1604 8.6665 84.8807C8.47867 84.5991 8.3755 84.2725 8.37396 83.9351L8.37395 83.9328L8.37395 34.0292V34.0228H8.374C8.37829 33.6854 8.48058 33.3587 8.66532 33.0747C8.84967 32.7912 9.10857 32.5614 9.41169 32.4018L9.41679 32.3991L9.4168 32.3992L58.1459 7.45718L58.1519 7.45412L58.1519 7.45416C58.4524 7.30543 58.7872 7.22892 59.125 7.22892C59.4628 7.22892 59.7976 7.30543 60.0981 7.45416L60.104 7.45711L60.104 7.45714L108.844 32.3942L108.852 32.3982L108.852 32.3983C109.154 32.5597 109.412 32.7916 109.594 33.0768C109.776 33.3626 109.875 33.6905 109.876 34.0283V34.0292L109.876 83.9312M64.0221 1.60909L109.876 83.9312M109.876 83.9312L109.876 83.9328M109.876 83.9312C109.876 83.9317 109.876 83.9323 109.876 83.9328M36.7735 107.002C36.7738 107.002 36.7753 107.005 36.7769 107.01C36.7738 107.005 36.7731 107.002 36.7735 107.002ZM87.9333 51.0963L87.9329 51.0947C87.1494 48.0064 85.7783 45.8885 83.2506 44.5776C80.7706 43.2915 77.2371 42.8166 72.2179 42.8166C66.5802 42.8166 63.3239 43.6836 61.4685 44.9626C59.5614 46.2773 59.1988 47.9783 59.1988 49.3788C59.1988 50.1968 59.2965 50.9677 59.7639 51.6493C60.2288 52.3273 61.0057 52.8398 62.1884 53.2782C64.5344 54.1478 68.7716 54.8262 76.3235 55.7114C83.8251 56.59 89.2573 57.6447 92.8133 59.6004C94.5769 60.5703 95.8598 61.7525 96.7066 63.2312C97.5545 64.7118 97.987 66.5277 97.987 68.7995C97.987 73.3241 95.8748 76.8732 91.8648 79.3156C87.8275 81.7746 81.8523 83.1157 74.1697 83.1132H74.1695C63.5544 83.1132 57.2362 80.9516 53.5783 77.9733C49.94 75.011 48.8607 71.1801 48.8607 67.6441L48.8607 67.6418C48.8603 67.553 48.8796 67.4633 48.9197 67.3772C48.9599 67.2909 49.021 67.2083 49.1029 67.136C49.1848 67.0636 49.2853 67.0037 49.3998 66.9622C49.5144 66.9207 49.6388 66.8992 49.7654 66.9001H49.7689H56.0728L56.0749 66.9001C56.3088 66.8992 56.5282 66.973 56.6939 67.0978C56.8576 67.2212 56.9535 67.3818 56.983 67.5431C57.4723 70.462 58.4687 72.7717 61.0894 74.3061C63.6545 75.8079 67.7074 76.522 74.1695 76.522C79.3192 76.522 83.0757 76.009 85.5591 74.8402C86.8112 74.2509 87.7597 73.4858 88.3921 72.5185C89.0256 71.5496 89.3177 70.415 89.3177 69.1289C89.3177 68.4002 89.2385 67.64 88.8034 66.9171C88.368 66.1939 87.6175 65.5744 86.4089 65.0298C84.017 63.952 79.6363 63.0844 71.6569 62.3916C64.9859 61.8066 59.6788 60.8645 56.0463 58.9334C54.2409 57.9737 52.8672 56.7786 51.9418 55.2758C51.0169 53.7741 50.5184 51.9307 50.5184 49.6394C50.5184 45.4633 52.4901 42.1342 56.1695 39.826C59.872 37.5031 65.317 36.2106 72.2179 36.2106C79.9905 36.2106 85.7165 37.4098 89.6071 39.8289C93.4648 42.2274 95.5708 45.8583 96.0487 50.8815L96.0488 50.8822C96.0581 50.9785 96.0449 51.0764 96.0085 51.1708C95.9724 51.2644 95.9133 51.355 95.8309 51.435C95.7471 51.5126 95.6436 51.5775 95.5249 51.6234C95.4054 51.6695 95.2748 51.6946 95.1413 51.696L88.8194 51.696C88.819 51.696 88.8187 51.696 88.8184 51.696C88.5979 51.6951 88.3906 51.6274 88.2302 51.5129C88.0704 51.3987 87.9715 51.2491 87.9333 51.0963ZM96.4751 51.3506C96.539 51.1847 96.5633 51.0088 96.5465 50.8341L88.8177 52.196H95.1437C95.337 52.1943 95.5278 52.1582 95.705 52.0898C95.8821 52.0214 96.042 51.9221 96.175 51.7978C96.3089 51.6688 96.4111 51.5165 96.4751 51.3506Z" stroke="#F8FBFF"/>
</svg>
