<svg width="118" height="118" viewBox="0 0 118 118" fill="none" xmlns="http://www.w3.org/2000/svg">
<mask id="path-1-inside-1_233_183" fill="white">
<path d="M115.791 72.3871C115.724 72.1811 115.631 71.9844 115.515 71.8015C114.831 70.5075 113.17 70.121 110.562 70.6604C102.433 72.3374 99.2852 71.3054 98.144 70.5665C104.742 60.4961 110.165 48.3333 113.096 36.9871C114.43 31.8212 117.021 19.6622 113.697 13.7234C113.485 13.3169 113.236 12.9302 112.955 12.568C106.615 4.46729 97.3111 0.12194 86.048 0.00246523C78.6991 -0.0752181 72.4264 1.70412 70.7272 2.35952C69.8856 2.20243 69.0397 2.06865 68.1907 1.95832C66.0623 1.5729 63.9058 1.36274 61.743 1.32997C55.9305 1.2395 50.9076 2.62895 46.7481 5.46291C42.5331 3.88417 23.2032 -2.625 11.2405 5.85035C4.55921 10.5836 1.47499 19.0437 2.07285 30.9961C2.27394 35.018 4.56511 47.3883 8.18083 59.2355C10.4415 66.6425 12.7961 72.5199 15.2284 76.847C17.9473 81.7352 20.7641 84.6807 23.657 85.6454C25.8567 86.3785 29.2261 86.3539 32.7927 82.0665C36.7319 77.3293 40.6117 73.0897 42.3536 71.216C44.4929 72.3738 46.8101 72.9982 49.1878 73.0705C49.1882 73.0773 49.1889 73.084 49.1898 73.0907C48.7757 73.5839 48.3705 74.0845 47.9744 74.5922C46.3081 76.7074 45.9615 77.1474 40.5984 78.2517C39.0732 78.5664 35.0209 79.4017 34.9619 82.2416C34.9496 82.8434 35.1237 83.3768 35.4138 83.8483C36.5293 85.9286 39.945 86.846 40.4042 86.9611C46.9655 88.6008 52.7175 87.4134 56.9802 83.6242C56.8966 94.5932 57.3613 105.343 58.6784 108.637C59.766 111.356 62.424 118.001 70.8187 118C72.0503 118 73.4063 117.857 74.8975 117.537C83.6585 115.659 87.4631 111.787 88.9346 103.25C89.6736 98.9691 90.9091 89.1131 91.5837 83.0858C91.6668 82.7401 91.7592 82.4923 91.864 82.4161C91.8674 82.4137 92.2067 82.1846 93.9644 82.5671C94.0362 82.5826 94.109 82.5938 94.1822 82.6005L95.4305 82.7101L95.5038 82.7151C99.6672 82.9039 104.901 82.0139 107.949 80.597C111.114 79.1279 116.827 75.5215 115.791 72.3871ZM11.6151 58.3928C7.95958 46.4168 5.82378 34.3744 5.65464 30.9976C5.12069 20.3216 7.70539 12.89 13.336 8.90852C22.3664 2.52373 37.1316 6.24958 43.367 8.26935C43.3512 8.28508 43.3345 8.29934 43.3188 8.31557C33.3684 18.3652 33.6044 35.5342 33.629 36.5839C33.628 36.9886 33.6615 37.5619 33.7087 38.3505C33.8798 41.2381 34.1984 46.6125 33.3473 52.6993C32.5562 58.3554 34.2996 63.8916 38.1302 67.8879C38.5265 68.3014 38.9405 68.6898 39.3682 69.0551C37.6631 70.8811 33.9579 74.9187 30.0143 79.6633C27.2231 83.0189 25.2957 82.3758 24.662 82.1644C22.7351 81.5218 20.6647 79.2778 18.5747 75.6631C16.2166 71.538 13.8375 65.6739 11.6151 58.3928ZM41.1505 83.4044C40.3093 83.1939 39.5423 82.8478 39.0255 82.5331C39.4626 82.3394 40.1928 82.0897 41.4018 81.8404C47.7113 80.5419 48.6858 79.6249 50.8137 76.9227C51.3015 76.3032 51.8541 75.6016 52.6196 74.7466C52.7843 74.562 52.9078 74.3444 52.982 74.1084C53.8218 73.3645 54.3213 73.5681 55.1301 73.9034C55.8971 74.221 56.6434 75.1817 56.9468 76.2398C57.0899 76.7393 57.2511 77.6878 56.7246 78.4248C52.2784 84.6483 45.8017 84.5677 41.1505 83.4044ZM51.446 63.7967L51.1879 64.49C50.534 66.2432 49.9258 67.8731 49.5487 69.4214C46.2673 69.411 43.0744 68.0093 40.6471 65.4762C37.5599 62.2553 36.1576 57.7748 36.7998 53.1826C37.6985 46.7521 37.3667 41.1525 37.1882 38.1445C37.1636 37.7231 37.1415 37.3544 37.1282 37.0633C38.5821 35.7747 45.3189 32.1653 50.1225 33.2657C52.3148 33.7682 53.6507 35.2604 54.2057 37.8283C57.08 51.122 54.5863 56.6626 52.5823 61.1152C52.1693 62.0326 51.7794 62.8994 51.446 63.7967ZM87.6509 86.2782C87.5678 87.1474 87.4749 88.1268 87.347 89.208L86.6292 91.363C86.5722 91.5338 86.542 91.7124 86.5397 91.8925C86.5107 94.2265 86.2742 95.0829 85.9743 96.1666C85.6626 97.2935 85.3091 98.5713 85.0922 101.366C84.5514 108.32 80.7744 112.314 73.2077 113.935C65.7565 115.534 64.4349 111.493 63.2701 107.929C63.1508 107.555 63.0248 107.184 62.892 106.815C61.833 103.934 61.9524 99.8728 62.1181 94.252C62.1993 91.4928 61.9957 84.904 60.4947 81.2415C60.5163 79.8 60.5468 78.3363 60.5881 76.8568C60.5931 76.6695 60.5677 76.4825 60.5128 76.3032C60.4653 75.9576 60.3932 75.6159 60.297 75.2806C59.6942 73.1748 58.2256 71.4131 56.4635 70.683C55.7633 70.3929 54.4781 69.8609 52.9343 70.2557C53.2637 68.8987 53.8345 67.3672 54.4535 65.7083L54.7136 65.0101C55.0062 64.2235 55.3725 63.4088 55.7609 62.5459C57.8578 57.8869 60.7297 51.5065 57.6125 37.0913C56.4453 31.6923 52.5464 29.056 46.6365 29.6682C43.0931 30.0349 39.852 31.4647 38.2349 32.2843C37.9107 32.4486 37.5898 32.6193 37.2723 32.7961C37.7236 27.3563 39.4287 17.1901 45.8061 10.7582C46.2798 10.2808 46.7776 9.8279 47.2973 9.40116C47.5554 9.35084 47.7987 9.24257 48.0088 9.08453C51.7081 6.27908 56.3401 4.90242 61.7853 4.99141C63.7967 5.02435 65.727 5.15808 67.5584 5.38966C77.0918 7.13212 83.5076 12.5031 87.4016 17.1046C91.4052 21.8359 93.573 26.6011 94.4383 29.1716C87.9326 28.5098 83.5066 29.795 81.2631 33.0017C76.3829 39.9779 83.9329 53.5184 87.5619 60.0256C88.2271 61.2184 88.8019 62.2489 88.9823 62.687C90.1638 65.551 91.6939 67.4626 92.8109 68.8584C93.1531 69.2862 93.4855 69.7011 93.7377 70.063C91.7671 70.6309 88.2271 71.9436 88.5496 78.5049C88.4892 79.2734 88.3417 80.7022 88.1396 82.511C87.9129 83.5322 87.7944 84.7742 87.6509 86.2782ZM92.0292 78.3078C91.83 74.2191 93.3522 73.7918 94.9629 73.3395C95.1858 73.2784 95.4071 73.2118 95.6267 73.1398C95.8345 73.3239 96.055 73.4932 96.2865 73.6463C99.0905 75.4974 104.066 75.7177 111.07 74.3071C110.079 75.1768 108.519 76.2708 106.383 77.2625C104.368 78.1981 100.996 78.8997 97.792 79.0502C94.2535 79.2154 92.453 78.6534 92.0292 78.3078ZM94.8292 32.7244C94.8002 34.4491 94.5627 36.0146 94.311 37.6494C94.0406 39.4076 93.7603 41.2258 93.6895 43.4324C93.6197 45.58 93.8882 47.8126 94.1478 49.972C94.6719 54.3331 95.2098 58.8235 93.1276 63.2539C92.7819 62.6412 92.4739 62.0081 92.2052 61.358C91.9461 60.7307 91.3846 59.7228 90.6068 58.3284C87.5801 52.8999 80.4912 40.1879 84.1202 35.0008C85.9861 32.3325 90.7125 32.2174 94.8292 32.7244ZM95.9522 67.2084C95.8134 67.0316 95.6736 66.8556 95.5328 66.6803L95.3582 66.462C98.9287 60.5645 98.2306 54.7299 97.6091 49.5561C97.3539 47.4331 97.113 45.428 97.174 43.545C97.2374 41.5483 97.5014 39.8363 97.7566 38.1804C98.0708 36.14 98.3899 34.0292 98.3018 31.5404C98.3677 31.2793 98.3943 30.9711 98.3599 30.6053C98.1352 28.2182 95.4104 21.0768 89.857 14.6114C86.8696 11.1338 82.5331 7.25012 76.6366 4.58382C79.2183 4.0597 82.6978 3.58327 86.5899 3.66981C96.6764 3.89401 104.657 7.66952 110.309 14.8916C110.429 15.0484 110.538 15.213 110.637 15.3843C114.192 22.0493 109.279 46.2368 95.9522 67.2084ZM52.6039 37.1371C52.481 38.0191 51.0851 39.2144 49.5502 39.2144C49.4171 39.2144 49.2842 39.2052 49.1524 39.1868C48.2315 39.059 47.3013 38.4788 46.6651 37.6351C46.4399 37.3377 46.0736 36.76 46.1463 36.2368C46.1734 36.0397 46.2747 35.7525 46.6011 35.5052C47.1823 35.0657 48.3308 34.9024 49.5983 35.0789C51.1535 35.2958 52.7578 36.0318 52.6039 37.1371ZM91.5955 35.1143C91.6501 35.5037 91.3546 36.1026 90.8428 36.6395C90.507 36.992 89.8004 37.6037 88.8373 37.7369C88.7151 37.7539 88.5919 37.7624 88.4685 37.7625C87.0255 37.7625 85.8066 36.61 85.7117 35.9349C85.5937 35.0671 87.0102 34.4078 88.4705 34.2043C89.9307 34.0007 91.4751 34.2475 91.5955 35.1143Z"/>
</mask>
<path d="M115.791 72.3871C115.724 72.1811 115.631 71.9844 115.515 71.8015C114.831 70.5075 113.17 70.121 110.562 70.6604C102.433 72.3374 99.2852 71.3054 98.144 70.5665C104.742 60.4961 110.165 48.3333 113.096 36.9871C114.43 31.8212 117.021 19.6622 113.697 13.7234C113.485 13.3169 113.236 12.9302 112.955 12.568C106.615 4.46729 97.3111 0.12194 86.048 0.00246523C78.6991 -0.0752181 72.4264 1.70412 70.7272 2.35952C69.8856 2.20243 69.0397 2.06865 68.1907 1.95832C66.0623 1.5729 63.9058 1.36274 61.743 1.32997C55.9305 1.2395 50.9076 2.62895 46.7481 5.46291C42.5331 3.88417 23.2032 -2.625 11.2405 5.85035C4.55921 10.5836 1.47499 19.0437 2.07285 30.9961C2.27394 35.018 4.56511 47.3883 8.18083 59.2355C10.4415 66.6425 12.7961 72.5199 15.2284 76.847C17.9473 81.7352 20.7641 84.6807 23.657 85.6454C25.8567 86.3785 29.2261 86.3539 32.7927 82.0665C36.7319 77.3293 40.6117 73.0897 42.3536 71.216C44.4929 72.3738 46.8101 72.9982 49.1878 73.0705C49.1882 73.0773 49.1889 73.084 49.1898 73.0907C48.7757 73.5839 48.3705 74.0845 47.9744 74.5922C46.3081 76.7074 45.9615 77.1474 40.5984 78.2517C39.0732 78.5664 35.0209 79.4017 34.9619 82.2416C34.9496 82.8434 35.1237 83.3768 35.4138 83.8483C36.5293 85.9286 39.945 86.846 40.4042 86.9611C46.9655 88.6008 52.7175 87.4134 56.9802 83.6242C56.8966 94.5932 57.3613 105.343 58.6784 108.637C59.766 111.356 62.424 118.001 70.8187 118C72.0503 118 73.4063 117.857 74.8975 117.537C83.6585 115.659 87.4631 111.787 88.9346 103.25C89.6736 98.9691 90.9091 89.1131 91.5837 83.0858C91.6668 82.7401 91.7592 82.4923 91.864 82.4161C91.8674 82.4137 92.2067 82.1846 93.9644 82.5671C94.0362 82.5826 94.109 82.5938 94.1822 82.6005L95.4305 82.7101L95.5038 82.7151C99.6672 82.9039 104.901 82.0139 107.949 80.597C111.114 79.1279 116.827 75.5215 115.791 72.3871ZM11.6151 58.3928C7.95958 46.4168 5.82378 34.3744 5.65464 30.9976C5.12069 20.3216 7.70539 12.89 13.336 8.90852C22.3664 2.52373 37.1316 6.24958 43.367 8.26935C43.3512 8.28508 43.3345 8.29934 43.3188 8.31557C33.3684 18.3652 33.6044 35.5342 33.629 36.5839C33.628 36.9886 33.6615 37.5619 33.7087 38.3505C33.8798 41.2381 34.1984 46.6125 33.3473 52.6993C32.5562 58.3554 34.2996 63.8916 38.1302 67.8879C38.5265 68.3014 38.9405 68.6898 39.3682 69.0551C37.6631 70.8811 33.9579 74.9187 30.0143 79.6633C27.2231 83.0189 25.2957 82.3758 24.662 82.1644C22.7351 81.5218 20.6647 79.2778 18.5747 75.6631C16.2166 71.538 13.8375 65.6739 11.6151 58.3928ZM41.1505 83.4044C40.3093 83.1939 39.5423 82.8478 39.0255 82.5331C39.4626 82.3394 40.1928 82.0897 41.4018 81.8404C47.7113 80.5419 48.6858 79.6249 50.8137 76.9227C51.3015 76.3032 51.8541 75.6016 52.6196 74.7466C52.7843 74.562 52.9078 74.3444 52.982 74.1084C53.8218 73.3645 54.3213 73.5681 55.1301 73.9034C55.8971 74.221 56.6434 75.1817 56.9468 76.2398C57.0899 76.7393 57.2511 77.6878 56.7246 78.4248C52.2784 84.6483 45.8017 84.5677 41.1505 83.4044ZM51.446 63.7967L51.1879 64.49C50.534 66.2432 49.9258 67.8731 49.5487 69.4214C46.2673 69.411 43.0744 68.0093 40.6471 65.4762C37.5599 62.2553 36.1576 57.7748 36.7998 53.1826C37.6985 46.7521 37.3667 41.1525 37.1882 38.1445C37.1636 37.7231 37.1415 37.3544 37.1282 37.0633C38.5821 35.7747 45.3189 32.1653 50.1225 33.2657C52.3148 33.7682 53.6507 35.2604 54.2057 37.8283C57.08 51.122 54.5863 56.6626 52.5823 61.1152C52.1693 62.0326 51.7794 62.8994 51.446 63.7967ZM87.6509 86.2782C87.5678 87.1474 87.4749 88.1268 87.347 89.208L86.6292 91.363C86.5722 91.5338 86.542 91.7124 86.5397 91.8925C86.5107 94.2265 86.2742 95.0829 85.9743 96.1666C85.6626 97.2935 85.3091 98.5713 85.0922 101.366C84.5514 108.32 80.7744 112.314 73.2077 113.935C65.7565 115.534 64.4349 111.493 63.2701 107.929C63.1508 107.555 63.0248 107.184 62.892 106.815C61.833 103.934 61.9524 99.8728 62.1181 94.252C62.1993 91.4928 61.9957 84.904 60.4947 81.2415C60.5163 79.8 60.5468 78.3363 60.5881 76.8568C60.5931 76.6695 60.5677 76.4825 60.5128 76.3032C60.4653 75.9576 60.3932 75.6159 60.297 75.2806C59.6942 73.1748 58.2256 71.4131 56.4635 70.683C55.7633 70.3929 54.4781 69.8609 52.9343 70.2557C53.2637 68.8987 53.8345 67.3672 54.4535 65.7083L54.7136 65.0101C55.0062 64.2235 55.3725 63.4088 55.7609 62.5459C57.8578 57.8869 60.7297 51.5065 57.6125 37.0913C56.4453 31.6923 52.5464 29.056 46.6365 29.6682C43.0931 30.0349 39.852 31.4647 38.2349 32.2843C37.9107 32.4486 37.5898 32.6193 37.2723 32.7961C37.7236 27.3563 39.4287 17.1901 45.8061 10.7582C46.2798 10.2808 46.7776 9.8279 47.2973 9.40116C47.5554 9.35084 47.7987 9.24257 48.0088 9.08453C51.7081 6.27908 56.3401 4.90242 61.7853 4.99141C63.7967 5.02435 65.727 5.15808 67.5584 5.38966C77.0918 7.13212 83.5076 12.5031 87.4016 17.1046C91.4052 21.8359 93.573 26.6011 94.4383 29.1716C87.9326 28.5098 83.5066 29.795 81.2631 33.0017C76.3829 39.9779 83.9329 53.5184 87.5619 60.0256C88.2271 61.2184 88.8019 62.2489 88.9823 62.687C90.1638 65.551 91.6939 67.4626 92.8109 68.8584C93.1531 69.2862 93.4855 69.7011 93.7377 70.063C91.7671 70.6309 88.2271 71.9436 88.5496 78.5049C88.4892 79.2734 88.3417 80.7022 88.1396 82.511C87.9129 83.5322 87.7944 84.7742 87.6509 86.2782ZM92.0292 78.3078C91.83 74.2191 93.3522 73.7918 94.9629 73.3395C95.1858 73.2784 95.4071 73.2118 95.6267 73.1398C95.8345 73.3239 96.055 73.4932 96.2865 73.6463C99.0905 75.4974 104.066 75.7177 111.07 74.3071C110.079 75.1768 108.519 76.2708 106.383 77.2625C104.368 78.1981 100.996 78.8997 97.792 79.0502C94.2535 79.2154 92.453 78.6534 92.0292 78.3078ZM94.8292 32.7244C94.8002 34.4491 94.5627 36.0146 94.311 37.6494C94.0406 39.4076 93.7603 41.2258 93.6895 43.4324C93.6197 45.58 93.8882 47.8126 94.1478 49.972C94.6719 54.3331 95.2098 58.8235 93.1276 63.2539C92.7819 62.6412 92.4739 62.0081 92.2052 61.358C91.9461 60.7307 91.3846 59.7228 90.6068 58.3284C87.5801 52.8999 80.4912 40.1879 84.1202 35.0008C85.9861 32.3325 90.7125 32.2174 94.8292 32.7244ZM95.9522 67.2084C95.8134 67.0316 95.6736 66.8556 95.5328 66.6803L95.3582 66.462C98.9287 60.5645 98.2306 54.7299 97.6091 49.5561C97.3539 47.4331 97.113 45.428 97.174 43.545C97.2374 41.5483 97.5014 39.8363 97.7566 38.1804C98.0708 36.14 98.3899 34.0292 98.3018 31.5404C98.3677 31.2793 98.3943 30.9711 98.3599 30.6053C98.1352 28.2182 95.4104 21.0768 89.857 14.6114C86.8696 11.1338 82.5331 7.25012 76.6366 4.58382C79.2183 4.0597 82.6978 3.58327 86.5899 3.66981C96.6764 3.89401 104.657 7.66952 110.309 14.8916C110.429 15.0484 110.538 15.213 110.637 15.3843C114.192 22.0493 109.279 46.2368 95.9522 67.2084ZM52.6039 37.1371C52.481 38.0191 51.0851 39.2144 49.5502 39.2144C49.4171 39.2144 49.2842 39.2052 49.1524 39.1868C48.2315 39.059 47.3013 38.4788 46.6651 37.6351C46.4399 37.3377 46.0736 36.76 46.1463 36.2368C46.1734 36.0397 46.2747 35.7525 46.6011 35.5052C47.1823 35.0657 48.3308 34.9024 49.5983 35.0789C51.1535 35.2958 52.7578 36.0318 52.6039 37.1371ZM91.5955 35.1143C91.6501 35.5037 91.3546 36.1026 90.8428 36.6395C90.507 36.992 89.8004 37.6037 88.8373 37.7369C88.7151 37.7539 88.5919 37.7624 88.4685 37.7625C87.0255 37.7625 85.8066 36.61 85.7117 35.9349C85.5937 35.0671 87.0102 34.4078 88.4705 34.2043C89.9307 34.0007 91.4751 34.2475 91.5955 35.1143Z" stroke="#F8FBFF" stroke-width="2" mask="url(#path-1-inside-1_233_183)"/>
</svg>
