<svg width="118" height="118" viewBox="0 0 118 118" fill="none" xmlns="http://www.w3.org/2000/svg">
<g clip-path="url(#clip0_233_180)">
<mask id="path-1-inside-1_233_180" fill="white">
<path d="M70.0075 0.885L74.4104 1.86833L77.9818 3.14667L80.8682 4.62167L83.0696 6.195L84.733 7.86667L85.9561 9.53833L86.7388 11.1608L87.228 12.6358L87.4237 13.9142L87.5216 14.8975L87.4726 15.5367V41.7917L87.228 44.8892L86.592 47.5933L85.5647 49.855L84.2927 51.7233L82.825 53.2475L81.2106 54.4767L79.4983 55.4108L77.7861 56.0992L76.1716 56.5908L74.704 56.935L73.432 57.1317L72.4046 57.23H43.1982L39.8226 57.4758L36.9362 58.1642L34.49 59.2458L32.4842 60.5733L30.8698 62.1467L29.5489 63.8675L28.5705 65.6375L27.8367 67.4567L27.3474 69.1775L27.005 70.7508L26.8093 72.0783L26.7114 73.1108V88.1558H15.8018L14.7745 88.0083L13.4046 87.6642L11.8391 87.0742L10.1269 86.1892L8.36567 84.9108L6.60448 83.1408L4.89221 80.8792L3.3267 77.9783L1.95688 74.3892L0.929519 70.0625L0.24461 64.9L0 58.8525L0.293532 52.8542L1.07629 47.7408L2.25041 43.4633L3.81592 39.9725L5.57711 37.17L7.534 35.0067L9.58872 33.3842L11.6434 32.2042L13.6003 31.4175L15.3615 30.9258L16.927 30.68L18.1012 30.6308H18.8839L19.1774 30.68H59.0979V26.5992H30.5274L30.4784 13.0783L30.3806 11.2592L30.6252 9.5875L31.1633 8.06333L31.995 6.68667L33.2181 5.40833L34.7347 4.2775L36.5937 3.29417L38.7463 2.40917L41.2413 1.67167L44.0788 1.08167L47.2098 0.59L50.6833 0.295L54.4502 0.0983333L58.5597 0L64.7728 0.245833L70.0075 0.885ZM39.1866 10.62L38.0614 12.2425L37.67 14.2583L38.0614 16.2742L39.1866 17.9458L40.801 19.0275L42.8068 19.47L44.8126 19.0275L46.427 17.9458L47.5522 16.2742L47.9436 14.2583L47.5522 12.2425L46.427 10.62L44.8126 9.53833L42.8068 9.09583L40.801 9.53833L39.1866 10.62ZM103.226 30.0408L104.595 30.3358L106.161 30.9258L107.873 31.8108L109.634 33.1383L111.396 34.8592L113.108 37.17L114.673 40.0708L116.043 43.66L117.07 47.9867L117.755 53.1L118 59.1475L117.706 65.195L116.924 70.3083L115.75 74.5367L114.184 78.0275L112.423 80.83L110.466 83.0425L108.411 84.665L106.357 85.845L104.4 86.6317L102.638 87.0742L101.073 87.32L99.8988 87.4183L99.1161 87.3692H58.9022V91.4008H87.4726L87.5216 104.971L87.6194 106.741L87.3748 108.413L86.8367 109.937L86.005 111.363L84.7819 112.592L83.2653 113.772L81.4063 114.755L79.2537 115.591L76.7587 116.328L73.9212 116.968L70.7902 117.41L67.3167 117.754L63.5498 117.951L59.4403 118L53.2272 117.803L47.9925 117.115L43.5896 116.132L40.0182 114.903L37.1318 113.428L34.9303 111.805L33.267 110.133L32.0439 108.462L31.2612 106.839L30.772 105.364L30.5763 104.135L30.4784 103.152L30.5274 102.513V76.2575L30.772 73.1108L31.408 70.4558L32.4353 68.1942L33.7073 66.3258L35.175 64.7525L36.7894 63.5725L38.5017 62.5892L40.2139 61.9008L41.8284 61.4092L43.296 61.1142L44.568 60.9175L45.5954 60.8192L46.2313 60.77H74.8018L78.1775 60.5242L81.0639 59.8358L83.5099 58.8033L85.5158 57.4267L87.1302 55.8533L88.4511 54.1325L89.4295 52.3625L90.1634 50.5925L90.6526 48.8717L90.995 47.2983L91.1907 45.9217L91.2886 44.8892V29.8442H101.513L102.198 29.8933L103.226 30.0408ZM71.573 100.103L70.4478 101.726L70.0564 103.742L70.4478 105.758L71.573 107.38L73.1874 108.511L75.1932 108.904L77.199 108.511L78.8134 107.38L79.9386 105.758L80.33 103.742L79.9386 101.726L78.8134 100.103L77.199 98.9725L75.1932 98.5792L73.1874 98.9725L71.573 100.103Z"/>
</mask>
<path d="M70.0075 0.885L74.4104 1.86833L77.9818 3.14667L80.8682 4.62167L83.0696 6.195L84.733 7.86667L85.9561 9.53833L86.7388 11.1608L87.228 12.6358L87.4237 13.9142L87.5216 14.8975L87.4726 15.5367V41.7917L87.228 44.8892L86.592 47.5933L85.5647 49.855L84.2927 51.7233L82.825 53.2475L81.2106 54.4767L79.4983 55.4108L77.7861 56.0992L76.1716 56.5908L74.704 56.935L73.432 57.1317L72.4046 57.23H43.1982L39.8226 57.4758L36.9362 58.1642L34.49 59.2458L32.4842 60.5733L30.8698 62.1467L29.5489 63.8675L28.5705 65.6375L27.8367 67.4567L27.3474 69.1775L27.005 70.7508L26.8093 72.0783L26.7114 73.1108V88.1558H15.8018L14.7745 88.0083L13.4046 87.6642L11.8391 87.0742L10.1269 86.1892L8.36567 84.9108L6.60448 83.1408L4.89221 80.8792L3.3267 77.9783L1.95688 74.3892L0.929519 70.0625L0.24461 64.9L0 58.8525L0.293532 52.8542L1.07629 47.7408L2.25041 43.4633L3.81592 39.9725L5.57711 37.17L7.534 35.0067L9.58872 33.3842L11.6434 32.2042L13.6003 31.4175L15.3615 30.9258L16.927 30.68L18.1012 30.6308H18.8839L19.1774 30.68H59.0979V26.5992H30.5274L30.4784 13.0783L30.3806 11.2592L30.6252 9.5875L31.1633 8.06333L31.995 6.68667L33.2181 5.40833L34.7347 4.2775L36.5937 3.29417L38.7463 2.40917L41.2413 1.67167L44.0788 1.08167L47.2098 0.59L50.6833 0.295L54.4502 0.0983333L58.5597 0L64.7728 0.245833L70.0075 0.885ZM39.1866 10.62L38.0614 12.2425L37.67 14.2583L38.0614 16.2742L39.1866 17.9458L40.801 19.0275L42.8068 19.47L44.8126 19.0275L46.427 17.9458L47.5522 16.2742L47.9436 14.2583L47.5522 12.2425L46.427 10.62L44.8126 9.53833L42.8068 9.09583L40.801 9.53833L39.1866 10.62ZM103.226 30.0408L104.595 30.3358L106.161 30.9258L107.873 31.8108L109.634 33.1383L111.396 34.8592L113.108 37.17L114.673 40.0708L116.043 43.66L117.07 47.9867L117.755 53.1L118 59.1475L117.706 65.195L116.924 70.3083L115.75 74.5367L114.184 78.0275L112.423 80.83L110.466 83.0425L108.411 84.665L106.357 85.845L104.4 86.6317L102.638 87.0742L101.073 87.32L99.8988 87.4183L99.1161 87.3692H58.9022V91.4008H87.4726L87.5216 104.971L87.6194 106.741L87.3748 108.413L86.8367 109.937L86.005 111.363L84.7819 112.592L83.2653 113.772L81.4063 114.755L79.2537 115.591L76.7587 116.328L73.9212 116.968L70.7902 117.41L67.3167 117.754L63.5498 117.951L59.4403 118L53.2272 117.803L47.9925 117.115L43.5896 116.132L40.0182 114.903L37.1318 113.428L34.9303 111.805L33.267 110.133L32.0439 108.462L31.2612 106.839L30.772 105.364L30.5763 104.135L30.4784 103.152L30.5274 102.513V76.2575L30.772 73.1108L31.408 70.4558L32.4353 68.1942L33.7073 66.3258L35.175 64.7525L36.7894 63.5725L38.5017 62.5892L40.2139 61.9008L41.8284 61.4092L43.296 61.1142L44.568 60.9175L45.5954 60.8192L46.2313 60.77H74.8018L78.1775 60.5242L81.0639 59.8358L83.5099 58.8033L85.5158 57.4267L87.1302 55.8533L88.4511 54.1325L89.4295 52.3625L90.1634 50.5925L90.6526 48.8717L90.995 47.2983L91.1907 45.9217L91.2886 44.8892V29.8442H101.513L102.198 29.8933L103.226 30.0408ZM71.573 100.103L70.4478 101.726L70.0564 103.742L70.4478 105.758L71.573 107.38L73.1874 108.511L75.1932 108.904L77.199 108.511L78.8134 107.38L79.9386 105.758L80.33 103.742L79.9386 101.726L78.8134 100.103L77.199 98.9725L75.1932 98.5792L73.1874 98.9725L71.573 100.103Z" stroke="#F8FBFF" stroke-width="2" mask="url(#path-1-inside-1_233_180)"/>
</g>
<defs>
<clipPath id="clip0_233_180">
<rect width="118" height="118" fill="white"/>
</clipPath>
</defs>
</svg>
