<svg width="118" height="118" viewBox="0 0 118 118" fill="none" xmlns="http://www.w3.org/2000/svg">
<g clip-path="url(#clip0_233_185)">
<mask id="path-1-inside-1_233_185" fill="white">
<path d="M69.9642 59.0138C69.9642 62.2866 68.8066 65.4255 66.7459 67.7402C64.6853 70.055 61.8903 71.3561 58.9754 71.3576C56.0597 71.3576 53.2634 70.0571 51.2017 67.7422C49.14 65.4273 47.9817 62.2876 47.9817 59.0138C47.9817 55.741 49.1393 52.6021 51.2 50.2874C53.2606 47.9726 56.0557 46.6715 58.9705 46.67C61.8862 46.67 64.6825 47.9705 66.7442 50.2854C68.8059 52.6003 69.9642 55.74 69.9642 59.0138ZM82.9835 0C76.3657 0 67.7074 5.29965 58.9508 14.4747C50.1992 5.34933 41.536 0.110409 34.9231 0.110409C32.9072 0.110409 31.0733 0.623813 29.4853 1.6451C22.7248 6.02283 21.2105 19.6639 24.7013 36.7829C9.735 41.9721 0 50.2694 0 59.0138C0 67.7913 9.78417 76.1107 24.7948 81.2613C21.3334 98.4465 22.8772 112.11 29.6524 116.482C31.2257 117.514 33.0449 118 35.0706 118C41.6835 118 50.3467 112.7 59.1032 103.514C67.8549 112.645 76.5181 117.884 83.131 117.884C85.1468 117.884 86.9807 117.387 88.5688 116.366C95.3243 111.994 96.8436 98.3527 93.3527 81.2282C108.265 76.0831 118 67.7693 118 59.0138C118 50.2363 108.216 41.9169 93.2053 36.7553C96.6666 19.5866 95.1227 5.91242 88.3476 1.53469C86.7841 0.518924 84.9698 0.00552047 82.9835 0ZM82.9589 6.01731V6.05043C84.0652 6.05043 84.9551 6.29333 85.7024 6.75153C88.9769 8.86035 90.3978 16.8816 89.2916 27.1993C89.0261 29.7388 88.5934 32.4162 88.0624 35.1488C83.3424 33.846 78.1996 32.8468 72.7863 32.2009C69.5413 27.2049 66.1734 22.667 62.7809 18.6923C70.6082 10.522 77.9587 6.03939 82.9638 6.02283L82.9589 6.01731ZM34.9231 6.12772C39.8987 6.12772 47.2836 10.5883 55.1306 18.7144C51.7577 22.6891 48.3947 27.1993 45.1989 32.1954C39.7562 32.8413 34.6084 33.8405 29.8933 35.1654C29.3427 32.4603 28.9346 29.8436 28.6445 27.3263C27.5137 17.0141 28.91 8.99836 32.155 6.86194C33.0892 6.3651 34.1217 6.15532 34.9231 6.12772ZM58.9262 22.9651C61.1633 25.5487 63.4004 28.4414 65.6129 31.5992C63.4496 31.4887 61.2371 31.4115 59 31.4115C56.7383 31.4115 54.5012 31.4667 52.3133 31.5992C54.4767 28.4414 56.7137 25.5542 58.9262 22.9651ZM59 37.4619C62.6383 37.4619 66.2619 37.6496 69.8265 37.9753C71.8227 41.1882 73.7697 44.6164 75.6429 48.2434C77.4719 51.7765 79.1337 55.3648 80.6481 58.9862C79.1337 62.6021 77.4719 66.218 75.6675 69.7511C73.7992 73.3946 71.8669 76.8615 69.8658 80.0744C66.2865 80.4222 62.658 80.6154 59 80.6154C55.3617 80.6154 51.7381 80.4222 48.1735 80.102C46.1773 76.8891 44.2303 73.4553 42.3571 69.8339C40.5281 66.3008 38.8662 62.7125 37.3519 59.0911C38.8417 55.4641 40.5281 51.8427 42.3325 48.3041C44.2008 44.6606 46.1331 41.2048 48.1342 37.9919C51.7135 37.6385 55.342 37.4509 59 37.4509V37.4619ZM41.1279 38.8641C39.9479 40.9453 38.7679 43.0762 37.6666 45.2678C36.5603 47.4208 35.5278 49.5848 34.5445 51.7489C33.2416 48.1274 32.1353 44.5171 31.2208 41.0005C34.3675 40.1724 37.6862 39.4327 41.1279 38.8641ZM76.8229 38.8641C80.24 39.4327 83.5342 40.1338 86.6857 41.0005C85.8007 44.4895 84.6945 48.0778 83.4408 51.6716C82.4574 49.5186 81.4249 47.3491 80.2941 45.1905C79.1878 43.0265 78.0078 40.9177 76.8278 38.8641H76.8229ZM91.8827 42.5904C94.2623 43.4185 96.524 44.3404 98.6431 45.3396C107.159 49.4247 112.665 54.7686 112.665 59.0083C112.641 63.248 107.134 68.6139 98.6185 72.6714C96.5535 73.6651 94.2918 74.5594 91.9564 75.393C90.5797 70.1044 88.7803 64.595 86.5481 58.942C88.7606 53.3277 90.5306 47.8459 91.8827 42.5794V42.5904ZM26.0239 42.6125C27.3908 47.9121 29.1952 53.416 31.4322 59.0635C29.2197 64.6778 27.4399 70.1596 26.0927 75.4262C23.7131 74.5981 21.4514 73.6706 19.3569 72.6659C10.8412 68.5973 5.33458 63.248 5.33458 59.0083C5.33458 54.7686 10.8412 49.3916 19.3569 45.3396C21.4219 44.3459 23.6836 43.4516 26.0239 42.6125ZM83.4408 66.2401C84.7437 69.867 85.8499 73.4829 86.7644 76.994C83.6177 77.8607 80.2941 78.5949 76.8524 79.1469C78.0324 77.0768 79.2124 74.9403 80.3187 72.7542C81.4249 70.6013 82.4525 68.4041 83.4408 66.2401ZM34.5445 66.3505C35.5278 68.5145 36.5603 70.673 37.6912 72.8371C38.822 74.99 39.9774 77.0989 41.1574 79.1469C37.7403 78.5839 34.4462 77.8772 31.2946 77.016C32.1796 73.5382 33.2907 69.9388 34.5396 66.345L34.5445 66.3505ZM88.1067 82.8401C88.6573 85.5617 89.09 88.184 89.3555 90.6958C90.4863 101.008 89.09 109.024 85.845 111.166C85.1222 111.663 84.1832 111.872 83.0769 111.872C78.1012 111.872 70.7164 107.417 62.8694 99.2856C66.2422 95.3109 69.6052 90.8062 72.8011 85.8157C78.2438 85.1643 83.3916 84.165 88.1067 82.8401ZM29.9425 82.8953C34.6625 84.1871 39.8053 85.1863 45.2186 85.8322C48.4636 90.8283 51.8315 95.3661 55.224 99.3353C47.3819 107.522 40.0217 112.005 35.0165 112.005C33.9348 111.977 33.0203 111.729 32.2976 111.276C29.0231 109.178 27.6022 101.152 28.7084 90.8338C28.9739 88.2944 29.4115 85.6225 29.9425 82.8953ZM52.3625 86.4284C54.5258 86.5388 56.7383 86.6161 58.9754 86.6161C61.2371 86.6161 63.4742 86.5609 65.6621 86.4284C63.4987 89.5861 61.2617 92.4734 59.0492 95.068C56.8121 92.4734 54.575 89.5861 52.3625 86.4284Z"/>
</mask>
<path d="M69.9642 59.0138C69.9642 62.2866 68.8066 65.4255 66.7459 67.7402C64.6853 70.055 61.8903 71.3561 58.9754 71.3576C56.0597 71.3576 53.2634 70.0571 51.2017 67.7422C49.14 65.4273 47.9817 62.2876 47.9817 59.0138C47.9817 55.741 49.1393 52.6021 51.2 50.2874C53.2606 47.9726 56.0557 46.6715 58.9705 46.67C61.8862 46.67 64.6825 47.9705 66.7442 50.2854C68.8059 52.6003 69.9642 55.74 69.9642 59.0138ZM82.9835 0C76.3657 0 67.7074 5.29965 58.9508 14.4747C50.1992 5.34933 41.536 0.110409 34.9231 0.110409C32.9072 0.110409 31.0733 0.623813 29.4853 1.6451C22.7248 6.02283 21.2105 19.6639 24.7013 36.7829C9.735 41.9721 0 50.2694 0 59.0138C0 67.7913 9.78417 76.1107 24.7948 81.2613C21.3334 98.4465 22.8772 112.11 29.6524 116.482C31.2257 117.514 33.0449 118 35.0706 118C41.6835 118 50.3467 112.7 59.1032 103.514C67.8549 112.645 76.5181 117.884 83.131 117.884C85.1468 117.884 86.9807 117.387 88.5688 116.366C95.3243 111.994 96.8436 98.3527 93.3527 81.2282C108.265 76.0831 118 67.7693 118 59.0138C118 50.2363 108.216 41.9169 93.2053 36.7553C96.6666 19.5866 95.1227 5.91242 88.3476 1.53469C86.7841 0.518924 84.9698 0.00552047 82.9835 0ZM82.9589 6.01731V6.05043C84.0652 6.05043 84.9551 6.29333 85.7024 6.75153C88.9769 8.86035 90.3978 16.8816 89.2916 27.1993C89.0261 29.7388 88.5934 32.4162 88.0624 35.1488C83.3424 33.846 78.1996 32.8468 72.7863 32.2009C69.5413 27.2049 66.1734 22.667 62.7809 18.6923C70.6082 10.522 77.9587 6.03939 82.9638 6.02283L82.9589 6.01731ZM34.9231 6.12772C39.8987 6.12772 47.2836 10.5883 55.1306 18.7144C51.7577 22.6891 48.3947 27.1993 45.1989 32.1954C39.7562 32.8413 34.6084 33.8405 29.8933 35.1654C29.3427 32.4603 28.9346 29.8436 28.6445 27.3263C27.5137 17.0141 28.91 8.99836 32.155 6.86194C33.0892 6.3651 34.1217 6.15532 34.9231 6.12772ZM58.9262 22.9651C61.1633 25.5487 63.4004 28.4414 65.6129 31.5992C63.4496 31.4887 61.2371 31.4115 59 31.4115C56.7383 31.4115 54.5012 31.4667 52.3133 31.5992C54.4767 28.4414 56.7137 25.5542 58.9262 22.9651ZM59 37.4619C62.6383 37.4619 66.2619 37.6496 69.8265 37.9753C71.8227 41.1882 73.7697 44.6164 75.6429 48.2434C77.4719 51.7765 79.1337 55.3648 80.6481 58.9862C79.1337 62.6021 77.4719 66.218 75.6675 69.7511C73.7992 73.3946 71.8669 76.8615 69.8658 80.0744C66.2865 80.4222 62.658 80.6154 59 80.6154C55.3617 80.6154 51.7381 80.4222 48.1735 80.102C46.1773 76.8891 44.2303 73.4553 42.3571 69.8339C40.5281 66.3008 38.8662 62.7125 37.3519 59.0911C38.8417 55.4641 40.5281 51.8427 42.3325 48.3041C44.2008 44.6606 46.1331 41.2048 48.1342 37.9919C51.7135 37.6385 55.342 37.4509 59 37.4509V37.4619ZM41.1279 38.8641C39.9479 40.9453 38.7679 43.0762 37.6666 45.2678C36.5603 47.4208 35.5278 49.5848 34.5445 51.7489C33.2416 48.1274 32.1353 44.5171 31.2208 41.0005C34.3675 40.1724 37.6862 39.4327 41.1279 38.8641ZM76.8229 38.8641C80.24 39.4327 83.5342 40.1338 86.6857 41.0005C85.8007 44.4895 84.6945 48.0778 83.4408 51.6716C82.4574 49.5186 81.4249 47.3491 80.2941 45.1905C79.1878 43.0265 78.0078 40.9177 76.8278 38.8641H76.8229ZM91.8827 42.5904C94.2623 43.4185 96.524 44.3404 98.6431 45.3396C107.159 49.4247 112.665 54.7686 112.665 59.0083C112.641 63.248 107.134 68.6139 98.6185 72.6714C96.5535 73.6651 94.2918 74.5594 91.9564 75.393C90.5797 70.1044 88.7803 64.595 86.5481 58.942C88.7606 53.3277 90.5306 47.8459 91.8827 42.5794V42.5904ZM26.0239 42.6125C27.3908 47.9121 29.1952 53.416 31.4322 59.0635C29.2197 64.6778 27.4399 70.1596 26.0927 75.4262C23.7131 74.5981 21.4514 73.6706 19.3569 72.6659C10.8412 68.5973 5.33458 63.248 5.33458 59.0083C5.33458 54.7686 10.8412 49.3916 19.3569 45.3396C21.4219 44.3459 23.6836 43.4516 26.0239 42.6125ZM83.4408 66.2401C84.7437 69.867 85.8499 73.4829 86.7644 76.994C83.6177 77.8607 80.2941 78.5949 76.8524 79.1469C78.0324 77.0768 79.2124 74.9403 80.3187 72.7542C81.4249 70.6013 82.4525 68.4041 83.4408 66.2401ZM34.5445 66.3505C35.5278 68.5145 36.5603 70.673 37.6912 72.8371C38.822 74.99 39.9774 77.0989 41.1574 79.1469C37.7403 78.5839 34.4462 77.8772 31.2946 77.016C32.1796 73.5382 33.2907 69.9388 34.5396 66.345L34.5445 66.3505ZM88.1067 82.8401C88.6573 85.5617 89.09 88.184 89.3555 90.6958C90.4863 101.008 89.09 109.024 85.845 111.166C85.1222 111.663 84.1832 111.872 83.0769 111.872C78.1012 111.872 70.7164 107.417 62.8694 99.2856C66.2422 95.3109 69.6052 90.8062 72.8011 85.8157C78.2438 85.1643 83.3916 84.165 88.1067 82.8401ZM29.9425 82.8953C34.6625 84.1871 39.8053 85.1863 45.2186 85.8322C48.4636 90.8283 51.8315 95.3661 55.224 99.3353C47.3819 107.522 40.0217 112.005 35.0165 112.005C33.9348 111.977 33.0203 111.729 32.2976 111.276C29.0231 109.178 27.6022 101.152 28.7084 90.8338C28.9739 88.2944 29.4115 85.6225 29.9425 82.8953ZM52.3625 86.4284C54.5258 86.5388 56.7383 86.6161 58.9754 86.6161C61.2371 86.6161 63.4742 86.5609 65.6621 86.4284C63.4987 89.5861 61.2617 92.4734 59.0492 95.068C56.8121 92.4734 54.575 89.5861 52.3625 86.4284Z" stroke="#F8FBFF" stroke-width="2" mask="url(#path-1-inside-1_233_185)"/>
</g>
<defs>
<clipPath id="clip0_233_185">
<rect width="118" height="118" fill="white"/>
</clipPath>
</defs>
</svg>
