<svg width="119" height="118" viewBox="0 0 119 118" fill="none" xmlns="http://www.w3.org/2000/svg">
<path d="M91.2538 50.4181L91.254 50.4182C102.01 57.1424 110 66.5184 114.226 76.2112C118.454 85.9081 118.897 95.8729 114.654 103.835C111.421 109.9 105.882 114.186 98.6022 116.218C95.526 117.077 92.226 117.5 88.7958 117.5C81.1276 117.5 72.8243 115.374 64.9217 111.342C66.1768 110.441 67.4022 109.511 68.5766 108.539C78.5507 113.178 89.0167 114.623 97.597 112.225C103.789 110.497 108.52 106.901 111.234 101.812L111.234 101.812C115.03 94.6915 114.391 85.7577 110.402 77.1241C106.409 68.4845 99.0398 60.0864 89.2552 53.9699C79.437 47.8321 68.6601 45.0786 59.2821 45.9943C59.4776 45.3245 59.5929 44.619 59.6163 43.8902C59.6193 43.7977 59.6208 43.7048 59.6208 43.6115C59.6208 42.982 59.5524 42.3683 59.4226 41.7785C69.4681 40.9644 80.9036 43.9434 91.2538 50.4181ZM51.7408 36.4154C54.6101 36.4154 57.0874 38.2601 58.1147 40.8959L58.1011 40.8972L58.2753 41.4794C58.4827 42.1727 58.6208 42.8768 58.6208 43.6115C58.6208 43.674 58.6201 43.7362 58.6186 43.7982C58.596 44.7164 58.4077 45.5896 58.0861 46.3909L58.0037 46.5962C56.9166 49.0876 54.5115 50.8077 51.7408 50.8077C47.9607 50.8077 44.8608 47.6058 44.8608 43.6115C44.8608 39.6172 47.9607 36.4154 51.7408 36.4154ZM29.1008 47.4263C29.1008 60.3362 32.8344 71.8772 38.6977 79.7315C37.5071 80.283 36.4741 81.1322 35.6839 82.1867C29.2765 73.6173 25.1808 61.2681 25.1808 47.4263C25.1808 34.4369 28.7447 22.6806 34.4729 14.1859C40.2033 5.68781 48.0612 0.5 56.6608 0.5C64.7116 0.5 72.1091 5.04547 77.7227 12.5986C83.1974 19.9648 86.9449 30.1581 87.8981 41.6383C86.5268 40.9719 85.1451 40.3552 83.7533 39.7949C82.6042 29.9158 79.2727 21.1849 74.5431 14.8921C69.7671 8.53756 63.5305 4.63077 56.6608 4.63077C48.9714 4.63077 42.0695 9.51899 37.1147 17.2633C32.156 25.0136 29.1008 35.6841 29.1008 47.4263ZM35.8965 83.7059L36.1388 83.3154C36.9676 81.9795 38.2132 80.9727 39.6809 80.4465L40.3126 80.2201C40.823 80.0937 41.3548 80.0269 41.9008 80.0269C45.681 80.0269 48.7808 83.2288 48.7808 87.2231C48.7808 91.2174 45.681 94.4192 41.9008 94.4192C38.1207 94.4192 35.0208 91.2174 35.0208 87.2231C35.0208 85.9428 35.3393 84.744 35.8965 83.7059ZM78.2148 78.2496L77.7099 77.987L77.7076 77.9933C75.7183 76.7363 74.3808 74.4545 74.3808 71.8308C74.3808 67.8365 77.4807 64.6346 81.2608 64.6346C85.041 64.6346 88.1408 67.8365 88.1408 71.8308C88.1408 75.1695 85.9751 77.9545 83.0565 78.7788L82.7222 78.8546C82.243 78.9632 81.7589 79.0269 81.2608 79.0269C80.1694 79.0269 79.1459 78.7339 78.2148 78.2496ZM81.2608 80.0269C81.5389 80.0269 81.8135 80.012 82.0839 79.9829C78.2969 90.6686 69.9498 101.249 58.135 108.636C48.8651 114.432 38.6927 117.497 29.4508 117.497C26.0206 117.497 22.7231 117.074 19.6444 116.215C12.365 114.183 6.82521 109.898 3.59215 103.832C-0.195237 96.7264 -0.243678 88.0318 2.80169 79.3513C5.76065 70.917 11.6318 62.5285 19.7632 55.7056C19.9438 57.3099 20.1726 58.8911 20.4536 60.4453C13.6351 66.6031 8.70715 73.9023 6.25079 81.1546C3.76985 88.4795 3.80113 95.7921 7.00976 101.812C9.72198 106.902 14.4527 110.495 20.6472 112.225C31.107 115.146 44.3663 112.444 56.1338 105.084C66.8714 98.3715 74.6168 88.9183 78.2505 79.4084C79.1768 79.8068 80.193 80.0269 81.2608 80.0269Z" stroke="#F8FBFF"/>
</svg>
