<svg width="118" height="118" viewBox="0 0 118 118" fill="none" xmlns="http://www.w3.org/2000/svg">
<path d="M99.8184 18.2521C102.087 15.1697 104.011 11.841 105.556 8.3281C112.591 30.373 116.776 48.8073 115.15 63.2398L115.149 63.2505L115.148 63.2612C114.404 74.0058 110.754 84.3302 104.604 93.0911C98.4545 101.852 90.0445 108.707 80.3067 112.899C70.569 117.09 59.8827 118.455 49.431 116.842C39.6132 115.327 30.3612 111.24 22.5758 104.995C23.3042 105.075 24.0444 105.004 24.7509 104.782C25.7759 104.46 26.6829 103.837 27.3581 102.992L27.3582 102.992L27.3646 102.984C28.2398 101.84 28.6456 100.397 28.4994 98.9572C28.3531 97.5173 27.6656 96.1888 26.5777 95.2506L26.5778 95.2505L26.5696 95.2437C25.738 94.5567 24.7239 94.1353 23.6554 94.0342C22.5869 93.9331 21.5134 94.1569 20.5708 94.6766C19.6283 95.1962 18.8597 95.9879 18.3608 96.9504C17.8619 97.9127 17.6547 99.0033 17.7645 100.085C17.789 100.325 17.8288 100.563 17.8836 100.796C12.7436 95.7096 8.58179 89.6831 5.61828 83.0263C2.45158 75.913 0.717611 68.2249 0.519199 60.4168C0.320786 52.6086 1.66197 44.8393 4.46322 37.5687C7.26446 30.2981 11.4687 23.674 16.8269 18.0882C22.185 12.5023 28.5882 8.0681 35.6574 5.04732C42.7265 2.02655 50.3184 0.480443 57.9839 0.500187C65.6495 0.519931 73.2336 2.10513 80.2877 5.16228C87.3418 8.21944 93.7228 12.6866 99.0532 18.3L99.4644 18.733L99.8184 18.2521ZM27.6838 91.2536C27.783 91.7437 27.7831 91.7436 27.7833 91.7436L27.784 91.7434L27.7869 91.7429L27.7982 91.7406L27.8426 91.7315L28.0165 91.6959C28.1692 91.6645 28.3946 91.6179 28.6852 91.5571C29.2666 91.4356 30.1094 91.2572 31.156 91.03C33.2492 90.5755 36.1583 89.9251 39.4225 89.1415C45.9441 87.576 53.907 85.4732 59.6074 83.3343L59.6079 83.3341C74.3265 77.7943 90.3912 65.0203 98.0235 49.6738C92.9495 65.6899 79.1855 80.4725 65.4073 87.6494L65.4063 87.6499C61.2657 89.8186 57.5968 91.1456 53.2372 92.5398C52.077 92.9108 50.8668 93.2869 49.5858 93.685C46.0559 94.782 41.9882 96.0461 36.9458 97.8323L36.9418 97.8337C36.0961 98.1414 35.3417 98.4487 34.7988 98.6789C34.5272 98.7942 34.3081 98.8903 34.1565 98.9578C34.1317 98.9688 34.1087 98.9791 34.0876 98.9886C34.0441 99.0081 34.0085 99.0241 33.9815 99.0364L33.9353 99.0575L33.9232 99.063L33.92 99.0645L33.9191 99.065L33.9188 99.0651L33.9187 99.0651L34.1286 99.519L33.9187 99.0651L34.1981 100.014C35.9186 99.7726 37.6411 99.5912 38.9347 99.4701C39.5812 99.4095 40.1198 99.3642 40.4965 99.3339C40.6849 99.3188 40.8327 99.3075 40.9333 99.2999L41.0479 99.2915L41.077 99.2894L41.0815 99.2891C45.3521 99.0758 50.1625 99.2275 55.2441 99.3877C55.9181 99.4089 56.5968 99.4303 57.2796 99.451C63.102 99.6276 69.2127 99.754 75.1647 99.3036C87.059 98.4035 98.4335 95.192 105.666 85.3515C113.05 75.3648 114.658 62.3357 113.61 49.2921C112.561 36.2413 108.846 23.099 105.501 12.8175L105.109 11.613L104.572 12.7604C98.6851 25.3514 84.0338 34.9988 71.3709 38.0123L71.369 38.0128C66.1442 39.2773 61.2167 39.5277 56.3547 39.7748C55.6594 39.8101 54.9654 39.8454 54.2721 39.8835C48.745 40.1877 43.2755 40.676 37.6458 42.8953C24.8118 47.8899 18.4974 58.1718 17.1623 68.0912C15.8343 77.9582 19.4337 87.6054 26.6101 91.2072L27.4323 91.6857L27.5966 91.7814L27.783 91.7437L27.6838 91.2536Z" stroke="#F8FBFF"/>
</svg>
