<svg width="120" height="120" viewBox="0 0 120 120" fill="none" xmlns="http://www.w3.org/2000/svg">
<path d="M62.3986 79.1681C55.9606 85.711 49.8461 89.5967 44.6661 91.1553C39.4903 92.7125 35.312 91.9359 32.5978 89.2653C29.8836 86.5946 29.0395 82.4294 30.5129 77.2292C31.9874 72.0246 35.7737 65.848 42.2117 59.3051C48.6487 52.7631 55.178 48.4553 60.781 46.4826C66.4062 44.5022 70.9599 44.9125 73.6421 47.5517C76.3244 50.1909 76.8082 54.7373 74.919 60.3938C73.0373 66.028 68.8356 72.6261 62.3986 79.1681Z" stroke="#F8FBFF"/>
<path d="M73.2294 26.3564C72.0274 27.578 70.1766 27.519 68.8852 26.2483C68.241 25.6145 67.9594 24.8951 67.9711 24.1978C67.9829 23.4966 68.2926 22.7664 68.9263 22.1223C70.2202 20.8073 72.1212 20.5518 73.3249 21.7362C74.5669 22.9582 74.4802 25.0852 73.2294 26.3564Z" stroke="#F8FBFF"/>
<path d="M99.1044 46.8803C97.9024 48.102 96.0516 48.0429 94.7602 46.7722C94.116 46.1384 93.8344 45.419 93.8461 44.7217C93.8579 44.0205 94.1676 43.2903 94.8013 42.6462C96.0952 41.3313 97.9962 41.0758 99.1999 42.2601C100.442 43.4821 100.355 45.6092 99.1044 46.8803Z" stroke="#F8FBFF"/>
<path d="M70.9805 27.7197C71.2383 27.9735 71.2959 28.6673 71.3424 29.0165C71.4914 30.1349 71.4975 31.3449 71.3539 32.4576C71.2311 33.4098 70.9863 34.3396 70.8987 35.2936C70.8399 35.9335 70.6878 36.5569 70.6117 37.2087C70.5452 37.778 70.3832 38.4338 70.1476 38.9494C69.7733 39.7687 69.4783 40.7112 69.1962 41.5809C69.0452 42.0464 68.8026 42.4719 68.6596 42.9504C68.5988 43.1538 68.6134 43.3969 68.4931 43.5893C68.3846 43.7628 68.1524 43.9286 68.1298 44.148C68.1187 44.2557 67.5883 45.1104 67.8818 44.8121" stroke="#F8FBFF" stroke-linecap="round"/>
<path d="M76.4083 52.9095C79.6735 49.5911 82.8554 45.7102 87.6174 44.6244C88.3851 44.4494 89.1017 44.3403 89.874 44.1934C90.6303 44.0495 91.2855 44.2029 92.0356 44.1391C92.3277 44.1143 92.9261 44.3856 93.2237 44.4973C93.2791 44.5181 93.7152 44.7478 93.7446 44.7179C93.8797 44.5806 93.4699 44.4477 93.3326 44.3125" stroke="#F8FBFF" stroke-linecap="round"/>
<path d="M56.2107 47.9987C56.7133 48.4932 56.9371 49.1109 57.2555 49.7303C57.7492 50.6909 58.1872 51.6792 58.6768 52.6388C59.2663 53.7943 59.8969 54.9083 60.5872 56.008C60.9853 56.6423 61.5277 57.171 62.0094 57.7407C62.7077 58.5665 63.4672 59.3644 64.3134 60.0407C65.2953 60.8254 66.5122 61.3671 67.671 61.8303C68.2881 62.0769 69.0022 62.1594 69.6005 62.4327C70.0251 62.6267 70.4355 62.7606 70.8817 62.8952C71.2689 63.0119 71.6777 63.1544 72.0791 63.2422C72.4339 63.3198 72.799 63.436 73.1351 63.5406C73.2975 63.5911 73.4906 63.7362 73.6593 63.7437C73.7073 63.7459 73.9573 63.9052 73.9217 63.8702" stroke="#F8FBFF" stroke-linecap="round"/>
<path d="M54.147 49.3892C54.6741 49.9078 54.9173 50.5471 55.2576 51.1902C55.7854 52.1876 56.2567 53.2122 56.7803 54.2085C57.4106 55.408 58.0825 56.5658 58.8154 57.7102C59.238 58.3702 59.8068 58.9249 60.314 59.5203C61.0494 60.3836 61.8471 61.2194 62.7313 61.932C63.7573 62.7589 65.0198 63.3412 66.221 63.8415C66.8606 64.1079 67.5965 64.2077 68.2173 64.5011C68.6579 64.7094 69.0827 64.8557 69.5443 65.0033C69.9447 65.1314 70.3681 65.2864 70.7826 65.3851C71.149 65.4724 71.5268 65.5995 71.8745 65.714C72.0425 65.7693 72.2441 65.9225 72.4178 65.9338C72.4671 65.937 72.7275 66.106 72.6901 66.0692" stroke="#F8FBFF" stroke-linecap="round"/>
<path d="M36.0376 66.1221C36.6143 66.6896 36.8992 67.3699 37.2861 68.0588C37.8861 69.1271 38.4281 70.2213 39.0236 71.2884C39.7405 72.5731 40.499 73.8162 41.3207 75.048C41.7947 75.7585 42.4168 76.3656 42.9763 77.0125C43.7874 77.9503 44.6626 78.8623 45.6226 79.6495C46.7366 80.563 48.0869 81.2316 49.369 81.8116C50.0517 82.1204 50.8275 82.2595 51.4918 82.5957C51.9633 82.8344 52.4153 83.0074 52.9059 83.1836C53.3315 83.3365 53.7824 83.5186 54.2214 83.6414C54.6094 83.7499 55.0112 83.9006 55.381 84.0368C55.5596 84.1026 55.778 84.2724 55.9606 84.2923C56.0124 84.298 56.2932 84.4871 56.2523 84.4469" stroke="#F8FBFF" stroke-linecap="round"/>
<path d="M33.9751 67.3829C34.5766 67.9747 34.8824 68.6756 35.2925 69.3873C35.9286 70.4912 36.5059 71.6202 37.1374 72.7226C37.8977 74.05 38.6995 75.3356 39.5656 76.6112C40.0652 77.3469 40.7139 77.9802 41.2996 78.6528C42.1486 79.6279 43.0626 80.5781 44.0605 81.4025C45.2184 82.3593 46.6126 83.0711 47.9352 83.6909C48.6395 84.021 49.4352 84.1797 50.1213 84.5373C50.6082 84.7911 51.0738 84.9776 51.5789 85.168C52.0171 85.3333 52.4818 85.529 52.933 85.6638C53.3318 85.7829 53.7456 85.9455 54.1264 86.0925C54.3104 86.1636 54.5372 86.3416 54.7241 86.3659C54.7772 86.3728 55.0682 86.572 55.0256 86.53" stroke="#F8FBFF" stroke-linecap="round"/>
<path d="M46.1539 55.0343C46.7501 55.6314 47.0352 56.3494 47.428 57.0758C48.037 58.2024 48.5842 59.3567 49.1885 60.482C49.9161 61.8369 50.6886 63.1474 51.5282 64.4459C52.0124 65.1947 52.6557 65.8336 53.2319 66.5148C54.0672 67.5024 54.9709 68.4624 55.9671 69.2901C57.1232 70.2505 58.5347 70.9508 59.8763 71.5578C60.5908 71.8811 61.4076 72.0243 62.1018 72.3766C62.5947 72.6266 63.0683 72.8074 63.5828 72.9913C64.0291 73.1508 64.5014 73.3412 64.9626 73.4689C65.3702 73.5817 65.7914 73.7392 66.179 73.8814C66.3663 73.9501 66.5932 74.1285 66.7857 74.1487C66.8403 74.1545 67.1327 74.353 67.0904 74.3107" stroke="#F8FBFF" stroke-linecap="round"/>
<path d="M43.8726 56.4835C44.4935 57.1053 44.7993 57.8439 45.215 58.5935C45.8599 59.7559 46.4421 60.9453 47.082 62.1063C47.8526 63.5041 48.668 64.8577 49.5516 66.2002C50.0613 66.9746 50.731 67.6399 51.3331 68.347C52.2059 69.3722 53.148 70.3707 54.1818 71.236C55.3815 72.2401 56.8366 72.984 58.2183 73.6312C58.9541 73.9758 59.7907 74.1389 60.5065 74.5127C61.0146 74.7781 61.5017 74.9724 62.0306 75.1707C62.4894 75.3427 62.9754 75.5468 63.4486 75.6866C63.867 75.8102 64.3001 75.9796 64.6986 76.1327C64.8912 76.2067 65.1264 76.3934 65.3233 76.4181C65.3792 76.4251 65.6817 76.6337 65.6377 76.5897" stroke="#F8FBFF" stroke-linecap="round"/>
<mask id="path-12-inside-1_176_1220" fill="white">
<path fill-rule="evenodd" clip-rule="evenodd" d="M98.217 50.7478C103.559 48.854 109.425 51.6492 111.318 56.9911C113.212 62.333 110.417 68.1987 105.075 70.0925L80.6738 78.7433C85.9105 85.4761 86.0358 95.1604 80.4431 102.081C73.92 110.153 62.0884 111.408 54.0166 104.885L38.7958 92.585C45.035 92.8255 53.4368 88.7644 62.3925 79.6627C69.6072 72.3304 74.0629 64.8961 75.5955 58.7677L98.217 50.7478Z"/>
</mask>
<path d="M98.217 50.7478L98.5512 51.6904L98.5512 51.6904L98.217 50.7478ZM105.075 70.0925L105.409 71.035L105.409 71.035L105.075 70.0925ZM80.6738 78.7433L80.3397 77.8008L79.0339 78.2637L79.8845 79.3572L80.6738 78.7433ZM80.4431 102.081L81.2209 102.71L80.4431 102.081ZM54.0166 104.885L54.6451 104.108L54.0166 104.885ZM38.7958 92.585L38.8343 91.5858L35.8247 91.4698L38.1672 93.3628L38.7958 92.585ZM75.5955 58.7677L75.2613 57.8252L74.7556 58.0045L74.6254 58.5251L75.5955 58.7677ZM112.261 56.657C110.183 50.7945 103.745 47.727 97.8829 49.8053L98.5512 51.6904C103.373 49.9811 108.667 52.5039 110.376 57.3252L112.261 56.657ZM105.409 71.035C111.272 68.9566 114.339 62.5194 112.261 56.657L110.376 57.3252C112.085 62.1466 109.562 67.4407 104.741 69.15L105.409 71.035ZM81.008 79.6858L105.409 71.035L104.741 69.15L80.3397 77.8008L81.008 79.6858ZM81.2209 102.71C87.112 95.4196 86.9786 85.2205 81.4632 78.1294L79.8845 79.3572C84.8425 85.7317 84.9596 94.9011 79.6653 101.452L81.2209 102.71ZM53.388 105.663C61.8895 112.533 74.3506 111.211 81.2209 102.71L79.6653 101.452C73.4894 109.095 62.2874 110.284 54.6451 104.108L53.388 105.663ZM38.1672 93.3628L53.388 105.663L54.6451 104.108L39.4243 91.8073L38.1672 93.3628ZM61.6797 78.9613C52.7946 87.9913 44.6518 91.81 38.8343 91.5858L38.7572 93.5843C45.4182 93.841 54.0791 89.5375 63.1053 80.3641L61.6797 78.9613ZM74.6254 58.5251C73.1502 64.4237 68.8178 71.7069 61.6797 78.9613L63.1053 80.3641C70.3966 72.9539 74.9755 65.3685 76.5656 59.0103L74.6254 58.5251ZM97.8829 49.8053L75.2613 57.8252L75.9296 59.7102L98.5512 51.6904L97.8829 49.8053Z" fill="#F8FBFF" mask="url(#path-12-inside-1_176_1220)"/>
<path d="M96.3812 60.3189C96.7668 59.6643 91.5849 58.7208 90.9416 58.6515C89.329 58.4777 88.1177 59.2159 86.9973 60.3268C86.1837 61.1335 84.8219 61.9666 85.3576 63.1892C86.2466 65.2181 88.4334 67.3583 90.569 67.8925C92.799 68.4503 94.7903 68.2379 96.7371 67.055C97.582 66.5416 98.456 65.8237 99.0056 64.9848C99.6968 63.9295 99.8885 62.5768 100.367 61.4244C100.787 60.4133 101.38 58.4987 99.998 57.8392C99.4154 57.5612 98.3109 57.6372 97.7116 57.6924C96.7141 57.7842 95.9157 57.9384 95.0522 58.3168" stroke="#F8FBFF" stroke-linecap="round"/>
<path d="M74.4832 90.8647C72.3921 88.8071 70.3009 86.7495 68.2098 84.6919C67.1899 83.6883 66.3035 82.0984 64.7935 83.1053C63.6382 83.8756 62.5733 84.793 61.6012 85.7809C60.5377 86.8618 59.5175 87.7511 59.1595 89.2722C58.103 93.7613 60.8789 97.7171 63.7557 100.875C65.2318 102.495 66.8673 104.502 68.8834 105.457C70.3739 106.163 72.0702 106.335 73.7026 106.167C76.3323 105.898 77.1232 102.848 77.5725 100.715C78.1659 97.8969 77.4535 95.0912 75.9178 92.7007C75.2549 91.6688 74.2946 90.8527 73.426 89.998" stroke="#F8FBFF" stroke-linecap="round"/>
<mask id="path-16-inside-2_176_1220" fill="white">
<path fill-rule="evenodd" clip-rule="evenodd" d="M67.2238 23.2884C68.8139 17.8616 65.7157 12.1326 60.3039 10.4922C54.8922 8.85181 49.216 11.9213 47.626 17.3481L40.4473 41.8482C33.5199 36.9322 23.8685 37.2642 17.2733 43.1608C9.62654 49.9977 8.98416 61.7263 15.8385 69.3574L29.0565 84.0733C28.4652 77.8909 32.0229 69.3692 40.5545 60.0718C47.4291 52.5802 54.5611 47.8236 60.5609 46.0283L67.2238 23.2884Z"/>
</mask>
<path d="M60.3039 10.4922L60.0139 11.4492L60.0139 11.4492L60.3039 10.4922ZM67.2238 23.2884L68.1834 23.5696L67.2238 23.2884ZM47.626 17.3481L48.5856 17.6293L47.626 17.3481ZM40.4473 41.8482L41.407 42.1293L41.0126 43.4755L39.8686 42.6637L40.4473 41.8482ZM17.2733 43.1608L17.9399 43.9063L17.2733 43.1608ZM15.8385 69.3574L16.5825 68.6892L15.8385 69.3574ZM29.0565 84.0733L30.052 83.9781L30.341 86.9998L28.3126 84.7415L29.0565 84.0733ZM60.5609 46.0283L61.5206 46.3095L61.3679 46.8307L60.8476 46.9864L60.5609 46.0283ZM60.594 9.53518C66.5309 11.3347 69.9278 17.6163 68.1834 23.5696L66.2641 23.0072C67.6999 18.107 64.9006 12.9304 60.0139 11.4492L60.594 9.53518ZM46.6663 17.0669C48.4127 11.1066 54.6502 7.73355 60.594 9.53518L60.0139 11.4492C55.1341 9.97007 50.0194 12.736 48.5856 17.6293L46.6663 17.0669ZM39.4877 41.567L46.6663 17.0669L48.5856 17.6293L41.407 42.1293L39.4877 41.567ZM16.6068 42.4153C23.5576 36.2007 33.7266 35.8526 41.0261 41.0326L39.8686 42.6637C33.3132 38.0117 24.1793 38.3276 17.9399 43.9063L16.6068 42.4153ZM15.0946 70.0257C7.87056 61.983 8.54763 49.6209 16.6068 42.4153L17.9399 43.9063C10.7054 50.3745 10.0978 61.4696 16.5825 68.6892L15.0946 70.0257ZM28.3126 84.7415L15.0946 70.0257L16.5825 68.6892L29.8005 83.4051L28.3126 84.7415ZM41.2913 60.748C32.8297 69.9691 29.501 78.2176 30.052 83.9781L28.0611 84.1685C27.4294 77.5642 31.2162 68.7693 39.8177 59.3957L41.2913 60.748ZM60.8476 46.9864C55.0767 48.7131 48.0909 53.338 41.2913 60.748L39.8177 59.3957C46.7673 51.8223 54.0456 46.9341 60.2742 45.0703L60.8476 46.9864ZM68.1834 23.5696L61.5206 46.3095L59.6013 45.7471L66.2641 23.0072L68.1834 23.5696Z" fill="#F8FBFF" mask="url(#path-16-inside-2_176_1220)"/>
<path d="M57.8419 25.4666C58.4702 25.0545 59.7002 30.1559 59.8054 30.7914C60.0692 32.3842 59.4046 33.6197 58.3648 34.7817C57.6097 35.6255 56.8595 37.0146 55.615 36.5376C53.55 35.7461 51.301 33.6715 50.6498 31.5755C49.9697 29.3869 50.068 27.4007 51.1327 25.4153C51.5947 24.5536 52.2581 23.6538 53.0601 23.0708C54.069 22.3373 55.4014 22.0863 56.5187 21.5594C57.499 21.0971 59.3667 20.4229 60.0999 21.7653C60.4089 22.3311 60.3959 23.4309 60.375 24.0282C60.3402 25.0225 60.2322 25.8219 59.9053 26.696" stroke="#F8FBFF" stroke-linecap="round"/>
<path d="M28.7462 48.5706C30.9077 50.554 33.0692 52.5375 35.2308 54.521C36.285 55.4884 37.914 56.297 36.9995 57.841C36.2999 59.0224 35.4491 60.1205 34.523 61.1297C33.5098 62.2339 32.6844 63.2864 31.1941 63.7099C26.796 64.9599 22.7108 62.3818 19.4122 59.6678C17.7196 58.2752 15.634 56.7418 14.5717 54.7834C13.7863 53.3354 13.5204 51.6593 13.5943 50.0315C13.7132 47.4091 16.6968 46.4872 18.79 45.9456C21.5546 45.2303 24.3811 45.8116 26.8418 47.2289C27.9039 47.8406 28.7687 48.7573 29.6666 49.5811" stroke="#F8FBFF" stroke-linecap="round"/>
</svg>
