<svg width="395" height="196" viewBox="0 0 395 196" fill="none" xmlns="http://www.w3.org/2000/svg">
<path fill-rule="evenodd" clip-rule="evenodd" d="M98.8256 109.018C91.2025 114.11 81.7929 117 71.5094 117C58.4873 117 47.883 112.362 40.5301 104.535C33.1709 96.7006 29 85.5976 29 72.5562C29 46.3925 45.7051 23 71.5094 23C97.4201 23 118 46.5159 118 72.5562C118 87.7271 110.987 100.374 99.9412 108.248C99.4451 108.086 98.9643 108 98.5 108V109C98.6058 109 98.7143 109.006 98.8256 109.018ZM100.083 109.37C92.1722 114.869 82.3034 118 71.5094 118C44.9669 118 28 99.0659 28 72.5562C28 46.0465 44.9669 22 71.5094 22C98.0518 22 119 46.0465 119 72.5562C119 87.8576 112.021 100.635 101.015 108.704C101.721 109.068 102.454 109.562 103.21 110.163C104.927 111.529 106.842 113.51 108.944 115.989C113.149 120.948 118.163 127.967 123.911 136.214C128.593 142.933 130.807 154.095 131.699 165.223C132.593 176.377 132.167 187.607 131.498 194.548L131.416 195.399L130.714 194.91C125.317 191.148 105.717 182.795 70.9602 179.998C36.2795 177.208 9.69243 188.808 0.782614 194.912L0 195.449V194.5C0 193.765 0.127917 192.188 0.314288 189.991L0.388821 189.114C0.565461 187.04 0.783409 184.48 1.00138 181.55C1.5009 174.836 2 166.183 2 157V156.931L2.01877 156.864C7.57873 137.152 26.9165 122.4 46.7603 111.561L47.2397 112.439C27.4396 123.254 8.46483 137.815 2.99999 157.069C2.99748 166.261 2.49785 174.914 1.99862 181.625C1.78024 184.56 1.56184 187.125 1.38521 189.199L1.38519 189.199L1.31071 190.075C1.18511 191.556 1.08901 192.725 1.03881 193.541C10.8449 187.205 37.1177 176.272 71.0404 179.002C104.548 181.698 124.144 189.551 130.58 193.622C131.198 186.684 131.556 175.955 130.702 165.302C129.811 154.188 127.607 143.267 123.09 136.786C117.338 128.533 112.351 121.552 108.181 116.636C106.096 114.177 104.23 112.252 102.587 110.946C101.659 110.208 100.825 109.686 100.083 109.37Z" fill="white"/>
<path fill-rule="evenodd" clip-rule="evenodd" d="M305.345 109.013C312.248 114.113 320.764 117 330.045 117C341.787 117 351.361 112.388 358.014 104.571C364.681 96.7394 368.469 85.6235 368.469 72.5562C368.469 59.4826 364.676 47.0588 357.97 37.929C351.275 28.8143 341.699 23 330.045 23C306.712 23 288.014 46.4178 288.014 72.5562C288.014 87.7516 294.36 100.369 304.319 108.23C304.754 108.08 305.177 108 305.589 108V109C305.509 109 305.428 109.004 305.345 109.013ZM304.162 109.376C311.329 114.871 320.268 118 330.045 118C354.095 118 369.469 99.0659 369.469 72.5562C369.469 46.0465 354.095 22 330.045 22C305.995 22 287.014 46.0465 287.014 72.5562C287.014 87.8529 293.334 100.627 303.301 108.697C302.645 109.066 301.968 109.569 301.274 110.179C299.716 111.547 297.979 113.529 296.075 116.008C292.264 120.967 287.722 127.986 282.514 136.233C278.273 142.948 276.269 154.102 275.461 165.226C274.65 176.378 275.036 187.605 275.642 194.544L275.722 195.453L276.445 194.896C281.324 191.143 299.068 182.794 330.551 179.998C361.949 177.21 386.021 188.801 394.085 194.899L394.887 195.505V194.5C394.887 193.767 394.771 192.193 394.602 189.995L394.535 189.118C394.374 187.044 394.177 184.484 393.979 181.554C393.527 174.839 393.075 166.184 393.075 157V156.937L393.059 156.876C388.024 137.173 370.503 122.417 352.511 111.572L351.995 112.428C369.927 123.238 387.122 137.796 392.075 157.063C392.077 166.255 392.529 174.91 392.982 181.621C393.18 184.556 393.377 187.121 393.538 189.195L393.605 190.071C393.716 191.52 393.802 192.672 393.849 193.487C384.881 187.134 361.116 176.28 330.462 179.002C300.24 181.686 282.496 189.478 276.565 193.574C276.007 186.632 275.686 175.927 276.458 165.299C277.266 154.182 279.263 143.252 283.359 136.767C288.571 128.514 293.09 121.533 296.868 116.617C298.757 114.158 300.448 112.235 301.933 110.93C302.765 110.201 303.506 109.688 304.162 109.376Z" fill="white"/>
<path fill-rule="evenodd" clip-rule="evenodd" d="M262.499 41.7748L262.462 41.7646C262.474 41.7317 262.487 41.6989 262.499 41.6659V41C262.576 41 262.654 41.002 262.732 41.0059C263.593 38.4457 263.999 35.7631 263.999 33C263.999 24.2601 259.934 16.3251 250.28 10.5226C240.568 4.6847 225.176 1 202.591 1C180.014 1 163.043 4.68187 151.756 10.5526C140.478 16.4186 134.999 24.3849 134.999 33C134.999 37.6346 136.585 42.0814 139.806 46.1145L139.112 46.4747L139.115 46.4864C139.099 46.4902 139.083 46.494 139.067 46.4979L138.902 46.5837C138.893 46.5719 138.884 46.5602 138.874 46.5485C137.008 47.0678 135.218 48.4369 133.538 50.4029C131.792 52.4476 130.201 55.0944 128.798 57.9692C126.495 62.6908 124.725 67.9776 123.615 72.1025C125.985 69.0184 129.403 65.3392 133.344 62.4946C138.227 58.9702 144.027 56.6488 149.657 58.5257C155.007 60.309 159.59 60.9287 163.215 61.2267C164.343 61.3194 165.363 61.3801 166.294 61.4354L166.295 61.4355L166.296 61.4355C166.873 61.4699 167.416 61.5022 167.928 61.5388C169.235 61.6321 170.339 61.753 171.157 62.0257L171.146 62.0597C180.011 63.9434 190.496 65 202.591 65C217.834 65 229.801 63.3216 238.956 60.4355C239.238 60.2817 239.563 60.1798 239.91 60.1086C240.372 60.0138 240.91 59.9661 241.505 59.9401C242.136 59.9127 242.879 59.909 243.7 59.905H243.7H243.7H243.701C244.396 59.9016 245.149 59.8979 245.937 59.8792C249.432 59.7962 253.999 59.42 259.33 57.509C264.978 55.4846 270.789 57.9916 275.668 61.7786C279.463 64.7245 282.773 68.5022 285.127 71.7379C283.475 67.0554 280.157 60.5902 276.333 54.8564C273.969 51.3118 271.429 48.0741 268.996 45.7287C267.779 44.5561 266.6 43.6174 265.494 42.9743C264.384 42.3293 263.378 42 262.499 42V41.7748ZM263.736 41.1564C264.592 38.5477 264.999 35.815 264.999 33C264.999 14.7746 247.926 0 202.591 0C157.256 0 133.999 14.7746 133.999 33C133.999 37.5 135.417 41.7896 138.235 45.6984C136.243 46.36 134.419 47.8329 132.778 49.7533C130.956 51.8857 129.322 54.6139 127.9 57.5308C125.054 63.3651 123.018 70.028 122.012 74.3876L122.913 74.7797C125.139 71.4821 129.15 66.7545 133.929 63.3054C138.721 59.8464 144.171 57.7512 149.341 59.4743C154.791 61.291 159.458 61.9213 163.133 62.2233C164.265 62.3164 165.318 62.3791 166.262 62.4354L166.262 62.4354C166.836 62.4696 167.37 62.5015 167.857 62.5362C168.361 62.5722 168.816 62.6115 169.224 62.659C178.534 64.7988 189.665 66 202.591 66C217.902 66 229.99 64.3148 239.284 61.3805L239.299 61.4C239.319 61.3849 239.34 61.3701 239.363 61.3555C239.675 61.2569 239.983 61.1569 240.287 61.0554C240.639 60.9964 241.057 60.9606 241.549 60.9392C242.178 60.9118 242.879 60.9087 243.671 60.9052H243.671H243.671C244.361 60.9022 245.12 60.8989 245.961 60.8789C249.515 60.7946 254.199 60.4107 259.668 58.4503C264.82 56.6034 270.259 58.8459 275.055 62.5685C279.834 66.2782 283.847 71.3639 286.075 74.9135L286.988 74.5428C285.968 69.7917 281.928 61.4427 277.165 54.3015C274.779 50.7241 272.194 47.4224 269.69 45.0087C268.438 43.8019 267.195 42.8062 265.996 42.1098C265.233 41.6664 264.476 41.3367 263.736 41.1564Z" fill="#F8FBFF"/>
<path d="M180.606 49.8226L184.821 51.768L179.244 53.7135L180.606 49.8226Z" stroke="#F8FBFF" stroke-width="0.3"/>
<path d="M187 31.3095L188.32 27.6111L196.312 35.6683L187 31.3095Z" stroke="#F8FBFF" stroke-width="0.3"/>
<path d="M204.212 44.9673L198.179 47.0683L183.888 40.4227L185.311 36.1519L204.212 44.9673Z" stroke="#F8FBFF" stroke-width="0.3"/>
<path d="M197.773 47.2116L191.666 49.383L182.296 44.9817L183.788 40.7083L197.773 47.2116Z" stroke="#F8FBFF" stroke-width="0.3"/>
<path d="M185.23 51.6262L180.706 49.5384L182.198 45.2665L191.263 49.5246L185.23 51.6262Z" stroke="#F8FBFF" stroke-width="0.3"/>
<path d="M194.295 38.5869L194.295 38.5869C191.881 36.2088 190.048 33.6908 189.036 31.5581C188.529 30.4911 188.231 29.5282 188.164 28.732C188.098 27.9357 188.262 27.3278 188.652 26.937C189.062 26.5447 189.685 26.38 190.494 26.4458C191.303 26.5117 192.277 26.8073 193.358 27.3095C195.518 28.3133 198.073 30.1286 200.523 32.5073C202.937 34.8853 204.77 37.4031 205.783 39.5357C206.289 40.6027 206.587 41.5656 206.654 42.3618C206.721 43.1581 206.556 43.766 206.166 44.1568C205.756 44.5496 205.132 44.7184 204.323 44.6581C203.514 44.5977 202.54 44.3088 201.46 43.8112C199.3 42.8165 196.746 41.0014 194.295 38.5869Z" stroke="#F8FBFF" stroke-width="0.3"/>
<path d="M194.535 20.468L194.87 20.5105L194.677 20.2335C194.397 19.83 194.271 19.4984 194.252 19.2374C194.232 18.9824 194.312 18.7891 194.46 18.6452C194.612 18.4971 194.846 18.391 195.148 18.341C195.449 18.2913 195.807 18.299 196.191 18.3689L196.6 18.4433L196.333 18.1248C195.582 17.2312 195.5 16.5356 195.78 16.1374C195.923 15.9338 196.178 15.7772 196.552 15.7032C196.927 15.6291 197.412 15.64 197.995 15.7638L197.995 15.7638L197.997 15.7641C198.065 15.7777 198.094 15.8001 198.106 15.8147C198.118 15.8282 198.127 15.8496 198.126 15.8891C198.124 15.9778 198.068 16.1141 197.952 16.2685C197.84 16.418 197.687 16.5645 197.526 16.6726C197.362 16.7826 197.206 16.8415 197.086 16.8415H196.632L196.997 17.1121C197.952 17.8195 198.093 18.5034 197.859 18.9365C197.614 19.3875 196.902 19.6963 195.882 19.5203L195.512 19.4566L195.736 19.7576C195.967 20.0682 196.115 20.3234 196.198 20.532C196.282 20.7411 196.297 20.8936 196.276 21.0044C196.238 21.2084 196.054 21.347 195.696 21.43C195.344 21.5115 194.886 21.5233 194.412 21.5222C194.319 21.522 194.225 21.5212 194.131 21.5205C193.758 21.5176 193.39 21.5147 193.092 21.5444L192.981 21.5555L192.96 21.6654C192.768 22.6632 193.247 23.7197 193.653 24.4941C193.721 24.6248 193.787 24.7464 193.847 24.8588C193.972 25.0902 194.076 25.2823 194.139 25.4335C194.161 25.4877 194.176 25.5317 194.184 25.5664C194.187 25.5777 194.188 25.5871 194.189 25.5948C194.037 25.5938 193.855 25.5204 193.655 25.3685C193.455 25.217 193.251 24.9969 193.059 24.7283C192.674 24.1908 192.35 23.4781 192.215 22.7861C192.078 22.0895 192.137 21.446 192.47 21.0145C192.796 20.5919 193.424 20.3268 194.535 20.468Z" stroke="#F8FBFF" stroke-width="0.3"/>
<path d="M209.688 23.6522L209.688 23.652L209.68 23.6555C209.601 23.6925 209.484 23.6901 209.325 23.6169C209.167 23.5446 208.988 23.4122 208.806 23.2308C208.443 22.8686 208.091 22.3354 207.886 21.7858C207.679 21.2315 207.633 20.6932 207.833 20.2986C208.025 19.9174 208.475 19.6185 209.385 19.601L209.765 19.5937L209.482 19.3395C208.944 18.8547 208.566 18.4402 208.344 18.0929C208.119 17.7413 208.072 17.4889 208.132 17.3101C208.19 17.134 208.373 16.9706 208.756 16.8471C209.136 16.7247 209.68 16.6529 210.398 16.635L210.748 16.6262L210.501 16.379C209.682 15.5599 209.423 14.9036 209.454 14.417C209.484 13.9377 209.801 13.5745 210.254 13.3455C210.709 13.116 211.281 13.0346 211.764 13.1133C212.238 13.1903 212.585 13.4105 212.7 13.7459C212.689 13.7465 212.676 13.7468 212.66 13.7466C212.594 13.7456 212.509 13.7361 212.403 13.7222C212.376 13.7186 212.348 13.7147 212.319 13.7107C212.237 13.6997 212.148 13.6876 212.057 13.6774C211.809 13.6499 211.523 13.6339 211.256 13.6912C210.985 13.7494 210.728 13.8854 210.556 14.1639L210.556 14.1638L210.555 14.1653C210.443 14.3524 210.455 14.5648 210.519 14.7665C210.582 14.9675 210.703 15.1799 210.841 15.39C210.962 15.5721 211.102 15.7605 211.239 15.9453C211.26 15.9747 211.282 16.0039 211.303 16.0331C211.462 16.2478 211.613 16.4561 211.731 16.6526C211.85 16.8511 211.927 17.0244 211.95 17.1694C211.972 17.3065 211.944 17.4089 211.86 17.4935C211.766 17.5867 211.586 17.6759 211.262 17.7324C210.94 17.7882 210.496 17.8089 209.895 17.782L209.509 17.7647L209.782 18.0379C210.232 18.4878 210.566 18.8719 210.775 19.1982C210.986 19.529 211.049 19.772 211.008 19.9514C210.969 20.122 210.824 20.2859 210.482 20.4281C210.14 20.57 209.633 20.6767 208.933 20.7486L208.693 20.7732L208.821 20.9773C209 21.2637 209.374 21.906 209.613 22.5085C209.734 22.8117 209.814 23.0917 209.826 23.3064C209.837 23.5244 209.777 23.6164 209.688 23.6522Z" stroke="#F8FBFF" stroke-width="0.3"/>
<path d="M211.174 35.1003L212.029 34.3599C212.051 34.3917 212.076 34.4282 212.105 34.4687C212.212 34.6213 212.362 34.8309 212.535 35.0589C212.879 35.5107 213.322 36.049 213.7 36.3512L213.888 36.5015L213.94 36.2666C214.01 35.9552 214.068 35.6593 214.123 35.3842C214.126 35.37 214.129 35.3559 214.132 35.3419C214.189 35.054 214.242 34.7905 214.298 34.5529C214.412 34.0713 214.535 33.7233 214.714 33.5088C214.8 33.4052 214.899 33.3345 215.016 33.2945C215.134 33.254 215.282 33.2416 215.471 33.2695C215.854 33.3262 216.38 33.5443 217.118 33.9763L217.481 34.1885L217.335 33.7947C216.919 32.6743 216.792 31.9691 216.852 31.5544C216.881 31.3532 216.952 31.2355 217.04 31.1659C217.131 31.0945 217.262 31.0559 217.445 31.058C217.819 31.0621 218.337 31.2331 218.946 31.4925C219.334 31.6575 219.746 31.8524 220.169 32.0527C220.408 32.1654 220.65 32.2798 220.893 32.3916L221.138 32.5042L221.105 32.2367C221.068 31.9461 221.052 31.7521 221.062 31.6141C221.072 31.482 221.104 31.4214 221.149 31.3787C221.203 31.3276 221.295 31.2837 221.469 31.2284C221.547 31.2035 221.637 31.1777 221.742 31.1477L221.767 31.1404C221.84 31.1193 221.92 31.0962 222.007 31.0703C222.22 31.9359 222.22 32.4994 222.094 32.8462C222.029 33.0248 221.932 33.1441 221.812 33.2222C221.691 33.3014 221.536 33.3451 221.347 33.3534C220.964 33.37 220.473 33.24 219.931 33.0206C219.393 32.8026 218.821 32.5034 218.281 32.1972L217.921 31.9935L218.066 32.3803C218.39 33.2449 218.541 33.8631 218.552 34.2869C218.557 34.4976 218.527 34.6499 218.476 34.7579C218.426 34.8622 218.353 34.9316 218.254 34.9759C218.043 35.0706 217.699 35.0574 217.207 34.9292C216.723 34.8033 216.13 34.5763 215.444 34.2873L215.246 34.2042L215.236 34.4181C215.2 35.1318 215.075 35.8934 214.856 36.4898C214.746 36.7881 214.615 37.0379 214.466 37.2193C214.317 37.4001 214.157 37.5045 213.986 37.5329L213.978 37.5343L213.97 37.5367C213.882 37.5618 213.772 37.5554 213.638 37.51C213.503 37.4646 213.354 37.3835 213.194 37.2728C212.875 37.0514 212.536 36.7261 212.222 36.3857C211.91 36.0463 211.628 35.6973 211.424 35.4326C211.322 35.3004 211.24 35.1896 211.183 35.1119C211.18 35.108 211.177 35.1041 211.174 35.1003Z" stroke="#F8FBFF" stroke-width="0.3"/>
<path d="M202.754 24.2792L202.753 24.2803C202.116 25.1291 201.282 25.7872 200.406 26.4285C200.269 26.5288 200.131 26.6288 199.992 26.7291C199.25 27.266 198.497 27.8111 197.848 28.46C197.433 28.8746 197.067 29.4609 196.752 30.0978C196.582 30.4424 196.425 30.8043 196.282 31.166C196.402 30.763 196.537 30.359 196.69 29.9758C196.956 29.311 197.269 28.7186 197.633 28.3031L197.633 28.3024C198.182 27.6668 198.835 27.1023 199.499 26.5284C199.656 26.393 199.813 26.2572 199.97 26.1197C200.785 25.4044 201.578 24.6499 202.134 23.724L202.134 23.7241L202.135 23.7207C203.101 22.0129 203.133 20.0525 202.62 18.2082C202.121 16.4193 201.106 14.7283 199.908 13.458C199.968 13.4076 200.03 13.3554 200.093 13.3019C200.496 12.9626 200.963 12.5693 201.275 12.2336C202.412 13.6939 203.45 15.7777 203.883 17.9433C204.33 20.1791 204.129 22.4807 202.754 24.2792Z" stroke="#F8FBFF" stroke-width="0.3"/>
<path d="M198.722 34.9156C199.397 34.3037 200.027 33.6476 200.396 33.0583L200.396 33.0583L200.397 33.0559C200.444 32.9773 200.491 32.8986 200.539 32.8198C201.797 30.7204 203.063 28.6073 204.99 27.093C208.939 24.0615 214.653 24.2967 219.165 25.9039C219.028 26.2263 218.86 26.6548 218.72 27.0203C218.638 27.2333 218.566 27.4258 218.514 27.5651L218.477 27.6632C218.406 27.645 218.308 27.6203 218.185 27.5904C217.913 27.5244 217.521 27.4333 217.038 27.3329C216.073 27.1321 214.745 26.8938 213.296 26.7439C211.848 26.5941 210.275 26.5322 208.819 26.6863C207.367 26.8401 206.016 27.2107 205.027 27.9386C203.178 29.2896 201.816 31.2587 200.55 33.0877C200.512 33.1435 200.473 33.1993 200.435 33.2548C200.065 33.7862 199.423 34.3696 198.722 34.9156Z" stroke="#F8FBFF" stroke-width="0.3"/>
<path d="M203.943 37.6464C204.282 37.5839 204.623 37.5095 204.952 37.4211C205.59 37.2498 206.191 37.0231 206.645 36.7206C208.425 35.5339 209.378 33.4663 210.031 31.5818C211.318 28.0051 212.868 24.221 216.455 22.6196C216.564 22.9394 216.715 23.3625 216.847 23.7249C216.924 23.9377 216.994 24.13 217.045 24.2691L217.074 24.3489C217.015 24.3702 216.94 24.399 216.85 24.4365C216.616 24.5353 216.283 24.6948 215.887 24.9388C215.095 25.4269 214.05 26.2527 213.025 27.6068C213.025 27.607 213.025 27.6072 213.025 27.6074L213.145 27.6979C212.338 28.7414 211.812 29.9405 211.28 31.1524C211 31.7887 210.719 32.4284 210.396 33.0511L203.943 37.6464ZM203.943 37.6464C204.942 37.561 205.951 37.3842 206.638 37.0409M203.943 37.6464L206.638 37.0409M206.638 37.0409C208.261 36.1938 209.4 34.6353 210.263 32.9819L206.638 37.0409ZM183.755 20.1919L181.921 22.0269L180.087 20.1925L181.921 18.3581L183.755 20.1919Z" stroke="#F8FBFF" stroke-width="0.3"/>
<path d="M184.787 28.4444L182.954 26.6107L184.787 24.7771L186.621 26.6107L184.787 28.4444Z" stroke="#F8FBFF" stroke-width="0.3"/>
<path d="M188.154 16.935L189.987 15.1013L191.821 16.935L189.987 18.7686L188.154 16.935Z" stroke="#F8FBFF" stroke-width="0.3"/>
<path d="M210.466 41.4401L212.3 39.6057L214.133 41.4401L212.3 43.2737L210.466 41.4401Z" stroke="#F8FBFF" stroke-width="0.3"/>
<path d="M207.741 50.2869L205.907 48.4526L207.741 46.6189L209.575 48.4532L207.741 50.2869Z" stroke="#F8FBFF" stroke-width="0.3"/>
<path d="M214.861 50.0563L216.694 48.2219L218.528 50.0563L216.694 51.89L214.861 50.0563Z" stroke="#F8FBFF" stroke-width="0.3"/>
<path d="M216.886 40.7418L218.72 38.9081L220.553 40.7418L218.72 42.5761L216.886 40.7418ZM215.304 20.9398L213.47 19.1061L215.304 17.2717L217.138 19.1061L215.304 20.9398Z" stroke="#F8FBFF" stroke-width="0.3"/>
<path d="M193.375 33.2156L191.54 31.3813L193.375 29.5476L195.208 31.3813L193.375 33.2156Z" stroke="#F8FBFF" stroke-width="0.3"/>
<path d="M204.621 44.8269L185.409 35.8661L186.901 31.5935L196.927 36.2864L205.268 44.6278L204.621 44.8269Z" stroke="#F8FBFF" stroke-width="0.3"/>
</svg>
