<svg width="366" height="207" viewBox="0 0 366 207" fill="none" xmlns="http://www.w3.org/2000/svg">
<path fill-rule="evenodd" clip-rule="evenodd" d="M279.38 120.011C286.054 125.114 294.284 128 303.246 128C314.579 128 323.825 123.398 330.257 115.584C336.703 107.752 340.369 96.6316 340.369 83.5562C340.369 70.4754 336.699 58.0468 330.214 48.9161C323.739 39.7999 314.489 34 303.246 34C291.983 34 281.848 39.8211 274.499 48.9635C267.149 58.1076 262.635 70.5246 262.635 83.5562C262.635 98.7599 268.769 111.367 278.383 119.224C278.798 119.078 279.203 119 279.597 119V120C279.526 120 279.454 120.004 279.38 120.011ZM278.22 120.378C285.15 125.872 293.793 129 303.246 129C326.503 129 341.369 110.066 341.369 83.5562C341.369 57.0465 326.503 33 303.246 33C279.99 33 261.635 57.0465 261.635 83.5562C261.635 98.8511 267.745 111.624 277.381 119.694C276.741 120.065 276.082 120.572 275.407 121.184C273.9 122.553 272.221 124.536 270.379 127.014C266.694 131.973 262.301 138.993 257.265 147.239C253.166 153.952 251.228 165.104 250.446 176.227C249.663 187.378 250.036 198.604 250.622 205.542L250.701 206.473L251.432 205.891C256.146 202.142 273.299 193.793 303.738 190.998C334.091 188.211 357.361 199.798 365.157 205.894L365.965 206.526V205.5C365.965 204.768 365.853 203.195 365.69 200.996L365.624 200.119C365.47 198.045 365.279 195.485 365.088 192.555C364.65 185.84 364.212 177.185 364.212 168V167.939L364.198 167.88C359.329 148.181 342.387 133.424 324.986 122.576L324.457 123.424C341.794 134.232 358.423 148.79 363.212 168.061C363.214 177.253 363.652 185.908 364.09 192.62C364.281 195.555 364.472 198.12 364.627 200.194L364.692 201.07C364.799 202.508 364.882 203.653 364.927 204.467C356.226 198.109 333.26 187.283 303.647 190.002C274.471 192.681 257.315 200.452 251.546 204.556C251.007 197.613 250.698 186.917 251.444 176.298C252.225 165.18 254.157 154.248 258.119 147.761C263.159 139.507 267.528 132.527 271.182 127.611C273.009 125.152 274.643 123.229 276.079 121.925C276.88 121.198 277.592 120.689 278.22 120.378Z" fill="white"/>
<path fill-rule="evenodd" clip-rule="evenodd" d="M78.4458 120.006C72.4028 125.116 64.9569 128 56.8763 128C46.6747 128 38.3287 123.431 32.5041 115.621C26.6618 107.788 23.3331 96.6532 23.3331 83.5562C23.3331 70.4559 26.6641 58.0133 32.5434 48.8782C38.4164 39.7527 46.7711 34 56.8763 34C67.0054 34 76.1602 39.7787 82.8222 48.9257C89.4822 58.07 93.5803 70.5002 93.5803 83.5562C93.5803 98.784 88.0293 111.361 79.3645 119.202C79.005 119.07 78.6514 119 78.3046 119V120C78.3507 120 78.3978 120.002 78.4458 120.006ZM79.5443 120.385C73.2665 125.874 65.438 129 56.8763 129C35.8036 129 22.3331 110.066 22.3331 83.5562C22.3331 57.0465 35.8036 33 56.8763 33C77.949 33 94.5803 57.0465 94.5803 83.5562C94.5803 98.8454 89.0482 111.615 80.3227 119.685C80.9194 120.062 81.5298 120.58 82.1505 121.201C83.5179 122.571 85.0399 124.555 86.7083 127.033C90.0472 131.992 94.0271 139.011 98.5904 147.258C102.302 153.965 104.057 165.109 104.765 176.231C105.475 187.379 105.137 198.602 104.606 205.538L104.53 206.536L103.778 205.876C99.5164 202.135 83.9897 193.791 56.4215 190.997C28.9484 188.213 7.88326 199.789 0.826678 205.879L0 206.592V205.5C0 204.687 0.128224 202.789 0.311215 200.08L0.311225 200.08C0.451306 198.007 0.62348 195.458 0.794794 192.558C1.19145 185.842 1.58785 177.186 1.58785 168V167.945L1.59993 167.891C6.00869 148.202 21.3568 133.443 37.1341 122.588L37.7009 123.412C22.0004 134.214 6.92821 148.771 2.58784 168.055C2.58625 177.248 2.18953 185.904 1.79305 192.617C1.61792 195.582 1.44367 198.158 1.3033 200.233L1.30328 200.233C1.18255 202.018 1.08689 203.432 1.03729 204.404C9.00087 198.03 29.7702 187.291 56.5223 190.003C82.8225 192.668 98.3549 200.371 103.679 204.501C104.165 197.555 104.441 186.887 103.767 176.294C103.059 165.174 101.308 154.235 97.7155 147.742C93.1487 139.489 89.1893 132.508 85.8788 127.592C84.2227 125.132 82.7426 123.21 81.4428 121.908C80.7276 121.191 80.0959 120.693 79.5443 120.385Z" fill="white"/>
<path fill-rule="evenodd" clip-rule="evenodd" d="M126.998 41.7746L127.134 41.7316C127.087 41.5886 127.042 41.4453 126.998 41.3015V41C126.968 41 126.938 41.0004 126.908 41.0011C126.16 38.4464 125.805 35.766 125.805 33C125.805 24.1999 129.397 16.266 137.816 10.4901C146.287 4.67909 159.726 1 179.487 1C199.242 1 214.07 4.67655 223.923 10.5254C233.752 16.3601 238.588 24.3171 238.588 33C238.588 37.6353 237.209 42.0637 234.429 46.0728L235.084 46.4606L235.078 46.4825C235.105 46.4899 235.132 46.4976 235.16 46.5055L235.292 46.5837C235.299 46.5733 235.306 46.5629 235.313 46.5526C236.911 47.07 238.46 48.4192 239.926 50.3778C241.457 52.4221 242.851 55.0698 244.081 57.9465C246.062 62.5814 247.593 67.7607 248.569 71.8528C246.502 68.8268 243.581 65.2781 240.225 62.5141C235.949 58.9915 230.825 56.633 225.831 58.5327C221.155 60.3117 217.15 60.9299 213.98 61.2272C212.992 61.3198 212.102 61.3802 211.289 61.4355L211.288 61.4355L211.287 61.4356C210.78 61.4699 210.304 61.5023 209.852 61.5392C208.707 61.6325 207.725 61.7541 206.993 62.0327L207.004 62.0617C199.252 63.9433 190.078 65 179.487 65C166.121 65 155.647 63.3169 147.647 60.4294C147.398 60.2812 147.115 60.1816 146.816 60.1115C146.402 60.0146 145.923 59.9663 145.398 59.9403C144.845 59.9128 144.189 59.9091 143.465 59.905H143.465C142.854 59.9015 142.196 59.8978 141.513 59.8792C138.459 59.7965 134.472 59.4216 129.816 57.5169C124.803 55.4663 119.667 58.0166 115.396 61.7993C112.19 64.6401 109.38 68.2517 107.334 71.405C108.815 66.7447 111.668 60.4367 114.944 54.8312C117.016 51.2858 119.241 48.0487 121.372 45.7051C122.437 44.5329 123.467 43.5977 124.43 42.9587C125.399 42.3164 126.26 42 126.998 42V41.7746ZM125.911 41.153C125.162 38.5453 124.805 35.8138 124.805 33C124.805 14.7746 139.765 0 179.487 0C219.209 0 239.588 14.7746 239.588 33C239.588 37.4973 238.347 41.7845 235.881 45.6915C237.665 46.3554 239.282 47.8491 240.727 49.7785C242.323 51.9112 243.754 54.6386 245 57.5535C247.492 63.3849 249.275 70.0445 250.156 74.4009L249.236 74.7545C247.284 71.4553 243.771 66.7305 239.59 63.2859C235.388 59.8251 230.656 57.767 226.187 59.4673C221.4 61.2883 217.3 61.9201 214.073 62.2228C213.081 62.3159 212.154 62.379 211.325 62.4354L211.325 62.4354L211.324 62.4355C210.822 62.4696 210.356 62.5014 209.933 62.5358C209.479 62.5728 209.074 62.6131 208.713 62.6618C200.558 64.7999 190.808 66 179.487 66C166.041 66 155.432 64.307 147.28 61.3603L147.264 61.3798C147.245 61.3636 147.224 61.3475 147.202 61.3318C146.955 61.2421 146.71 61.1511 146.467 61.059C146.161 60.9981 145.791 60.961 145.349 60.939C144.798 60.9117 144.189 60.9087 143.499 60.9053C142.895 60.9023 142.229 60.899 141.486 60.8789C138.363 60.7943 134.245 60.409 129.437 58.4424C124.987 56.6218 120.267 58.8209 116.059 62.5478C111.876 66.2534 108.361 71.337 106.407 74.8887L105.478 74.5553C106.37 69.8134 109.907 61.4689 114.081 54.3267C116.171 50.7501 118.436 47.4477 120.632 45.0324C121.729 43.825 122.821 42.8259 123.877 42.1254C124.558 41.6742 125.24 41.3357 125.911 41.153Z" fill="#F8FBFF"/>
<path d="M193.989 31.1032L193.989 31.1042C194.93 33.5851 194.504 36.0554 193.258 38.4302C192.006 40.8147 189.943 43.0692 187.68 45.0613C185.422 47.0496 182.991 48.754 181.03 50.0448C180.228 50.5729 179.507 51.0302 178.908 51.4102C178.775 51.4947 178.647 51.5754 178.527 51.6521C178.196 51.8624 177.911 52.0452 177.686 52.1964C177.63 52.2342 177.576 52.2713 177.524 52.3073C177.462 52.2592 177.397 52.2104 177.33 52.1614C177.101 51.9943 176.812 51.7993 176.48 51.5801C176.173 51.3775 175.822 51.1508 175.439 50.903L175.343 50.8406C174.921 50.5678 174.461 50.2694 173.97 49.9465C172.007 48.654 169.575 46.9747 167.317 45.0152C165.054 43.052 162.992 40.8307 161.742 38.4619C160.497 36.1042 160.069 33.629 161.012 31.1017C161.877 28.7834 163.22 27.3125 164.747 26.4637C166.279 25.6115 168.035 25.3659 169.75 25.5673C171.467 25.7689 173.123 26.4166 174.435 27.3231C175.753 28.2337 176.683 29.3754 177.02 30.5413L177.988 30.5116C178.228 29.4388 179.087 28.3269 180.381 27.4098C181.666 26.4994 183.325 25.8213 185.062 25.5881C186.797 25.3552 188.586 25.5688 190.153 26.4099C191.714 27.2474 193.095 28.7278 193.989 31.1032Z" stroke="#F8FBFF"/>
<path d="M212.013 15.0682L212.014 15.0691C212.974 16.4027 213.122 17.954 212.75 19.6045C212.376 21.2659 211.482 22.991 210.412 24.599C209.345 26.2021 208.123 27.6604 207.121 28.7873C206.711 29.2483 206.34 29.6515 206.031 29.9878C205.962 30.0626 205.896 30.1341 205.834 30.2022C205.663 30.388 205.515 30.5507 205.399 30.6841C205.399 30.6841 205.399 30.6841 205.399 30.6841C205.389 30.6803 205.379 30.6765 205.37 30.6727C205.195 30.6054 204.98 30.531 204.736 30.4499C204.511 30.3748 204.254 30.2919 203.974 30.2016L203.904 30.179C203.597 30.0796 203.261 29.971 202.903 29.8521C201.469 29.3762 199.685 28.7398 197.965 27.9026C196.239 27.0629 194.609 26.0365 193.458 24.7947C192.315 23.5623 191.664 22.1422 191.823 20.4768C191.972 18.9282 192.546 17.8302 193.32 17.0802C194.1 16.3254 195.114 15.8934 196.185 15.7371C197.257 15.5806 198.366 15.7043 199.306 16.0399C200.253 16.3778 200.981 16.9121 201.357 17.5351L202.285 17.2558C202.258 16.6089 202.579 15.816 203.215 15.0488C203.844 14.2905 204.74 13.6097 205.755 13.1863C206.768 12.7637 207.877 12.6062 208.949 12.8579C210.013 13.1079 211.083 13.7711 212.013 15.0682Z" stroke="#F8FBFF"/>
<path d="M158.702 18.3032L158.703 18.3043C159.006 19.4048 158.731 20.4561 158.077 21.4617C157.417 22.4766 156.389 23.4122 155.263 24.231C154.141 25.0464 152.949 25.7262 151.986 26.2383C151.592 26.4477 151.24 26.6276 150.944 26.7782C150.879 26.8117 150.816 26.8438 150.756 26.8745C150.631 26.9384 150.518 26.9968 150.42 27.0486C150.327 26.9683 150.217 26.8785 150.096 26.7813C149.961 26.673 149.807 26.5516 149.64 26.42L149.598 26.3866C149.414 26.2414 149.213 26.0833 149 25.9125C148.147 25.2286 147.101 24.3508 146.148 23.3544C145.192 22.3539 144.356 21.2594 143.896 20.1476C143.44 19.0476 143.364 17.9604 143.87 16.9126C144.349 15.9238 144.993 15.3472 145.676 15.0471C146.365 14.7442 147.133 14.706 147.878 14.8649C148.624 15.0242 149.326 15.3777 149.863 15.8286C150.406 16.2841 150.743 16.8052 150.834 17.2827L151.801 17.3434C151.931 16.9411 152.318 16.5062 152.928 16.1545C153.528 15.8087 154.286 15.578 155.061 15.547C155.833 15.516 156.597 15.6841 157.234 16.1064C157.863 16.5244 158.405 17.2157 158.702 18.3032Z" stroke="#F8FBFF"/>
</svg>
