<svg width="1841" height="701" viewBox="0 0 1841 701" fill="none" xmlns="http://www.w3.org/2000/svg">
<path fill-rule="evenodd" clip-rule="evenodd" d="M1423.93 189.156C1452.73 196.247 1482.02 176.146 1511.36 180.479C1545.39 185.505 1582.61 191.724 1606.81 216.165C1631.1 240.696 1643.63 277.77 1641.83 312.242C1640.07 345.886 1607 369.268 1597.13 401.479C1588.13 430.819 1603.43 466.008 1586.79 491.796C1570.19 517.528 1532.6 518.914 1508.86 538.272C1477.18 564.116 1462.82 611.97 1423.93 624.628C1385.94 636.995 1343.53 620.922 1307.41 603.852C1271.18 586.734 1232.21 563.964 1217.07 526.877C1201.71 489.247 1226.05 447.522 1227.01 406.892C1227.74 376.141 1215.13 345.868 1222.08 315.903C1229.02 285.975 1252.95 264.037 1266.54 236.483C1283.66 201.765 1275.89 142.776 1312.97 131.626C1353.38 119.477 1382.96 179.067 1423.93 189.156Z" fill="#4B73D2"/>
<path fill-rule="evenodd" clip-rule="evenodd" d="M646.14 289.29C699.508 294.254 716.197 362.113 753.373 400.703C789.168 437.86 849.434 456.817 856.72 507.881C864.457 562.097 836.519 623.366 789.048 650.716C745.661 675.712 695.759 622.432 646.14 629.202C577.619 638.552 521.965 722.265 458.045 695.88C388.925 667.347 338.602 581.373 352.239 507.881C365.466 436.599 458.708 421.987 516.9 378.707C560.596 346.207 591.907 284.246 646.14 289.29Z" fill="#436ACC"/>
<path fill-rule="evenodd" clip-rule="evenodd" d="M230.794 208.288C295.981 183.818 390.349 130.496 430.666 187.166C473.349 247.163 355.013 313.08 357.658 386.612C360.543 466.798 480.747 528.767 445.551 600.91C412.243 669.182 305.282 662.169 230.794 646.649C168.096 633.584 132.539 574.861 90.2324 526.874C52.1905 483.724 -10.6284 442.786 1.5388 386.612C13.664 330.632 94.9277 331.415 140.195 296.205C174.733 269.34 189.807 223.675 230.794 208.288Z" fill="#0E41DB"/>
<path fill-rule="evenodd" clip-rule="evenodd" d="M1619.79 46.3819C1684.98 21.8621 1779.35 -31.5677 1819.67 25.2172C1862.35 85.3355 1744.01 151.386 1746.66 225.065C1749.54 305.413 1869.75 367.508 1834.55 439.797C1801.24 508.206 1694.28 501.18 1619.79 485.628C1557.1 472.537 1521.54 413.695 1479.23 365.611C1441.19 322.374 1378.37 281.353 1390.54 225.065C1402.66 168.972 1483.93 169.758 1529.19 134.476C1563.73 107.557 1578.81 61.7991 1619.79 46.3819Z" fill="#1D3FA9"/>
</svg>
